<?xml version="1.0" encoding="UTF-8" standalone="no"?>
<!DOCTYPE svg PUBLIC "-//W3C//DTD SVG 1.1//EN"
 "http://www.w3.org/Graphics/SVG/1.1/DTD/svg11.dtd">
<!-- Generated by graphviz version 2.36.0 (20140111.2315)
 -->
<!-- Title: G Pages: 1 -->
<svg width="1322pt" height="1489pt"
 viewBox="0.00 0.00 1322.00 1489.00" xmlns="http://www.w3.org/2000/svg" xmlns:xlink="http://www.w3.org/1999/xlink">
<g id="graph0" class="graph" transform="scale(1 1) rotate(0) translate(4 1485)">
<title>G</title>
<polygon fill="white" stroke="none" points="-4,4 -4,-1485 1318,-1485 1318,4 -4,4"/>
<g id="clust1" class="cluster"><title>cluster_Global</title>
<path fill="none" stroke="gray" d="M182,-98C182,-98 1294,-98 1294,-98 1300,-98 1306,-104 1306,-110 1306,-110 1306,-1461 1306,-1461 1306,-1467 1300,-1473 1294,-1473 1294,-1473 182,-1473 182,-1473 176,-1473 170,-1467 170,-1461 170,-1461 170,-110 170,-110 170,-104 176,-98 182,-98"/>
<text text-anchor="middle" x="738" y="-1460.2" font-family="Times,serif" font-size="11.00" fill="gray">Global</text>
</g>
<g id="clust2" class="cluster"><title>cluster_\OntologyWrapper</title>
<path fill="none" stroke="gray" d="M190,-106C190,-106 1286,-106 1286,-106 1292,-106 1298,-112 1298,-118 1298,-118 1298,-1434 1298,-1434 1298,-1440 1292,-1446 1286,-1446 1286,-1446 190,-1446 190,-1446 184,-1446 178,-1440 178,-1434 178,-1434 178,-118 178,-118 178,-112 184,-106 190,-106"/>
<text text-anchor="middle" x="738" y="-1433.2" font-family="Times,serif" font-size="11.00" fill="gray">OntologyWrapper</text>
</g>
<g id="clust3" class="cluster"><title>cluster_\OntologyWrapper\traits</title>
<path fill="none" stroke="gray" d="M1168,-214C1168,-214 1278,-214 1278,-214 1284,-214 1290,-220 1290,-226 1290,-226 1290,-1407 1290,-1407 1290,-1413 1284,-1419 1278,-1419 1278,-1419 1168,-1419 1168,-1419 1162,-1419 1156,-1413 1156,-1407 1156,-1407 1156,-226 1156,-226 1156,-220 1162,-214 1168,-214"/>
<text text-anchor="middle" x="1223" y="-1406.2" font-family="Times,serif" font-size="11.00" fill="gray">traits</text>
</g>
<!-- \\OntologyWrapper\\traits\\Label -->
<g id="node1" class="node"><title>\\OntologyWrapper\\traits\\Label</title>
<polygon fill="none" stroke="black" points="1250,-1392 1196,-1392 1196,-1356 1250,-1356 1250,-1392"/>
<text text-anchor="middle" x="1223" y="-1370.7" font-family="Times,serif" font-size="11.00">Label</text>
</g>
<!-- \\OntologyWrapper\\traits\\EntityPhone -->
<g id="node2" class="node"><title>\\OntologyWrapper\\traits\\EntityPhone</title>
<polygon fill="none" stroke="black" points="1258.39,-1338 1187.61,-1338 1187.61,-1302 1258.39,-1302 1258.39,-1338"/>
<text text-anchor="middle" x="1223" y="-1316.7" font-family="Times,serif" font-size="11.00">EntityPhone</text>
</g>
<!-- \\OntologyWrapper\\traits\\MemcachedDictionary -->
<g id="node3" class="node"><title>\\OntologyWrapper\\traits\\MemcachedDictionary</title>
<polygon fill="none" stroke="black" points="1281.29,-1284 1164.71,-1284 1164.71,-1248 1281.29,-1248 1281.29,-1284"/>
<text text-anchor="middle" x="1223" y="-1262.7" font-family="Times,serif" font-size="11.00">MemcachedDictionary</text>
</g>
<!-- \\OntologyWrapper\\traits\\AccessorOffset -->
<g id="node4" class="node"><title>\\OntologyWrapper\\traits\\AccessorOffset</title>
<polygon fill="none" stroke="black" points="1264.61,-1230 1181.39,-1230 1181.39,-1194 1264.61,-1194 1264.61,-1230"/>
<text text-anchor="middle" x="1223" y="-1208.7" font-family="Times,serif" font-size="11.00">AccessorOffset</text>
</g>
<!-- \\OntologyWrapper\\traits\\EntityMail -->
<g id="node5" class="node"><title>\\OntologyWrapper\\traits\\EntityMail</title>
<polygon fill="none" stroke="black" points="1254.66,-1176 1191.34,-1176 1191.34,-1140 1254.66,-1140 1254.66,-1176"/>
<text text-anchor="middle" x="1223" y="-1154.7" font-family="Times,serif" font-size="11.00">EntityMail</text>
</g>
<!-- \\OntologyWrapper\\traits\\Terms -->
<g id="node6" class="node"><title>\\OntologyWrapper\\traits\\Terms</title>
<polygon fill="none" stroke="black" points="1250,-1122 1196,-1122 1196,-1086 1250,-1086 1250,-1122"/>
<text text-anchor="middle" x="1223" y="-1100.7" font-family="Times,serif" font-size="11.00">Terms</text>
</g>
<!-- \\OntologyWrapper\\traits\\Definition -->
<g id="node7" class="node"><title>\\OntologyWrapper\\traits\\Definition</title>
<polygon fill="none" stroke="black" points="1253.11,-1068 1192.89,-1068 1192.89,-1032 1253.11,-1032 1253.11,-1068"/>
<text text-anchor="middle" x="1223" y="-1046.7" font-family="Times,serif" font-size="11.00">Definition</text>
</g>
<!-- \\OntologyWrapper\\traits\\EntityFax -->
<g id="node8" class="node"><title>\\OntologyWrapper\\traits\\EntityFax</title>
<polygon fill="none" stroke="black" points="1252.89,-1014 1193.11,-1014 1193.11,-978 1252.89,-978 1252.89,-1014"/>
<text text-anchor="middle" x="1223" y="-992.7" font-family="Times,serif" font-size="11.00">EntityFax</text>
</g>
<!-- \\OntologyWrapper\\traits\\Description -->
<g id="node9" class="node"><title>\\OntologyWrapper\\traits\\Description</title>
<polygon fill="none" stroke="black" points="1256.82,-960 1189.18,-960 1189.18,-924 1256.82,-924 1256.82,-960"/>
<text text-anchor="middle" x="1223" y="-938.7" font-family="Times,serif" font-size="11.00">Description</text>
</g>
<!-- \\OntologyWrapper\\traits\\Category -->
<g id="node10" class="node"><title>\\OntologyWrapper\\traits\\Category</title>
<polygon fill="none" stroke="black" points="1251.32,-906 1194.68,-906 1194.68,-870 1251.32,-870 1251.32,-906"/>
<text text-anchor="middle" x="1223" y="-884.7" font-family="Times,serif" font-size="11.00">Category</text>
</g>
<!-- \\OntologyWrapper\\traits\\EntityKind -->
<g id="node11" class="node"><title>\\OntologyWrapper\\traits\\EntityKind</title>
<polygon fill="none" stroke="black" points="1255.39,-852 1190.61,-852 1190.61,-816 1255.39,-816 1255.39,-852"/>
<text text-anchor="middle" x="1223" y="-830.7" font-family="Times,serif" font-size="11.00">EntityKind</text>
</g>
<!-- \\OntologyWrapper\\traits\\Synonym -->
<g id="node12" class="node"><title>\\OntologyWrapper\\traits\\Synonym</title>
<polygon fill="none" stroke="black" points="1252.17,-798 1193.83,-798 1193.83,-762 1252.17,-762 1252.17,-798"/>
<text text-anchor="middle" x="1223" y="-776.7" font-family="Times,serif" font-size="11.00">Synonym</text>
</g>
<!-- \\OntologyWrapper\\traits\\EntityAffiliation -->
<g id="node13" class="node"><title>\\OntologyWrapper\\traits\\EntityAffiliation</title>
<polygon fill="none" stroke="black" points="1267.22,-744 1178.78,-744 1178.78,-708 1267.22,-708 1267.22,-744"/>
<text text-anchor="middle" x="1223" y="-722.7" font-family="Times,serif" font-size="11.00">EntityAffiliation</text>
</g>
<!-- \\OntologyWrapper\\traits\\EntityType -->
<g id="node14" class="node"><title>\\OntologyWrapper\\traits\\EntityType</title>
<polygon fill="none" stroke="black" points="1255.22,-690 1190.78,-690 1190.78,-654 1255.22,-654 1255.22,-690"/>
<text text-anchor="middle" x="1223" y="-668.7" font-family="Times,serif" font-size="11.00">EntityType</text>
</g>
<!-- \\OntologyWrapper\\traits\\EntityEmail -->
<g id="node15" class="node"><title>\\OntologyWrapper\\traits\\EntityEmail</title>
<polygon fill="none" stroke="black" points="1257.66,-636 1188.34,-636 1188.34,-600 1257.66,-600 1257.66,-636"/>
<text text-anchor="middle" x="1223" y="-614.7" font-family="Times,serif" font-size="11.00">EntityEmail</text>
</g>
<!-- \\OntologyWrapper\\traits\\DataType -->
<g id="node16" class="node"><title>\\OntologyWrapper\\traits\\DataType</title>
<polygon fill="none" stroke="black" points="1252.1,-582 1193.9,-582 1193.9,-546 1252.1,-546 1252.1,-582"/>
<text text-anchor="middle" x="1223" y="-560.7" font-family="Times,serif" font-size="11.00">DataType</text>
</g>
<!-- \\OntologyWrapper\\traits\\AccessorProperty -->
<g id="node17" class="node"><title>\\OntologyWrapper\\traits\\AccessorProperty</title>
<polygon fill="none" stroke="black" points="1270.2,-528 1175.8,-528 1175.8,-492 1270.2,-492 1270.2,-528"/>
<text text-anchor="middle" x="1223" y="-506.7" font-family="Times,serif" font-size="11.00">AccessorProperty</text>
</g>
<!-- \\OntologyWrapper\\traits\\EntityLink -->
<g id="node18" class="node"><title>\\OntologyWrapper\\traits\\EntityLink</title>
<polygon fill="none" stroke="black" points="1254.66,-474 1191.34,-474 1191.34,-438 1254.66,-438 1254.66,-474"/>
<text text-anchor="middle" x="1223" y="-452.7" font-family="Times,serif" font-size="11.00">EntityLink</text>
</g>
<!-- \\OntologyWrapper\\traits\\Status -->
<g id="node19" class="node"><title>\\OntologyWrapper\\traits\\Status</title>
<polygon fill="none" stroke="black" points="1250,-420 1196,-420 1196,-384 1250,-384 1250,-420"/>
<text text-anchor="middle" x="1223" y="-398.7" font-family="Times,serif" font-size="11.00">Status</text>
</g>
<!-- \\OntologyWrapper\\traits\\NodeType -->
<g id="node20" class="node"><title>\\OntologyWrapper\\traits\\NodeType</title>
<polygon fill="none" stroke="black" points="1253.66,-366 1192.34,-366 1192.34,-330 1253.66,-330 1253.66,-366"/>
<text text-anchor="middle" x="1223" y="-344.7" font-family="Times,serif" font-size="11.00">NodeType</text>
</g>
<!-- \\OntologyWrapper\\traits\\DataKind -->
<g id="node21" class="node"><title>\\OntologyWrapper\\traits\\DataKind</title>
<polygon fill="none" stroke="black" points="1252.27,-312 1193.73,-312 1193.73,-276 1252.27,-276 1252.27,-312"/>
<text text-anchor="middle" x="1223" y="-290.7" font-family="Times,serif" font-size="11.00">DataKind</text>
</g>
<!-- \\OntologyWrapper\\traits\\EntityAcronym -->
<g id="node22" class="node"><title>\\OntologyWrapper\\traits\\EntityAcronym</title>
<polygon fill="none" stroke="black" points="1265.43,-258 1180.57,-258 1180.57,-222 1265.43,-222 1265.43,-258"/>
<text text-anchor="middle" x="1223" y="-236.7" font-family="Times,serif" font-size="11.00">EntityAcronym</text>
</g>
<!-- \\OntologyWrapper\\IteratorObject -->
<g id="node23" class="node"><title>\\OntologyWrapper\\IteratorObject</title>
<polygon fill="none" stroke="black" points="1091.69,-150 1014.31,-150 1014.31,-114 1091.69,-114 1091.69,-150"/>
<text text-anchor="start" x="1030.4" y="-134.2" font-family="Times,serif" font-size="11.00">«abstract»</text>
<text text-anchor="start" x="1022.16" y="-123.2" font-family="Times,serif" font-size="11.00">IteratorObject</text>
</g>
<!-- \\Iterator -->
<g id="node47" class="node"><title>\\Iterator</title>
<ellipse fill="none" stroke="black" cx="893" cy="-72" rx="38.6695" ry="18"/>
<text text-anchor="middle" x="893" y="-67.8" font-family="Times,serif" font-size="14.00" fill="gray">\Iterator</text>
</g>
<!-- \\OntologyWrapper\\IteratorObject&#45;&gt;\\Iterator -->
<g id="edge1" class="edge"><title>\\OntologyWrapper\\IteratorObject&#45;&gt;\\Iterator</title>
<path fill="none" stroke="black" stroke-dasharray="1,5" d="M1014.16,-117.629C989.573,-108.294 957.616,-96.1578 932.838,-86.7488"/>
<polygon fill="none" stroke="black" points="933.976,-83.4371 923.385,-83.1589 931.491,-89.9811 933.976,-83.4371"/>
</g>
<!-- \\Countable -->
<g id="node48" class="node"><title>\\Countable</title>
<ellipse fill="none" stroke="black" cx="893" cy="-18" rx="48.8273" ry="18"/>
<text text-anchor="middle" x="893" y="-13.8" font-family="Times,serif" font-size="14.00" fill="gray">\Countable</text>
</g>
<!-- \\OntologyWrapper\\IteratorObject&#45;&gt;\\Countable -->
<g id="edge2" class="edge"><title>\\OntologyWrapper\\IteratorObject&#45;&gt;\\Countable</title>
<path fill="none" stroke="black" stroke-dasharray="1,5" d="M1031.25,-113.97C1009.67,-95.6163 974.556,-66.8352 942,-45 938.427,-42.6034 934.626,-40.2151 930.79,-37.9063"/>
<polygon fill="none" stroke="black" points="932.261,-34.7125 921.86,-32.6965 928.733,-40.7588 932.261,-34.7125"/>
</g>
<!-- \\OntologyWrapper\\DatabaseObject -->
<g id="node24" class="node"><title>\\OntologyWrapper\\DatabaseObject</title>
<polygon fill="none" stroke="black" points="768.632,-150 683.368,-150 683.368,-114 768.632,-114 768.632,-150"/>
<text text-anchor="start" x="703.398" y="-134.2" font-family="Times,serif" font-size="11.00">«abstract»</text>
<text text-anchor="start" x="691.185" y="-123.2" font-family="Times,serif" font-size="11.00">DatabaseObject</text>
</g>
<!-- \\OntologyWrapper\\ConnectionObject -->
<g id="node33" class="node"><title>\\OntologyWrapper\\ConnectionObject</title>
<polygon fill="none" stroke="black" points="608.035,-231 511.965,-231 511.965,-195 608.035,-195 608.035,-231"/>
<text text-anchor="start" x="537.398" y="-215.2" font-family="Times,serif" font-size="11.00">«abstract»</text>
<text text-anchor="start" x="519.983" y="-204.2" font-family="Times,serif" font-size="11.00">ConnectionObject</text>
</g>
<!-- \\OntologyWrapper\\DatabaseObject&#45;&gt;\\OntologyWrapper\\ConnectionObject -->
<g id="edge3" class="edge"><title>\\OntologyWrapper\\DatabaseObject&#45;&gt;\\OntologyWrapper\\ConnectionObject</title>
<path fill="none" stroke="black" d="M688.195,-150.178C664.14,-162.059 632.538,-177.667 606.853,-190.353"/>
<polygon fill="none" stroke="black" points="605.098,-187.316 597.682,-194.883 608.198,-193.592 605.098,-187.316"/>
</g>
<!-- \\OntologyWrapper\\MongoServer -->
<g id="node25" class="node"><title>\\OntologyWrapper\\MongoServer</title>
<polygon fill="none" stroke="black" points="931.491,-204 854.509,-204 854.509,-168 931.491,-168 931.491,-204"/>
<text text-anchor="middle" x="893" y="-182.7" font-family="Times,serif" font-size="11.00">MongoServer</text>
</g>
<!-- \\OntologyWrapper\\ServerObject -->
<g id="node41" class="node"><title>\\OntologyWrapper\\ServerObject</title>
<polygon fill="none" stroke="black" points="763.029,-204 688.971,-204 688.971,-168 763.029,-168 763.029,-204"/>
<text text-anchor="start" x="703.398" y="-188.2" font-family="Times,serif" font-size="11.00">«abstract»</text>
<text text-anchor="start" x="696.985" y="-177.2" font-family="Times,serif" font-size="11.00">ServerObject</text>
</g>
<!-- \\OntologyWrapper\\MongoServer&#45;&gt;\\OntologyWrapper\\ServerObject -->
<g id="edge4" class="edge"><title>\\OntologyWrapper\\MongoServer&#45;&gt;\\OntologyWrapper\\ServerObject</title>
<path fill="none" stroke="black" d="M854.559,-186C830.491,-186 799.044,-186 773.395,-186"/>
<polygon fill="none" stroke="black" points="773.159,-182.5 763.159,-186 773.159,-189.5 773.159,-182.5"/>
</g>
<!-- \\OntologyWrapper\\EntityObject -->
<g id="node26" class="node"><title>\\OntologyWrapper\\EntityObject</title>
<polygon fill="none" stroke="black" points="929.209,-366 856.791,-366 856.791,-330 929.209,-330 929.209,-366"/>
<text text-anchor="start" x="870.398" y="-350.2" font-family="Times,serif" font-size="11.00">«abstract»</text>
<text text-anchor="start" x="864.896" y="-339.2" font-family="Times,serif" font-size="11.00">EntityObject</text>
</g>
<!-- \\OntologyWrapper\\UnitObject -->
<g id="node40" class="node"><title>\\OntologyWrapper\\UnitObject</title>
<polygon fill="none" stroke="black" points="758.377,-420 693.623,-420 693.623,-384 758.377,-384 758.377,-420"/>
<text text-anchor="start" x="703.398" y="-404.2" font-family="Times,serif" font-size="11.00">«abstract»</text>
<text text-anchor="start" x="701.562" y="-393.2" font-family="Times,serif" font-size="11.00">UnitObject</text>
</g>
<!-- \\OntologyWrapper\\EntityObject&#45;&gt;\\OntologyWrapper\\UnitObject -->
<g id="edge5" class="edge"><title>\\OntologyWrapper\\EntityObject&#45;&gt;\\OntologyWrapper\\UnitObject</title>
<path fill="none" stroke="black" d="M856.603,-359.584C830.628,-368.085 795.284,-379.652 768.066,-388.56"/>
<polygon fill="none" stroke="black" points="766.854,-385.274 758.439,-391.711 769.031,-391.927 766.854,-385.274"/>
</g>
<!-- \\OntologyWrapper\\Wrapper -->
<g id="node27" class="node"><title>\\OntologyWrapper\\Wrapper</title>
<polygon fill="none" stroke="black" points="753.038,-582 698.962,-582 698.962,-546 753.038,-546 753.038,-582"/>
<text text-anchor="middle" x="726" y="-560.7" font-family="Times,serif" font-size="11.00">Wrapper</text>
</g>
<!-- \\OntologyWrapper\\Dictionary -->
<g id="node29" class="node"><title>\\OntologyWrapper\\Dictionary</title>
<polygon fill="none" stroke="black" points="591.54,-555 528.46,-555 528.46,-519 591.54,-519 591.54,-555"/>
<text text-anchor="middle" x="560" y="-533.7" font-family="Times,serif" font-size="11.00">Dictionary</text>
</g>
<!-- \\OntologyWrapper\\Wrapper&#45;&gt;\\OntologyWrapper\\Dictionary -->
<g id="edge6" class="edge"><title>\\OntologyWrapper\\Wrapper&#45;&gt;\\OntologyWrapper\\Dictionary</title>
<path fill="none" stroke="black" d="M698.651,-559.662C672.57,-555.368 632.269,-548.733 602.002,-543.75"/>
<polygon fill="none" stroke="black" points="602.19,-540.234 591.754,-542.063 601.052,-547.141 602.19,-540.234"/>
</g>
<!-- \\OntologyWrapper\\Tag -->
<g id="node28" class="node"><title>\\OntologyWrapper\\Tag</title>
<polygon fill="none" stroke="black" points="753,-312 699,-312 699,-276 753,-276 753,-312"/>
<text text-anchor="middle" x="726" y="-290.7" font-family="Times,serif" font-size="11.00">Tag</text>
</g>
<!-- \\OntologyWrapper\\PersistentObject -->
<g id="node35" class="node"><title>\\OntologyWrapper\\PersistentObject</title>
<polygon fill="none" stroke="black" points="604.096,-420 515.904,-420 515.904,-384 604.096,-384 604.096,-420"/>
<text text-anchor="start" x="537.398" y="-404.2" font-family="Times,serif" font-size="11.00">«abstract»</text>
<text text-anchor="start" x="523.952" y="-393.2" font-family="Times,serif" font-size="11.00">PersistentObject</text>
</g>
<!-- \\OntologyWrapper\\Tag&#45;&gt;\\OntologyWrapper\\PersistentObject -->
<g id="edge7" class="edge"><title>\\OntologyWrapper\\Tag&#45;&gt;\\OntologyWrapper\\PersistentObject</title>
<path fill="none" stroke="black" d="M698.67,-309.454C692.503,-313.169 685.987,-317.171 680,-321 650.936,-339.589 618.614,-361.684 594.999,-378.098"/>
<polygon fill="none" stroke="black" points="592.918,-375.282 586.715,-383.871 596.92,-381.025 592.918,-375.282"/>
</g>
<!-- \\OntologyWrapper\\DictionaryObject -->
<g id="node38" class="node"><title>\\OntologyWrapper\\DictionaryObject</title>
<polygon fill="none" stroke="black" points="440.362,-501 347.638,-501 347.638,-465 440.362,-465 440.362,-501"/>
<text text-anchor="start" x="371.398" y="-485.2" font-family="Times,serif" font-size="11.00">«abstract»</text>
<text text-anchor="start" x="355.82" y="-474.2" font-family="Times,serif" font-size="11.00">DictionaryObject</text>
</g>
<!-- \\OntologyWrapper\\Dictionary&#45;&gt;\\OntologyWrapper\\DictionaryObject -->
<g id="edge8" class="edge"><title>\\OntologyWrapper\\Dictionary&#45;&gt;\\OntologyWrapper\\DictionaryObject</title>
<path fill="none" stroke="black" d="M528.153,-526.843C506.185,-519.61 476.063,-509.691 450.024,-501.118"/>
<polygon fill="none" stroke="black" points="450.863,-497.709 440.27,-497.906 448.674,-504.358 450.863,-497.709"/>
</g>
<!-- \\OntologyWrapper\\Term -->
<g id="node30" class="node"><title>\\OntologyWrapper\\Term</title>
<polygon fill="none" stroke="black" points="753,-528 699,-528 699,-492 753,-492 753,-528"/>
<text text-anchor="middle" x="726" y="-506.7" font-family="Times,serif" font-size="11.00">Term</text>
</g>
<!-- \\OntologyWrapper\\Term&#45;&gt;\\OntologyWrapper\\PersistentObject -->
<g id="edge9" class="edge"><title>\\OntologyWrapper\\Term&#45;&gt;\\OntologyWrapper\\PersistentObject</title>
<path fill="none" stroke="black" d="M698.67,-494.546C692.503,-490.831 685.987,-486.829 680,-483 650.936,-464.411 618.614,-442.316 594.999,-425.902"/>
<polygon fill="none" stroke="black" points="596.92,-422.975 586.715,-420.129 592.918,-428.718 596.92,-422.975"/>
</g>
<!-- \\OntologyWrapper\\ContainerObject -->
<g id="node31" class="node"><title>\\OntologyWrapper\\ContainerObject</title>
<polygon fill="none" stroke="black" points="275.198,-460 186.802,-460 186.802,-424 275.198,-424 275.198,-460"/>
<text text-anchor="middle" x="231" y="-438.7" font-family="Times,serif" font-size="11.00">ContainerObject</text>
</g>
<!-- \\ArrayObject -->
<g id="node49" class="node"><title>\\ArrayObject</title>
<ellipse fill="none" stroke="black" cx="57" cy="-442" rx="56.5201" ry="18"/>
<text text-anchor="middle" x="57" y="-437.8" font-family="Times,serif" font-size="14.00" fill="gray">\ArrayObject</text>
</g>
<!-- \\OntologyWrapper\\ContainerObject&#45;&gt;\\ArrayObject -->
<g id="edge10" class="edge"><title>\\OntologyWrapper\\ContainerObject&#45;&gt;\\ArrayObject</title>
<path fill="none" stroke="black" d="M186.597,-442C167.611,-442 144.919,-442 123.919,-442"/>
<polygon fill="none" stroke="black" points="123.769,-438.5 113.769,-442 123.769,-445.5 123.769,-438.5"/>
</g>
<!-- \\OntologyWrapper\\MongoDatabase -->
<g id="node32" class="node"><title>\\OntologyWrapper\\MongoDatabase</title>
<polygon fill="none" stroke="black" points="937.091,-150 848.909,-150 848.909,-114 937.091,-114 937.091,-150"/>
<text text-anchor="middle" x="893" y="-128.7" font-family="Times,serif" font-size="11.00">MongoDatabase</text>
</g>
<!-- \\OntologyWrapper\\MongoDatabase&#45;&gt;\\OntologyWrapper\\DatabaseObject -->
<g id="edge11" class="edge"><title>\\OntologyWrapper\\MongoDatabase&#45;&gt;\\OntologyWrapper\\DatabaseObject</title>
<path fill="none" stroke="black" d="M848.648,-132C827.203,-132 801.163,-132 778.687,-132"/>
<polygon fill="none" stroke="black" points="778.64,-128.5 768.64,-132 778.64,-135.5 778.64,-128.5"/>
</g>
<!-- \\OntologyWrapper\\OntologyObject -->
<g id="node46" class="node"><title>\\OntologyWrapper\\OntologyObject</title>
<polygon fill="none" stroke="black" points="437.377,-420 350.623,-420 350.623,-384 437.377,-384 437.377,-420"/>
<text text-anchor="start" x="371.398" y="-404.2" font-family="Times,serif" font-size="11.00">«abstract»</text>
<text text-anchor="start" x="358.562" y="-393.2" font-family="Times,serif" font-size="11.00">OntologyObject</text>
</g>
<!-- \\OntologyWrapper\\ConnectionObject&#45;&gt;\\OntologyWrapper\\OntologyObject -->
<g id="edge12" class="edge"><title>\\OntologyWrapper\\ConnectionObject&#45;&gt;\\OntologyWrapper\\OntologyObject</title>
<path fill="none" stroke="black" d="M543.275,-231.122C514.01,-264.849 451.104,-337.343 417.403,-376.182"/>
<polygon fill="none" stroke="black" points="414.588,-374.086 410.677,-383.933 419.875,-378.674 414.588,-374.086"/>
</g>
<!-- \\OntologyWrapper\\Individual -->
<g id="node34" class="node"><title>\\OntologyWrapper\\Individual</title>
<polygon fill="none" stroke="black" points="1083.71,-312 1022.29,-312 1022.29,-276 1083.71,-276 1083.71,-312"/>
<text text-anchor="middle" x="1053" y="-290.7" font-family="Times,serif" font-size="11.00">Individual</text>
</g>
<!-- \\OntologyWrapper\\Individual&#45;&gt;\\OntologyWrapper\\EntityObject -->
<g id="edge13" class="edge"><title>\\OntologyWrapper\\Individual&#45;&gt;\\OntologyWrapper\\EntityObject</title>
<path fill="none" stroke="black" d="M1022.28,-304.157C998.795,-312.184 965.633,-323.518 938.91,-332.651"/>
<polygon fill="none" stroke="black" points="937.717,-329.36 929.386,-335.906 939.981,-335.984 937.717,-329.36"/>
</g>
<!-- \\OntologyWrapper\\PersistentObject&#45;&gt;\\OntologyWrapper\\OntologyObject -->
<g id="edge14" class="edge"><title>\\OntologyWrapper\\PersistentObject&#45;&gt;\\OntologyWrapper\\OntologyObject</title>
<path fill="none" stroke="black" d="M515.911,-402C495.019,-402 469.741,-402 447.71,-402"/>
<polygon fill="none" stroke="black" points="447.517,-398.5 437.517,-402 447.517,-405.5 447.517,-398.5"/>
</g>
<!-- \\OntologyWrapper\\MongoIterator -->
<g id="node36" class="node"><title>\\OntologyWrapper\\MongoIterator</title>
<polygon fill="none" stroke="black" points="1263.15,-150 1182.85,-150 1182.85,-114 1263.15,-114 1263.15,-150"/>
<text text-anchor="middle" x="1223" y="-128.7" font-family="Times,serif" font-size="11.00">MongoIterator</text>
</g>
<!-- \\OntologyWrapper\\MongoIterator&#45;&gt;\\OntologyWrapper\\IteratorObject -->
<g id="edge15" class="edge"><title>\\OntologyWrapper\\MongoIterator&#45;&gt;\\OntologyWrapper\\IteratorObject</title>
<path fill="none" stroke="black" d="M1182.61,-132C1158.49,-132 1127.45,-132 1101.91,-132"/>
<polygon fill="none" stroke="black" points="1101.7,-128.5 1091.7,-132 1101.7,-135.5 1101.7,-128.5"/>
</g>
<!-- \\OntologyWrapper\\Institution -->
<g id="node37" class="node"><title>\\OntologyWrapper\\Institution</title>
<polygon fill="none" stroke="black" points="1083.73,-366 1022.27,-366 1022.27,-330 1083.73,-330 1083.73,-366"/>
<text text-anchor="middle" x="1053" y="-344.7" font-family="Times,serif" font-size="11.00">Institution</text>
</g>
<!-- \\OntologyWrapper\\Institution&#45;&gt;\\OntologyWrapper\\EntityObject -->
<g id="edge16" class="edge"><title>\\OntologyWrapper\\Institution&#45;&gt;\\OntologyWrapper\\EntityObject</title>
<path fill="none" stroke="black" d="M1022.28,-348C999.001,-348 966.214,-348 939.615,-348"/>
<polygon fill="none" stroke="black" points="939.386,-344.5 929.386,-348 939.386,-351.5 939.386,-344.5"/>
</g>
<!-- \\OntologyWrapper\\DictionaryObject&#45;&gt;\\OntologyWrapper\\ContainerObject -->
<g id="edge17" class="edge"><title>\\OntologyWrapper\\DictionaryObject&#45;&gt;\\OntologyWrapper\\ContainerObject</title>
<path fill="none" stroke="black" d="M347.724,-471.47C328.222,-466.504 305.283,-460.662 284.995,-455.495"/>
<polygon fill="none" stroke="black" points="285.829,-452.096 275.274,-453.02 284.101,-458.88 285.829,-452.096"/>
</g>
<!-- \\OntologyWrapper\\Node -->
<g id="node39" class="node"><title>\\OntologyWrapper\\Node</title>
<polygon fill="none" stroke="black" points="753,-474 699,-474 699,-438 753,-438 753,-474"/>
<text text-anchor="middle" x="726" y="-452.7" font-family="Times,serif" font-size="11.00">Node</text>
</g>
<!-- \\OntologyWrapper\\Node&#45;&gt;\\OntologyWrapper\\PersistentObject -->
<g id="edge18" class="edge"><title>\\OntologyWrapper\\Node&#45;&gt;\\OntologyWrapper\\PersistentObject</title>
<path fill="none" stroke="black" d="M698.651,-447.324C675.891,-439.83 642.301,-428.77 614.001,-419.452"/>
<polygon fill="none" stroke="black" points="614.831,-416.04 604.238,-416.237 612.642,-422.689 614.831,-416.04"/>
</g>
<!-- \\OntologyWrapper\\UnitObject&#45;&gt;\\OntologyWrapper\\PersistentObject -->
<g id="edge19" class="edge"><title>\\OntologyWrapper\\UnitObject&#45;&gt;\\OntologyWrapper\\PersistentObject</title>
<path fill="none" stroke="black" d="M693.379,-402C671.029,-402 640.525,-402 614.432,-402"/>
<polygon fill="none" stroke="black" points="614.304,-398.5 604.304,-402 614.304,-405.5 614.304,-398.5"/>
</g>
<!-- \\OntologyWrapper\\ServerObject&#45;&gt;\\OntologyWrapper\\ConnectionObject -->
<g id="edge20" class="edge"><title>\\OntologyWrapper\\ServerObject&#45;&gt;\\OntologyWrapper\\ConnectionObject</title>
<path fill="none" stroke="black" d="M688.603,-191.992C667.97,-195.389 641.689,-199.716 618.347,-203.559"/>
<polygon fill="none" stroke="black" points="617.504,-200.15 608.205,-205.228 618.641,-207.057 617.504,-200.15"/>
</g>
<!-- \\OntologyWrapper\\CollectionObject -->
<g id="node42" class="node"><title>\\OntologyWrapper\\CollectionObject</title>
<polygon fill="none" stroke="black" points="771.647,-258 680.353,-258 680.353,-222 771.647,-222 771.647,-258"/>
<text text-anchor="start" x="703.398" y="-242.2" font-family="Times,serif" font-size="11.00">«abstract»</text>
<text text-anchor="start" x="688.427" y="-231.2" font-family="Times,serif" font-size="11.00">CollectionObject</text>
</g>
<!-- \\OntologyWrapper\\CollectionObject&#45;&gt;\\OntologyWrapper\\ConnectionObject -->
<g id="edge21" class="edge"><title>\\OntologyWrapper\\CollectionObject&#45;&gt;\\OntologyWrapper\\ConnectionObject</title>
<path fill="none" stroke="black" d="M680.186,-232.622C661.039,-229.47 638.46,-225.753 618.133,-222.406"/>
<polygon fill="none" stroke="black" points="618.486,-218.917 608.051,-220.746 617.349,-225.824 618.486,-218.917"/>
</g>
<!-- \\OntologyWrapper\\FAOInstitute -->
<g id="node43" class="node"><title>\\OntologyWrapper\\FAOInstitute</title>
<polygon fill="none" stroke="black" points="1259.75,-204 1186.25,-204 1186.25,-168 1259.75,-168 1259.75,-204"/>
<text text-anchor="middle" x="1223" y="-182.7" font-family="Times,serif" font-size="11.00">FAOInstitute</text>
</g>
<!-- \\OntologyWrapper\\FAOInstitute&#45;&gt;\\OntologyWrapper\\Institution -->
<g id="edge22" class="edge"><title>\\OntologyWrapper\\FAOInstitute&#45;&gt;\\OntologyWrapper\\Institution</title>
<path fill="none" stroke="black" d="M1186.37,-193.933C1175.77,-197.55 1164.69,-202.71 1156,-210 1112.38,-246.611 1130.32,-278.871 1092,-321 1091.38,-321.681 1090.74,-322.355 1090.08,-323.021"/>
<polygon fill="none" stroke="black" points="1087.62,-320.526 1082.54,-329.82 1092.31,-325.726 1087.62,-320.526"/>
</g>
<!-- \\OntologyWrapper\\MongoCollection -->
<g id="node44" class="node"><title>\\OntologyWrapper\\MongoCollection</title>
<polygon fill="none" stroke="black" points="939.608,-258 846.392,-258 846.392,-222 939.608,-222 939.608,-258"/>
<text text-anchor="middle" x="893" y="-236.7" font-family="Times,serif" font-size="11.00">MongoCollection</text>
</g>
<!-- \\OntologyWrapper\\MongoCollection&#45;&gt;\\OntologyWrapper\\CollectionObject -->
<g id="edge23" class="edge"><title>\\OntologyWrapper\\MongoCollection&#45;&gt;\\OntologyWrapper\\CollectionObject</title>
<path fill="none" stroke="black" d="M846.038,-240C826.043,-240 802.46,-240 781.581,-240"/>
<polygon fill="none" stroke="black" points="781.577,-236.5 771.577,-240 781.577,-243.5 781.577,-236.5"/>
</g>
<!-- \\OntologyWrapper\\Edge -->
<g id="node45" class="node"><title>\\OntologyWrapper\\Edge</title>
<polygon fill="none" stroke="black" points="753,-366 699,-366 699,-330 753,-330 753,-366"/>
<text text-anchor="middle" x="726" y="-344.7" font-family="Times,serif" font-size="11.00">Edge</text>
</g>
<!-- \\OntologyWrapper\\Edge&#45;&gt;\\OntologyWrapper\\PersistentObject -->
<g id="edge24" class="edge"><title>\\OntologyWrapper\\Edge&#45;&gt;\\OntologyWrapper\\PersistentObject</title>
<path fill="none" stroke="black" d="M698.651,-356.676C675.891,-364.17 642.301,-375.23 614.001,-384.548"/>
<polygon fill="none" stroke="black" points="612.642,-381.311 604.238,-387.763 614.831,-387.96 612.642,-381.311"/>
</g>
<!-- \\OntologyWrapper\\OntologyObject&#45;&gt;\\OntologyWrapper\\ContainerObject -->
<g id="edge25" class="edge"><title>\\OntologyWrapper\\OntologyObject&#45;&gt;\\OntologyWrapper\\ContainerObject</title>
<path fill="none" stroke="black" d="M350.278,-412.614C330.253,-417.589 306.194,-423.567 285.018,-428.828"/>
<polygon fill="none" stroke="black" points="284.063,-425.459 275.202,-431.267 285.751,-432.252 284.063,-425.459"/>
</g>
</g>
</svg>
