<?xml version="1.0" encoding="UTF-8" standalone="no"?>
<!DOCTYPE svg PUBLIC "-//W3C//DTD SVG 1.1//EN"
 "http://www.w3.org/Graphics/SVG/1.1/DTD/svg11.dtd">
<!-- Generated by graphviz version 2.36.0 (20140111.2315)
 -->
<!-- Title: G Pages: 1 -->
<svg width="1004pt" height="1489pt"
 viewBox="0.00 0.00 1004.00 1489.00" xmlns="http://www.w3.org/2000/svg" xmlns:xlink="http://www.w3.org/1999/xlink">
<g id="graph0" class="graph" transform="scale(1 1) rotate(0) translate(4 1485)">
<title>G</title>
<polygon fill="white" stroke="none" points="-4,4 -4,-1485 1000,-1485 1000,4 -4,4"/>
<g id="clust1" class="cluster"><title>cluster_Global</title>
<path fill="none" stroke="gray" d="M182,-98C182,-98 976,-98 976,-98 982,-98 988,-104 988,-110 988,-110 988,-1461 988,-1461 988,-1467 982,-1473 976,-1473 976,-1473 182,-1473 182,-1473 176,-1473 170,-1467 170,-1461 170,-1461 170,-110 170,-110 170,-104 176,-98 182,-98"/>
<text text-anchor="middle" x="579" y="-1460.2" font-family="Times,serif" font-size="11.00" fill="gray">Global</text>
</g>
<g id="clust2" class="cluster"><title>cluster_\OntologyWrapper</title>
<path fill="none" stroke="gray" d="M190,-106C190,-106 968,-106 968,-106 974,-106 980,-112 980,-118 980,-118 980,-1434 980,-1434 980,-1440 974,-1446 968,-1446 968,-1446 190,-1446 190,-1446 184,-1446 178,-1440 178,-1434 178,-1434 178,-118 178,-118 178,-112 184,-106 190,-106"/>
<text text-anchor="middle" x="579" y="-1433.2" font-family="Times,serif" font-size="11.00" fill="gray">OntologyWrapper</text>
</g>
<g id="clust3" class="cluster"><title>cluster_\OntologyWrapper\traits</title>
<path fill="none" stroke="gray" d="M850,-376C850,-376 960,-376 960,-376 966,-376 972,-382 972,-388 972,-388 972,-1407 972,-1407 972,-1413 966,-1419 960,-1419 960,-1419 850,-1419 850,-1419 844,-1419 838,-1413 838,-1407 838,-1407 838,-388 838,-388 838,-382 844,-376 850,-376"/>
<text text-anchor="middle" x="905" y="-1406.2" font-family="Times,serif" font-size="11.00" fill="gray">traits</text>
</g>
<!-- \\OntologyWrapper\\traits\\Affiliation -->
<g id="node1" class="node"><title>\\OntologyWrapper\\traits\\Affiliation</title>
<polygon fill="none" stroke="black" points="935.832,-1392 874.168,-1392 874.168,-1356 935.832,-1356 935.832,-1392"/>
<text text-anchor="middle" x="905" y="-1370.7" font-family="Times,serif" font-size="11.00">Affiliation</text>
</g>
<!-- \\OntologyWrapper\\traits\\Label -->
<g id="node2" class="node"><title>\\OntologyWrapper\\traits\\Label</title>
<polygon fill="none" stroke="black" points="932,-1338 878,-1338 878,-1302 932,-1302 932,-1338"/>
<text text-anchor="middle" x="905" y="-1316.7" font-family="Times,serif" font-size="11.00">Label</text>
</g>
<!-- \\OntologyWrapper\\traits\\Email -->
<g id="node3" class="node"><title>\\OntologyWrapper\\traits\\Email</title>
<polygon fill="none" stroke="black" points="932,-1284 878,-1284 878,-1248 932,-1248 932,-1284"/>
<text text-anchor="middle" x="905" y="-1262.7" font-family="Times,serif" font-size="11.00">Email</text>
</g>
<!-- \\OntologyWrapper\\traits\\Fax -->
<g id="node4" class="node"><title>\\OntologyWrapper\\traits\\Fax</title>
<polygon fill="none" stroke="black" points="932,-1230 878,-1230 878,-1194 932,-1194 932,-1230"/>
<text text-anchor="middle" x="905" y="-1208.7" font-family="Times,serif" font-size="11.00">Fax</text>
</g>
<!-- \\OntologyWrapper\\traits\\MemcachedDictionary -->
<g id="node5" class="node"><title>\\OntologyWrapper\\traits\\MemcachedDictionary</title>
<polygon fill="none" stroke="black" points="963.289,-1176 846.711,-1176 846.711,-1140 963.289,-1140 963.289,-1176"/>
<text text-anchor="middle" x="905" y="-1154.7" font-family="Times,serif" font-size="11.00">MemcachedDictionary</text>
</g>
<!-- \\OntologyWrapper\\traits\\Terms -->
<g id="node6" class="node"><title>\\OntologyWrapper\\traits\\Terms</title>
<polygon fill="none" stroke="black" points="932,-1122 878,-1122 878,-1086 932,-1086 932,-1122"/>
<text text-anchor="middle" x="905" y="-1100.7" font-family="Times,serif" font-size="11.00">Terms</text>
</g>
<!-- \\OntologyWrapper\\traits\\Definition -->
<g id="node7" class="node"><title>\\OntologyWrapper\\traits\\Definition</title>
<polygon fill="none" stroke="black" points="935.114,-1068 874.886,-1068 874.886,-1032 935.114,-1032 935.114,-1068"/>
<text text-anchor="middle" x="905" y="-1046.7" font-family="Times,serif" font-size="11.00">Definition</text>
</g>
<!-- \\OntologyWrapper\\traits\\Description -->
<g id="node8" class="node"><title>\\OntologyWrapper\\traits\\Description</title>
<polygon fill="none" stroke="black" points="938.822,-1014 871.178,-1014 871.178,-978 938.822,-978 938.822,-1014"/>
<text text-anchor="middle" x="905" y="-992.7" font-family="Times,serif" font-size="11.00">Description</text>
</g>
<!-- \\OntologyWrapper\\traits\\Category -->
<g id="node9" class="node"><title>\\OntologyWrapper\\traits\\Category</title>
<polygon fill="none" stroke="black" points="933.322,-960 876.678,-960 876.678,-924 933.322,-924 933.322,-960"/>
<text text-anchor="middle" x="905" y="-938.7" font-family="Times,serif" font-size="11.00">Category</text>
</g>
<!-- \\OntologyWrapper\\traits\\EntityKind -->
<g id="node10" class="node"><title>\\OntologyWrapper\\traits\\EntityKind</title>
<polygon fill="none" stroke="black" points="937.388,-906 872.612,-906 872.612,-870 937.388,-870 937.388,-906"/>
<text text-anchor="middle" x="905" y="-884.7" font-family="Times,serif" font-size="11.00">EntityKind</text>
</g>
<!-- \\OntologyWrapper\\traits\\Mail -->
<g id="node11" class="node"><title>\\OntologyWrapper\\traits\\Mail</title>
<polygon fill="none" stroke="black" points="932,-852 878,-852 878,-816 932,-816 932,-852"/>
<text text-anchor="middle" x="905" y="-830.7" font-family="Times,serif" font-size="11.00">Mail</text>
</g>
<!-- \\OntologyWrapper\\traits\\EntityType -->
<g id="node12" class="node"><title>\\OntologyWrapper\\traits\\EntityType</title>
<polygon fill="none" stroke="black" points="937.222,-798 872.778,-798 872.778,-762 937.222,-762 937.222,-798"/>
<text text-anchor="middle" x="905" y="-776.7" font-family="Times,serif" font-size="11.00">EntityType</text>
</g>
<!-- \\OntologyWrapper\\traits\\Phone -->
<g id="node13" class="node"><title>\\OntologyWrapper\\traits\\Phone</title>
<polygon fill="none" stroke="black" points="932,-744 878,-744 878,-708 932,-708 932,-744"/>
<text text-anchor="middle" x="905" y="-722.7" font-family="Times,serif" font-size="11.00">Phone</text>
</g>
<!-- \\OntologyWrapper\\traits\\DataType -->
<g id="node14" class="node"><title>\\OntologyWrapper\\traits\\DataType</title>
<polygon fill="none" stroke="black" points="934.1,-690 875.9,-690 875.9,-654 934.1,-654 934.1,-690"/>
<text text-anchor="middle" x="905" y="-668.7" font-family="Times,serif" font-size="11.00">DataType</text>
</g>
<!-- \\OntologyWrapper\\traits\\Status -->
<g id="node15" class="node"><title>\\OntologyWrapper\\traits\\Status</title>
<polygon fill="none" stroke="black" points="932,-636 878,-636 878,-600 932,-600 932,-636"/>
<text text-anchor="middle" x="905" y="-614.7" font-family="Times,serif" font-size="11.00">Status</text>
</g>
<!-- \\OntologyWrapper\\traits\\NodeType -->
<g id="node16" class="node"><title>\\OntologyWrapper\\traits\\NodeType</title>
<polygon fill="none" stroke="black" points="935.661,-582 874.339,-582 874.339,-546 935.661,-546 935.661,-582"/>
<text text-anchor="middle" x="905" y="-560.7" font-family="Times,serif" font-size="11.00">NodeType</text>
</g>
<!-- \\OntologyWrapper\\traits\\DataKind -->
<g id="node17" class="node"><title>\\OntologyWrapper\\traits\\DataKind</title>
<polygon fill="none" stroke="black" points="934.265,-528 875.735,-528 875.735,-492 934.265,-492 934.265,-528"/>
<text text-anchor="middle" x="905" y="-506.7" font-family="Times,serif" font-size="11.00">DataKind</text>
</g>
<!-- \\OntologyWrapper\\traits\\AccessorOffset -->
<g id="node18" class="node"><title>\\OntologyWrapper\\traits\\AccessorOffset</title>
<polygon fill="none" stroke="black" points="946.612,-474 863.388,-474 863.388,-438 946.612,-438 946.612,-474"/>
<text text-anchor="middle" x="905" y="-452.7" font-family="Times,serif" font-size="11.00">AccessorOffset</text>
</g>
<!-- \\OntologyWrapper\\traits\\AccessorProperty -->
<g id="node19" class="node"><title>\\OntologyWrapper\\traits\\AccessorProperty</title>
<polygon fill="none" stroke="black" points="952.198,-420 857.802,-420 857.802,-384 952.198,-384 952.198,-420"/>
<text text-anchor="middle" x="905" y="-398.7" font-family="Times,serif" font-size="11.00">AccessorProperty</text>
</g>
<!-- \\OntologyWrapper\\IteratorObject -->
<g id="node20" class="node"><title>\\OntologyWrapper\\IteratorObject</title>
<polygon fill="none" stroke="black" points="766.688,-150 689.312,-150 689.312,-114 766.688,-114 766.688,-150"/>
<text text-anchor="start" x="705.398" y="-134.2" font-family="Times,serif" font-size="11.00">«abstract»</text>
<text text-anchor="start" x="697.156" y="-123.2" font-family="Times,serif" font-size="11.00">IteratorObject</text>
</g>
<!-- \\Iterator -->
<g id="node41" class="node"><title>\\Iterator</title>
<ellipse fill="none" stroke="black" cx="561" cy="-72" rx="38.6695" ry="18"/>
<text text-anchor="middle" x="561" y="-67.8" font-family="Times,serif" font-size="14.00" fill="gray">\Iterator</text>
</g>
<!-- \\OntologyWrapper\\IteratorObject&#45;&gt;\\Iterator -->
<g id="edge1" class="edge"><title>\\OntologyWrapper\\IteratorObject&#45;&gt;\\Iterator</title>
<path fill="none" stroke="black" stroke-dasharray="1,5" d="M689.146,-118.235C662.992,-108.724 628.273,-96.0992 601.724,-86.445"/>
<polygon fill="none" stroke="black" points="602.577,-83.0313 591.983,-82.9031 600.185,-89.6098 602.577,-83.0313"/>
</g>
<!-- \\Countable -->
<g id="node42" class="node"><title>\\Countable</title>
<ellipse fill="none" stroke="black" cx="561" cy="-18" rx="48.8273" ry="18"/>
<text text-anchor="middle" x="561" y="-13.8" font-family="Times,serif" font-size="14.00" fill="gray">\Countable</text>
</g>
<!-- \\OntologyWrapper\\IteratorObject&#45;&gt;\\Countable -->
<g id="edge2" class="edge"><title>\\OntologyWrapper\\IteratorObject&#45;&gt;\\Countable</title>
<path fill="none" stroke="black" stroke-dasharray="1,5" d="M704.311,-113.777C681.179,-95.5261 643.968,-67.0557 610,-45 606.245,-42.5617 602.257,-40.1121 598.248,-37.7367"/>
<polygon fill="none" stroke="black" points="599.928,-34.6649 589.519,-32.6888 596.423,-40.7246 599.928,-34.6649"/>
</g>
<!-- \\OntologyWrapper\\DatabaseObject -->
<g id="node21" class="node"><title>\\OntologyWrapper\\DatabaseObject</title>
<polygon fill="none" stroke="black" points="770.632,-474 685.368,-474 685.368,-438 770.632,-438 770.632,-474"/>
<text text-anchor="start" x="705.398" y="-458.2" font-family="Times,serif" font-size="11.00">«abstract»</text>
<text text-anchor="start" x="693.185" y="-447.2" font-family="Times,serif" font-size="11.00">DatabaseObject</text>
</g>
<!-- \\OntologyWrapper\\ConnectionObject -->
<g id="node30" class="node"><title>\\OntologyWrapper\\ConnectionObject</title>
<polygon fill="none" stroke="black" points="609.035,-528 512.965,-528 512.965,-492 609.035,-492 609.035,-528"/>
<text text-anchor="start" x="538.398" y="-512.2" font-family="Times,serif" font-size="11.00">«abstract»</text>
<text text-anchor="start" x="520.983" y="-501.2" font-family="Times,serif" font-size="11.00">ConnectionObject</text>
</g>
<!-- \\OntologyWrapper\\DatabaseObject&#45;&gt;\\OntologyWrapper\\ConnectionObject -->
<g id="edge3" class="edge"><title>\\OntologyWrapper\\DatabaseObject&#45;&gt;\\OntologyWrapper\\ConnectionObject</title>
<path fill="none" stroke="black" d="M685.364,-469.626C665.155,-476.24 640.57,-484.286 618.682,-491.449"/>
<polygon fill="none" stroke="black" points="617.58,-488.127 609.165,-494.564 619.758,-494.78 617.58,-488.127"/>
</g>
<!-- \\OntologyWrapper\\MongoServer -->
<g id="node22" class="node"><title>\\OntologyWrapper\\MongoServer</title>
<polygon fill="none" stroke="black" points="943.491,-312 866.509,-312 866.509,-276 943.491,-276 943.491,-312"/>
<text text-anchor="middle" x="905" y="-290.7" font-family="Times,serif" font-size="11.00">MongoServer</text>
</g>
<!-- \\OntologyWrapper\\ServerObject -->
<g id="node36" class="node"><title>\\OntologyWrapper\\ServerObject</title>
<polygon fill="none" stroke="black" points="765.029,-528 690.971,-528 690.971,-492 765.029,-492 765.029,-528"/>
<text text-anchor="start" x="705.398" y="-512.2" font-family="Times,serif" font-size="11.00">«abstract»</text>
<text text-anchor="start" x="698.985" y="-501.2" font-family="Times,serif" font-size="11.00">ServerObject</text>
</g>
<!-- \\OntologyWrapper\\MongoServer&#45;&gt;\\OntologyWrapper\\ServerObject -->
<g id="edge4" class="edge"><title>\\OntologyWrapper\\MongoServer&#45;&gt;\\OntologyWrapper\\ServerObject</title>
<path fill="none" stroke="black" d="M866.614,-303.337C856.313,-307.384 845.831,-313.074 838,-321 783.591,-376.07 824.068,-423.955 774,-483 773.407,-483.699 772.791,-484.385 772.155,-485.058"/>
<polygon fill="none" stroke="black" points="769.797,-482.471 764.692,-491.755 774.472,-487.681 769.797,-482.471"/>
</g>
<!-- \\OntologyWrapper\\EntityObject -->
<g id="node23" class="node"><title>\\OntologyWrapper\\EntityObject</title>
<polygon fill="none" stroke="black" points="941.209,-204 868.791,-204 868.791,-168 941.209,-168 941.209,-204"/>
<text text-anchor="start" x="882.398" y="-188.2" font-family="Times,serif" font-size="11.00">«abstract»</text>
<text text-anchor="start" x="876.896" y="-177.2" font-family="Times,serif" font-size="11.00">EntityObject</text>
</g>
<!-- \\OntologyWrapper\\UnitObject -->
<g id="node35" class="node"><title>\\OntologyWrapper\\UnitObject</title>
<polygon fill="none" stroke="black" points="760.377,-258 695.623,-258 695.623,-222 760.377,-222 760.377,-258"/>
<text text-anchor="start" x="705.398" y="-242.2" font-family="Times,serif" font-size="11.00">«abstract»</text>
<text text-anchor="start" x="703.562" y="-231.2" font-family="Times,serif" font-size="11.00">UnitObject</text>
</g>
<!-- \\OntologyWrapper\\EntityObject&#45;&gt;\\OntologyWrapper\\UnitObject -->
<g id="edge5" class="edge"><title>\\OntologyWrapper\\EntityObject&#45;&gt;\\OntologyWrapper\\UnitObject</title>
<path fill="none" stroke="black" d="M868.586,-196.928C840.142,-205.705 800.151,-218.045 770.261,-227.268"/>
<polygon fill="none" stroke="black" points="769.066,-223.974 760.542,-230.267 771.13,-230.663 769.066,-223.974"/>
</g>
<!-- \\OntologyWrapper\\Wrapper -->
<g id="node24" class="node"><title>\\OntologyWrapper\\Wrapper</title>
<polygon fill="none" stroke="black" points="755.038,-636 700.962,-636 700.962,-600 755.038,-600 755.038,-636"/>
<text text-anchor="middle" x="728" y="-614.7" font-family="Times,serif" font-size="11.00">Wrapper</text>
</g>
<!-- \\OntologyWrapper\\Dictionary -->
<g id="node26" class="node"><title>\\OntologyWrapper\\Dictionary</title>
<polygon fill="none" stroke="black" points="592.54,-622 529.46,-622 529.46,-586 592.54,-586 592.54,-622"/>
<text text-anchor="middle" x="561" y="-600.7" font-family="Times,serif" font-size="11.00">Dictionary</text>
</g>
<!-- \\OntologyWrapper\\Wrapper&#45;&gt;\\OntologyWrapper\\Dictionary -->
<g id="edge6" class="edge"><title>\\OntologyWrapper\\Wrapper&#45;&gt;\\OntologyWrapper\\Dictionary</title>
<path fill="none" stroke="black" d="M700.855,-615.782C674.6,-613.554 633.758,-610.089 603.153,-607.492"/>
<polygon fill="none" stroke="black" points="603.056,-603.971 592.796,-606.613 602.464,-610.946 603.056,-603.971"/>
</g>
<!-- \\OntologyWrapper\\Tag -->
<g id="node25" class="node"><title>\\OntologyWrapper\\Tag</title>
<polygon fill="none" stroke="black" points="755,-204 701,-204 701,-168 755,-168 755,-204"/>
<text text-anchor="middle" x="728" y="-182.7" font-family="Times,serif" font-size="11.00">Tag</text>
</g>
<!-- \\OntologyWrapper\\PersistentObject -->
<g id="node31" class="node"><title>\\OntologyWrapper\\PersistentObject</title>
<polygon fill="none" stroke="black" points="605.096,-339 516.904,-339 516.904,-303 605.096,-303 605.096,-339"/>
<text text-anchor="start" x="538.398" y="-323.2" font-family="Times,serif" font-size="11.00">«abstract»</text>
<text text-anchor="start" x="524.952" y="-312.2" font-family="Times,serif" font-size="11.00">PersistentObject</text>
</g>
<!-- \\OntologyWrapper\\Tag&#45;&gt;\\OntologyWrapper\\PersistentObject -->
<g id="edge7" class="edge"><title>\\OntologyWrapper\\Tag&#45;&gt;\\OntologyWrapper\\PersistentObject</title>
<path fill="none" stroke="black" d="M700.748,-200.594C694.453,-204.405 687.861,-208.667 682,-213 647.224,-238.71 610.774,-272.663 587.303,-295.582"/>
<polygon fill="none" stroke="black" points="584.831,-293.103 580.157,-302.611 589.74,-298.094 584.831,-293.103"/>
</g>
<!-- \\OntologyWrapper\\DictionaryObject -->
<g id="node33" class="node"><title>\\OntologyWrapper\\DictionaryObject</title>
<polygon fill="none" stroke="black" points="440.362,-595 347.638,-595 347.638,-559 440.362,-559 440.362,-595"/>
<text text-anchor="start" x="371.398" y="-579.2" font-family="Times,serif" font-size="11.00">«abstract»</text>
<text text-anchor="start" x="355.82" y="-568.2" font-family="Times,serif" font-size="11.00">DictionaryObject</text>
</g>
<!-- \\OntologyWrapper\\Dictionary&#45;&gt;\\OntologyWrapper\\DictionaryObject -->
<g id="edge8" class="edge"><title>\\OntologyWrapper\\Dictionary&#45;&gt;\\OntologyWrapper\\DictionaryObject</title>
<path fill="none" stroke="black" d="M529.351,-598.985C507.204,-595.361 476.673,-590.365 450.311,-586.051"/>
<polygon fill="none" stroke="black" points="450.872,-582.596 440.438,-584.435 449.742,-589.504 450.872,-582.596"/>
</g>
<!-- \\OntologyWrapper\\Term -->
<g id="node27" class="node"><title>\\OntologyWrapper\\Term</title>
<polygon fill="none" stroke="black" points="755,-420 701,-420 701,-384 755,-384 755,-420"/>
<text text-anchor="middle" x="728" y="-398.7" font-family="Times,serif" font-size="11.00">Term</text>
</g>
<!-- \\OntologyWrapper\\Term&#45;&gt;\\OntologyWrapper\\PersistentObject -->
<g id="edge9" class="edge"><title>\\OntologyWrapper\\Term&#45;&gt;\\OntologyWrapper\\PersistentObject</title>
<path fill="none" stroke="black" d="M700.855,-389.165C675.903,-376.916 637.776,-358.199 607.782,-343.475"/>
<polygon fill="none" stroke="black" points="609.278,-340.31 598.759,-339.045 606.193,-346.594 609.278,-340.31"/>
</g>
<!-- \\OntologyWrapper\\ContainerObject -->
<g id="node28" class="node"><title>\\OntologyWrapper\\ContainerObject</title>
<polygon fill="none" stroke="black" points="275.198,-561 186.802,-561 186.802,-525 275.198,-525 275.198,-561"/>
<text text-anchor="middle" x="231" y="-539.7" font-family="Times,serif" font-size="11.00">ContainerObject</text>
</g>
<!-- \\ArrayObject -->
<g id="node43" class="node"><title>\\ArrayObject</title>
<ellipse fill="none" stroke="black" cx="57" cy="-543" rx="56.5201" ry="18"/>
<text text-anchor="middle" x="57" y="-538.8" font-family="Times,serif" font-size="14.00" fill="gray">\ArrayObject</text>
</g>
<!-- \\OntologyWrapper\\ContainerObject&#45;&gt;\\ArrayObject -->
<g id="edge10" class="edge"><title>\\OntologyWrapper\\ContainerObject&#45;&gt;\\ArrayObject</title>
<path fill="none" stroke="black" d="M186.597,-543C167.611,-543 144.919,-543 123.919,-543"/>
<polygon fill="none" stroke="black" points="123.769,-539.5 113.769,-543 123.769,-546.5 123.769,-539.5"/>
</g>
<!-- \\OntologyWrapper\\MongoDatabase -->
<g id="node29" class="node"><title>\\OntologyWrapper\\MongoDatabase</title>
<polygon fill="none" stroke="black" points="949.091,-258 860.909,-258 860.909,-222 949.091,-222 949.091,-258"/>
<text text-anchor="middle" x="905" y="-236.7" font-family="Times,serif" font-size="11.00">MongoDatabase</text>
</g>
<!-- \\OntologyWrapper\\MongoDatabase&#45;&gt;\\OntologyWrapper\\DatabaseObject -->
<g id="edge11" class="edge"><title>\\OntologyWrapper\\MongoDatabase&#45;&gt;\\OntologyWrapper\\DatabaseObject</title>
<path fill="none" stroke="black" d="M860.777,-251.81C852.448,-255.613 844.352,-260.571 838,-267 783.591,-322.07 824.068,-369.955 774,-429 773.407,-429.699 772.791,-430.385 772.155,-431.058"/>
<polygon fill="none" stroke="black" points="769.797,-428.471 764.692,-437.755 774.472,-433.681 769.797,-428.471"/>
</g>
<!-- \\OntologyWrapper\\OntologyObject -->
<g id="node40" class="node"><title>\\OntologyWrapper\\OntologyObject</title>
<polygon fill="none" stroke="black" points="437.377,-528 350.623,-528 350.623,-492 437.377,-492 437.377,-528"/>
<text text-anchor="start" x="371.398" y="-512.2" font-family="Times,serif" font-size="11.00">«abstract»</text>
<text text-anchor="start" x="358.562" y="-501.2" font-family="Times,serif" font-size="11.00">OntologyObject</text>
</g>
<!-- \\OntologyWrapper\\ConnectionObject&#45;&gt;\\OntologyWrapper\\OntologyObject -->
<g id="edge12" class="edge"><title>\\OntologyWrapper\\ConnectionObject&#45;&gt;\\OntologyWrapper\\OntologyObject</title>
<path fill="none" stroke="black" d="M512.718,-510C492.34,-510 468.434,-510 447.507,-510"/>
<polygon fill="none" stroke="black" points="447.503,-506.5 437.502,-510 447.502,-513.5 447.503,-506.5"/>
</g>
<!-- \\OntologyWrapper\\PersistentObject&#45;&gt;\\OntologyWrapper\\OntologyObject -->
<g id="edge13" class="edge"><title>\\OntologyWrapper\\PersistentObject&#45;&gt;\\OntologyWrapper\\OntologyObject</title>
<path fill="none" stroke="black" d="M544.179,-339.122C514.735,-372.849 451.447,-445.343 417.54,-484.182"/>
<polygon fill="none" stroke="black" points="414.713,-482.098 410.773,-491.933 419.986,-486.701 414.713,-482.098"/>
</g>
<!-- \\OntologyWrapper\\MongoIterator -->
<g id="node32" class="node"><title>\\OntologyWrapper\\MongoIterator</title>
<polygon fill="none" stroke="black" points="945.147,-150 864.853,-150 864.853,-114 945.147,-114 945.147,-150"/>
<text text-anchor="middle" x="905" y="-128.7" font-family="Times,serif" font-size="11.00">MongoIterator</text>
</g>
<!-- \\OntologyWrapper\\MongoIterator&#45;&gt;\\OntologyWrapper\\IteratorObject -->
<g id="edge14" class="edge"><title>\\OntologyWrapper\\MongoIterator&#45;&gt;\\OntologyWrapper\\IteratorObject</title>
<path fill="none" stroke="black" d="M864.727,-132C838.813,-132 804.692,-132 777.145,-132"/>
<polygon fill="none" stroke="black" points="776.94,-128.5 766.94,-132 776.94,-135.5 776.94,-128.5"/>
</g>
<!-- \\OntologyWrapper\\DictionaryObject&#45;&gt;\\OntologyWrapper\\ContainerObject -->
<g id="edge15" class="edge"><title>\\OntologyWrapper\\DictionaryObject&#45;&gt;\\OntologyWrapper\\ContainerObject</title>
<path fill="none" stroke="black" d="M347.724,-567.439C328.31,-563.339 305.492,-558.52 285.271,-554.25"/>
<polygon fill="none" stroke="black" points="285.781,-550.78 275.274,-552.139 284.335,-557.629 285.781,-550.78"/>
</g>
<!-- \\OntologyWrapper\\Node -->
<g id="node34" class="node"><title>\\OntologyWrapper\\Node</title>
<polygon fill="none" stroke="black" points="755,-366 701,-366 701,-330 755,-330 755,-366"/>
<text text-anchor="middle" x="728" y="-344.7" font-family="Times,serif" font-size="11.00">Node</text>
</g>
<!-- \\OntologyWrapper\\Node&#45;&gt;\\OntologyWrapper\\PersistentObject -->
<g id="edge16" class="edge"><title>\\OntologyWrapper\\Node&#45;&gt;\\OntologyWrapper\\PersistentObject</title>
<path fill="none" stroke="black" d="M700.855,-343.722C677.851,-339.957 643.65,-334.361 614.947,-329.664"/>
<polygon fill="none" stroke="black" points="615.485,-326.206 605.051,-328.045 614.355,-333.114 615.485,-326.206"/>
</g>
<!-- \\OntologyWrapper\\UnitObject&#45;&gt;\\OntologyWrapper\\PersistentObject -->
<g id="edge17" class="edge"><title>\\OntologyWrapper\\UnitObject&#45;&gt;\\OntologyWrapper\\PersistentObject</title>
<path fill="none" stroke="black" d="M695.576,-255.426C670.795,-267.592 635.876,-284.734 607.955,-298.44"/>
<polygon fill="none" stroke="black" points="606.214,-295.396 598.78,-302.944 609.299,-301.68 606.214,-295.396"/>
</g>
<!-- \\OntologyWrapper\\ServerObject&#45;&gt;\\OntologyWrapper\\ConnectionObject -->
<g id="edge18" class="edge"><title>\\OntologyWrapper\\ServerObject&#45;&gt;\\OntologyWrapper\\ConnectionObject</title>
<path fill="none" stroke="black" d="M690.79,-510C669.883,-510 643.112,-510 619.4,-510"/>
<polygon fill="none" stroke="black" points="619.102,-506.5 609.102,-510 619.102,-513.5 619.102,-506.5"/>
</g>
<!-- \\OntologyWrapper\\CollectionObject -->
<g id="node37" class="node"><title>\\OntologyWrapper\\CollectionObject</title>
<polygon fill="none" stroke="black" points="773.647,-582 682.353,-582 682.353,-546 773.647,-546 773.647,-582"/>
<text text-anchor="start" x="705.398" y="-566.2" font-family="Times,serif" font-size="11.00">«abstract»</text>
<text text-anchor="start" x="690.427" y="-555.2" font-family="Times,serif" font-size="11.00">CollectionObject</text>
</g>
<!-- \\OntologyWrapper\\CollectionObject&#45;&gt;\\OntologyWrapper\\ConnectionObject -->
<g id="edge19" class="edge"><title>\\OntologyWrapper\\CollectionObject&#45;&gt;\\OntologyWrapper\\ConnectionObject</title>
<path fill="none" stroke="black" d="M682.349,-549.387C662.822,-542.996 639.683,-535.424 618.938,-528.634"/>
<polygon fill="none" stroke="black" points="619.878,-525.259 609.285,-525.475 617.7,-531.912 619.878,-525.259"/>
</g>
<!-- \\OntologyWrapper\\MongoCollection -->
<g id="node38" class="node"><title>\\OntologyWrapper\\MongoCollection</title>
<polygon fill="none" stroke="black" points="951.608,-366 858.392,-366 858.392,-330 951.608,-330 951.608,-366"/>
<text text-anchor="middle" x="905" y="-344.7" font-family="Times,serif" font-size="11.00">MongoCollection</text>
</g>
<!-- \\OntologyWrapper\\MongoCollection&#45;&gt;\\OntologyWrapper\\CollectionObject -->
<g id="edge20" class="edge"><title>\\OntologyWrapper\\MongoCollection&#45;&gt;\\OntologyWrapper\\CollectionObject</title>
<path fill="none" stroke="black" d="M858.061,-358.886C850.705,-362.18 843.663,-366.456 838,-372 781.794,-427.025 824.684,-476.85 774,-537 773.409,-537.701 772.795,-538.389 772.161,-539.063"/>
<polygon fill="none" stroke="black" points="769.8,-536.479 764.712,-545.772 774.485,-541.681 769.8,-536.479"/>
</g>
<!-- \\OntologyWrapper\\Edge -->
<g id="node39" class="node"><title>\\OntologyWrapper\\Edge</title>
<polygon fill="none" stroke="black" points="755,-312 701,-312 701,-276 755,-276 755,-312"/>
<text text-anchor="middle" x="728" y="-290.7" font-family="Times,serif" font-size="11.00">Edge</text>
</g>
<!-- \\OntologyWrapper\\Edge&#45;&gt;\\OntologyWrapper\\PersistentObject -->
<g id="edge21" class="edge"><title>\\OntologyWrapper\\Edge&#45;&gt;\\OntologyWrapper\\PersistentObject</title>
<path fill="none" stroke="black" d="M700.855,-298.278C677.851,-302.043 643.65,-307.639 614.947,-312.336"/>
<polygon fill="none" stroke="black" points="614.355,-308.886 605.051,-313.955 615.485,-315.794 614.355,-308.886"/>
</g>
<!-- \\OntologyWrapper\\OntologyObject&#45;&gt;\\OntologyWrapper\\ContainerObject -->
<g id="edge22" class="edge"><title>\\OntologyWrapper\\OntologyObject&#45;&gt;\\OntologyWrapper\\ContainerObject</title>
<path fill="none" stroke="black" d="M350.278,-518.757C330.253,-522.861 306.194,-527.793 285.018,-532.133"/>
<polygon fill="none" stroke="black" points="284.296,-528.708 275.202,-534.145 285.701,-535.566 284.296,-528.708"/>
</g>
</g>
</svg>
