<?xml version="1.0" encoding="UTF-8" standalone="no"?>
<!DOCTYPE svg PUBLIC "-//W3C//DTD SVG 1.1//EN"
 "http://www.w3.org/Graphics/SVG/1.1/DTD/svg11.dtd">
<!-- Generated by graphviz version 2.38.0 (20140413.2041)
 -->
<!-- Title: G Pages: 1 -->
<svg width="1318pt" height="1597pt"
 viewBox="0.00 0.00 1318.06 1597.00" xmlns="http://www.w3.org/2000/svg" xmlns:xlink="http://www.w3.org/1999/xlink">
<g id="graph0" class="graph" transform="scale(1 1) rotate(0) translate(4 1593)">
<title>G</title>
<polygon fill="white" stroke="none" points="-4,4 -4,-1593 1314.06,-1593 1314.06,4 -4,4"/>
<g id="clust1" class="cluster"><title>cluster_Global</title>
<path fill="none" stroke="gray" d="M181.519,-98C181.519,-98 1290.06,-98 1290.06,-98 1296.06,-98 1302.06,-104 1302.06,-110 1302.06,-110 1302.06,-1569 1302.06,-1569 1302.06,-1575 1296.06,-1581 1290.06,-1581 1290.06,-1581 181.519,-1581 181.519,-1581 175.519,-1581 169.519,-1575 169.519,-1569 169.519,-1569 169.519,-110 169.519,-110 169.519,-104 175.519,-98 181.519,-98"/>
<text text-anchor="middle" x="735.791" y="-1568.2" font-family="Times,serif" font-size="11.00" fill="gray">Global</text>
</g>
<g id="clust2" class="cluster"><title>cluster_\OntologyWrapper</title>
<path fill="none" stroke="gray" d="M189.519,-106C189.519,-106 1282.06,-106 1282.06,-106 1288.06,-106 1294.06,-112 1294.06,-118 1294.06,-118 1294.06,-1542 1294.06,-1542 1294.06,-1548 1288.06,-1554 1282.06,-1554 1282.06,-1554 189.519,-1554 189.519,-1554 183.519,-1554 177.519,-1548 177.519,-1542 177.519,-1542 177.519,-118 177.519,-118 177.519,-112 183.519,-106 189.519,-106"/>
<text text-anchor="middle" x="735.791" y="-1541.2" font-family="Times,serif" font-size="11.00" fill="gray">OntologyWrapper</text>
</g>
<g id="clust3" class="cluster"><title>cluster_\OntologyWrapper\traits</title>
<path fill="none" stroke="gray" d="M1165.27,-268C1165.27,-268 1274.06,-268 1274.06,-268 1280.06,-268 1286.06,-274 1286.06,-280 1286.06,-280 1286.06,-1515 1286.06,-1515 1286.06,-1521 1280.06,-1527 1274.06,-1527 1274.06,-1527 1165.27,-1527 1165.27,-1527 1159.27,-1527 1153.27,-1521 1153.27,-1515 1153.27,-1515 1153.27,-280 1153.27,-280 1153.27,-274 1159.27,-268 1165.27,-268"/>
<text text-anchor="middle" x="1219.67" y="-1514.2" font-family="Times,serif" font-size="11.00" fill="gray">traits</text>
</g>
<!-- \\OntologyWrapper\\traits\\Label -->
<g id="node1" class="node"><title>\\OntologyWrapper\\traits\\Label</title>
<polygon fill="none" stroke="black" points="1246.67,-1500 1192.67,-1500 1192.67,-1464 1246.67,-1464 1246.67,-1500"/>
<text text-anchor="middle" x="1219.67" y="-1478.7" font-family="Times,serif" font-size="11.00">Label</text>
</g>
<!-- \\OntologyWrapper\\traits\\EntityPhone -->
<g id="node2" class="node"><title>\\OntologyWrapper\\traits\\EntityPhone</title>
<polygon fill="none" stroke="black" points="1255.06,-1446 1184.28,-1446 1184.28,-1410 1255.06,-1410 1255.06,-1446"/>
<text text-anchor="middle" x="1219.67" y="-1424.7" font-family="Times,serif" font-size="11.00">EntityPhone</text>
</g>
<!-- \\OntologyWrapper\\traits\\MemcachedDictionary -->
<g id="node3" class="node"><title>\\OntologyWrapper\\traits\\MemcachedDictionary</title>
<polygon fill="none" stroke="black" points="1277.96,-1392 1161.38,-1392 1161.38,-1356 1277.96,-1356 1277.96,-1392"/>
<text text-anchor="middle" x="1219.67" y="-1370.7" font-family="Times,serif" font-size="11.00">MemcachedDictionary</text>
</g>
<!-- \\OntologyWrapper\\traits\\AccessorOffset -->
<g id="node4" class="node"><title>\\OntologyWrapper\\traits\\AccessorOffset</title>
<polygon fill="none" stroke="black" points="1261.28,-1338 1178.06,-1338 1178.06,-1302 1261.28,-1302 1261.28,-1338"/>
<text text-anchor="middle" x="1219.67" y="-1316.7" font-family="Times,serif" font-size="11.00">AccessorOffset</text>
</g>
<!-- \\OntologyWrapper\\traits\\EntityMail -->
<g id="node5" class="node"><title>\\OntologyWrapper\\traits\\EntityMail</title>
<polygon fill="none" stroke="black" points="1251.33,-1284 1188,-1284 1188,-1248 1251.33,-1248 1251.33,-1284"/>
<text text-anchor="middle" x="1219.67" y="-1262.7" font-family="Times,serif" font-size="11.00">EntityMail</text>
</g>
<!-- \\OntologyWrapper\\traits\\Terms -->
<g id="node6" class="node"><title>\\OntologyWrapper\\traits\\Terms</title>
<polygon fill="none" stroke="black" points="1246.67,-1230 1192.67,-1230 1192.67,-1194 1246.67,-1194 1246.67,-1230"/>
<text text-anchor="middle" x="1219.67" y="-1208.7" font-family="Times,serif" font-size="11.00">Terms</text>
</g>
<!-- \\OntologyWrapper\\traits\\Definition -->
<g id="node7" class="node"><title>\\OntologyWrapper\\traits\\Definition</title>
<polygon fill="none" stroke="black" points="1249.78,-1176 1189.55,-1176 1189.55,-1140 1249.78,-1140 1249.78,-1176"/>
<text text-anchor="middle" x="1219.67" y="-1154.7" font-family="Times,serif" font-size="11.00">Definition</text>
</g>
<!-- \\OntologyWrapper\\traits\\EntityFax -->
<g id="node8" class="node"><title>\\OntologyWrapper\\traits\\EntityFax</title>
<polygon fill="none" stroke="black" points="1249.56,-1122 1189.78,-1122 1189.78,-1086 1249.56,-1086 1249.56,-1122"/>
<text text-anchor="middle" x="1219.67" y="-1100.7" font-family="Times,serif" font-size="11.00">EntityFax</text>
</g>
<!-- \\OntologyWrapper\\traits\\Description -->
<g id="node9" class="node"><title>\\OntologyWrapper\\traits\\Description</title>
<polygon fill="none" stroke="black" points="1253.49,-1068 1185.85,-1068 1185.85,-1032 1253.49,-1032 1253.49,-1068"/>
<text text-anchor="middle" x="1219.67" y="-1046.7" font-family="Times,serif" font-size="11.00">Description</text>
</g>
<!-- \\OntologyWrapper\\traits\\Category -->
<g id="node10" class="node"><title>\\OntologyWrapper\\traits\\Category</title>
<polygon fill="none" stroke="black" points="1247.99,-1014 1191.35,-1014 1191.35,-978 1247.99,-978 1247.99,-1014"/>
<text text-anchor="middle" x="1219.67" y="-992.7" font-family="Times,serif" font-size="11.00">Category</text>
</g>
<!-- \\OntologyWrapper\\traits\\EntityKind -->
<g id="node11" class="node"><title>\\OntologyWrapper\\traits\\EntityKind</title>
<polygon fill="none" stroke="black" points="1252.06,-960 1187.28,-960 1187.28,-924 1252.06,-924 1252.06,-960"/>
<text text-anchor="middle" x="1219.67" y="-938.7" font-family="Times,serif" font-size="11.00">EntityKind</text>
</g>
<!-- \\OntologyWrapper\\traits\\Synonym -->
<g id="node12" class="node"><title>\\OntologyWrapper\\traits\\Synonym</title>
<polygon fill="none" stroke="black" points="1248.84,-906 1190.49,-906 1190.49,-870 1248.84,-870 1248.84,-906"/>
<text text-anchor="middle" x="1219.67" y="-884.7" font-family="Times,serif" font-size="11.00">Synonym</text>
</g>
<!-- \\OntologyWrapper\\traits\\EntityAffiliation -->
<g id="node13" class="node"><title>\\OntologyWrapper\\traits\\EntityAffiliation</title>
<polygon fill="none" stroke="black" points="1263.89,-852 1175.45,-852 1175.45,-816 1263.89,-816 1263.89,-852"/>
<text text-anchor="middle" x="1219.67" y="-830.7" font-family="Times,serif" font-size="11.00">EntityAffiliation</text>
</g>
<!-- \\OntologyWrapper\\traits\\EntityType -->
<g id="node14" class="node"><title>\\OntologyWrapper\\traits\\EntityType</title>
<polygon fill="none" stroke="black" points="1251.89,-798 1187.45,-798 1187.45,-762 1251.89,-762 1251.89,-798"/>
<text text-anchor="middle" x="1219.67" y="-776.7" font-family="Times,serif" font-size="11.00">EntityType</text>
</g>
<!-- \\OntologyWrapper\\traits\\EntityEmail -->
<g id="node15" class="node"><title>\\OntologyWrapper\\traits\\EntityEmail</title>
<polygon fill="none" stroke="black" points="1254.33,-744 1185.01,-744 1185.01,-708 1254.33,-708 1254.33,-744"/>
<text text-anchor="middle" x="1219.67" y="-722.7" font-family="Times,serif" font-size="11.00">EntityEmail</text>
</g>
<!-- \\OntologyWrapper\\traits\\DataType -->
<g id="node16" class="node"><title>\\OntologyWrapper\\traits\\DataType</title>
<polygon fill="none" stroke="black" points="1248.77,-690 1190.57,-690 1190.57,-654 1248.77,-654 1248.77,-690"/>
<text text-anchor="middle" x="1219.67" y="-668.7" font-family="Times,serif" font-size="11.00">DataType</text>
</g>
<!-- \\OntologyWrapper\\traits\\TermType -->
<g id="node17" class="node"><title>\\OntologyWrapper\\traits\\TermType</title>
<polygon fill="none" stroke="black" points="1250.05,-636 1189.28,-636 1189.28,-600 1250.05,-600 1250.05,-636"/>
<text text-anchor="middle" x="1219.67" y="-614.7" font-family="Times,serif" font-size="11.00">TermType</text>
</g>
<!-- \\OntologyWrapper\\traits\\AccessorProperty -->
<g id="node18" class="node"><title>\\OntologyWrapper\\traits\\AccessorProperty</title>
<polygon fill="none" stroke="black" points="1266.87,-582 1172.47,-582 1172.47,-546 1266.87,-546 1266.87,-582"/>
<text text-anchor="middle" x="1219.67" y="-560.7" font-family="Times,serif" font-size="11.00">AccessorProperty</text>
</g>
<!-- \\OntologyWrapper\\traits\\EntityLink -->
<g id="node19" class="node"><title>\\OntologyWrapper\\traits\\EntityLink</title>
<polygon fill="none" stroke="black" points="1251.33,-528 1188,-528 1188,-492 1251.33,-492 1251.33,-528"/>
<text text-anchor="middle" x="1219.67" y="-506.7" font-family="Times,serif" font-size="11.00">EntityLink</text>
</g>
<!-- \\OntologyWrapper\\traits\\Status -->
<g id="node20" class="node"><title>\\OntologyWrapper\\traits\\Status</title>
<polygon fill="none" stroke="black" points="1246.67,-474 1192.67,-474 1192.67,-438 1246.67,-438 1246.67,-474"/>
<text text-anchor="middle" x="1219.67" y="-452.7" font-family="Times,serif" font-size="11.00">Status</text>
</g>
<!-- \\OntologyWrapper\\traits\\NodeType -->
<g id="node21" class="node"><title>\\OntologyWrapper\\traits\\NodeType</title>
<polygon fill="none" stroke="black" points="1250.33,-420 1189.01,-420 1189.01,-384 1250.33,-384 1250.33,-420"/>
<text text-anchor="middle" x="1219.67" y="-398.7" font-family="Times,serif" font-size="11.00">NodeType</text>
</g>
<!-- \\OntologyWrapper\\traits\\DataKind -->
<g id="node22" class="node"><title>\\OntologyWrapper\\traits\\DataKind</title>
<polygon fill="none" stroke="black" points="1248.93,-366 1190.4,-366 1190.4,-330 1248.93,-330 1248.93,-366"/>
<text text-anchor="middle" x="1219.67" y="-344.7" font-family="Times,serif" font-size="11.00">DataKind</text>
</g>
<!-- \\OntologyWrapper\\traits\\EntityAcronym -->
<g id="node23" class="node"><title>\\OntologyWrapper\\traits\\EntityAcronym</title>
<polygon fill="none" stroke="black" points="1262.1,-312 1177.23,-312 1177.23,-276 1262.1,-276 1262.1,-312"/>
<text text-anchor="middle" x="1219.67" y="-290.7" font-family="Times,serif" font-size="11.00">EntityAcronym</text>
</g>
<!-- \\OntologyWrapper\\IteratorObject -->
<g id="node24" class="node"><title>\\OntologyWrapper\\IteratorObject</title>
<polygon fill="none" stroke="black" points="1089.12,-150 1011.74,-150 1011.74,-114 1089.12,-114 1089.12,-150"/>
<text text-anchor="start" x="1027.83" y="-134.2" font-family="Times,serif" font-size="11.00">«abstract»</text>
<text text-anchor="start" x="1019.59" y="-123.2" font-family="Times,serif" font-size="11.00">IteratorObject</text>
</g>
<!-- \\Iterator -->
<g id="node53" class="node"><title>\\Iterator</title>
<ellipse fill="none" stroke="black" cx="890.673" cy="-72" rx="38.6695" ry="18"/>
<text text-anchor="middle" x="890.673" y="-67.8" font-family="Times,serif" font-size="14.00" fill="gray">\Iterator</text>
</g>
<!-- \\OntologyWrapper\\IteratorObject&#45;&gt;\\Iterator -->
<g id="edge1" class="edge"><title>\\OntologyWrapper\\IteratorObject&#45;&gt;\\Iterator</title>
<path fill="none" stroke="black" stroke-dasharray="1,5" d="M1011.64,-117.629C987.099,-108.294 955.191,-96.1578 930.452,-86.7488"/>
<polygon fill="none" stroke="black" points="931.604,-83.4425 921.013,-83.1589 929.115,-89.9852 931.604,-83.4425"/>
</g>
<!-- \\Countable -->
<g id="node54" class="node"><title>\\Countable</title>
<ellipse fill="none" stroke="black" cx="890.673" cy="-18" rx="48.8273" ry="18"/>
<text text-anchor="middle" x="890.673" y="-13.8" font-family="Times,serif" font-size="14.00" fill="gray">\Countable</text>
</g>
<!-- \\OntologyWrapper\\IteratorObject&#45;&gt;\\Countable -->
<g id="edge2" class="edge"><title>\\OntologyWrapper\\IteratorObject&#45;&gt;\\Countable</title>
<path fill="none" stroke="black" stroke-dasharray="1,5" d="M1028.71,-113.972C1007.16,-95.6198 972.099,-66.8399 939.586,-45 936.02,-42.6041 932.227,-40.2162 928.397,-37.9076"/>
<polygon fill="none" stroke="black" points="929.883,-34.7221 919.483,-32.6981 926.35,-40.7657 929.883,-34.7221"/>
</g>
<!-- \\OntologyWrapper\\DatabaseObject -->
<g id="node25" class="node"><title>\\OntologyWrapper\\DatabaseObject</title>
<polygon fill="none" stroke="black" points="766.818,-258 681.554,-258 681.554,-222 766.818,-222 766.818,-258"/>
<text text-anchor="start" x="701.584" y="-242.2" font-family="Times,serif" font-size="11.00">«abstract»</text>
<text text-anchor="start" x="689.37" y="-231.2" font-family="Times,serif" font-size="11.00">DatabaseObject</text>
</g>
<!-- \\OntologyWrapper\\ConnectionObject -->
<g id="node36" class="node"><title>\\OntologyWrapper\\ConnectionObject</title>
<polygon fill="none" stroke="black" points="606.63,-285 510.56,-285 510.56,-249 606.63,-249 606.63,-285"/>
<text text-anchor="start" x="535.993" y="-269.2" font-family="Times,serif" font-size="11.00">«abstract»</text>
<text text-anchor="start" x="518.578" y="-258.2" font-family="Times,serif" font-size="11.00">ConnectionObject</text>
</g>
<!-- \\OntologyWrapper\\DatabaseObject&#45;&gt;\\OntologyWrapper\\ConnectionObject -->
<g id="edge3" class="edge"><title>\\OntologyWrapper\\DatabaseObject&#45;&gt;\\OntologyWrapper\\ConnectionObject</title>
<path fill="none" stroke="black" d="M681.482,-246.883C661.787,-250.134 637.972,-254.064 616.638,-257.585"/>
<polygon fill="none" stroke="black" points="616.011,-254.141 606.714,-259.223 617.151,-261.048 616.011,-254.141"/>
</g>
<!-- \\OntologyWrapper\\DatabaseGraph -->
<g id="node26" class="node"><title>\\OntologyWrapper\\DatabaseGraph</title>
<polygon fill="none" stroke="black" points="765.985,-150 682.386,-150 682.386,-114 765.985,-114 765.985,-150"/>
<text text-anchor="start" x="701.584" y="-134.2" font-family="Times,serif" font-size="11.00">«abstract»</text>
<text text-anchor="start" x="690.286" y="-123.2" font-family="Times,serif" font-size="11.00">DatabaseGraph</text>
</g>
<!-- \\OntologyWrapper\\DatabaseGraph&#45;&gt;\\OntologyWrapper\\ConnectionObject -->
<g id="edge4" class="edge"><title>\\OntologyWrapper\\DatabaseGraph&#45;&gt;\\OntologyWrapper\\ConnectionObject</title>
<path fill="none" stroke="black" d="M690.738,-150.063C686.52,-152.865 682.367,-155.874 678.612,-159 641.599,-189.823 643.983,-209.612 606.612,-240 605.426,-240.965 604.2,-241.916 602.945,-242.852"/>
<polygon fill="none" stroke="black" points="600.598,-240.219 594.346,-248.772 604.568,-245.984 600.598,-240.219"/>
</g>
<!-- \\OntologyWrapper\\MongoServer -->
<g id="node27" class="node"><title>\\OntologyWrapper\\MongoServer</title>
<polygon fill="none" stroke="black" points="929.164,-312 852.182,-312 852.182,-276 929.164,-276 929.164,-312"/>
<text text-anchor="middle" x="890.673" y="-290.7" font-family="Times,serif" font-size="11.00">MongoServer</text>
</g>
<!-- \\OntologyWrapper\\ServerObject -->
<g id="node44" class="node"><title>\\OntologyWrapper\\ServerObject</title>
<polygon fill="none" stroke="black" points="761.215,-312 687.157,-312 687.157,-276 761.215,-276 761.215,-312"/>
<text text-anchor="start" x="701.584" y="-296.2" font-family="Times,serif" font-size="11.00">«abstract»</text>
<text text-anchor="start" x="695.171" y="-285.2" font-family="Times,serif" font-size="11.00">ServerObject</text>
</g>
<!-- \\OntologyWrapper\\MongoServer&#45;&gt;\\OntologyWrapper\\ServerObject -->
<g id="edge5" class="edge"><title>\\OntologyWrapper\\MongoServer&#45;&gt;\\OntologyWrapper\\ServerObject</title>
<path fill="none" stroke="black" d="M852.348,-294C828.355,-294 797.005,-294 771.437,-294"/>
<polygon fill="none" stroke="black" points="771.232,-290.5 761.232,-294 771.232,-297.5 771.232,-290.5"/>
</g>
<!-- \\OntologyWrapper\\EntityObject -->
<g id="node28" class="node"><title>\\OntologyWrapper\\EntityObject</title>
<polygon fill="none" stroke="black" points="926.882,-393 854.464,-393 854.464,-357 926.882,-357 926.882,-393"/>
<text text-anchor="start" x="868.071" y="-377.2" font-family="Times,serif" font-size="11.00">«abstract»</text>
<text text-anchor="start" x="862.569" y="-366.2" font-family="Times,serif" font-size="11.00">EntityObject</text>
</g>
<!-- \\OntologyWrapper\\UnitObject -->
<g id="node43" class="node"><title>\\OntologyWrapper\\UnitObject</title>
<polygon fill="none" stroke="black" points="756.563,-420 691.809,-420 691.809,-384 756.563,-384 756.563,-420"/>
<text text-anchor="start" x="701.584" y="-404.2" font-family="Times,serif" font-size="11.00">«abstract»</text>
<text text-anchor="start" x="699.747" y="-393.2" font-family="Times,serif" font-size="11.00">UnitObject</text>
</g>
<!-- \\OntologyWrapper\\EntityObject&#45;&gt;\\OntologyWrapper\\UnitObject -->
<g id="edge6" class="edge"><title>\\OntologyWrapper\\EntityObject&#45;&gt;\\OntologyWrapper\\UnitObject</title>
<path fill="none" stroke="black" d="M854.386,-380.792C828.689,-385.01 793.794,-390.738 766.746,-395.178"/>
<polygon fill="none" stroke="black" points="766.1,-391.737 756.799,-396.811 767.234,-398.645 766.1,-391.737"/>
</g>
<!-- \\OntologyWrapper\\Wrapper -->
<g id="node29" class="node"><title>\\OntologyWrapper\\Wrapper</title>
<polygon fill="none" stroke="black" points="751.224,-636 697.148,-636 697.148,-600 751.224,-600 751.224,-636"/>
<text text-anchor="middle" x="724.186" y="-614.7" font-family="Times,serif" font-size="11.00">Wrapper</text>
</g>
<!-- \\OntologyWrapper\\Dictionary -->
<g id="node31" class="node"><title>\\OntologyWrapper\\Dictionary</title>
<polygon fill="none" stroke="black" points="590.135,-582 527.055,-582 527.055,-546 590.135,-546 590.135,-582"/>
<text text-anchor="middle" x="558.595" y="-560.7" font-family="Times,serif" font-size="11.00">Dictionary</text>
</g>
<!-- \\OntologyWrapper\\Wrapper&#45;&gt;\\OntologyWrapper\\Dictionary -->
<g id="edge7" class="edge"><title>\\OntologyWrapper\\Wrapper&#45;&gt;\\OntologyWrapper\\Dictionary</title>
<path fill="none" stroke="black" d="M696.902,-609.324C670.773,-600.699 630.335,-587.351 600.099,-577.37"/>
<polygon fill="none" stroke="black" points="600.865,-573.937 590.272,-574.126 598.671,-580.585 600.865,-573.937"/>
</g>
<!-- \\OntologyWrapper\\Tag -->
<g id="node30" class="node"><title>\\OntologyWrapper\\Tag</title>
<polygon fill="none" stroke="black" points="751.186,-582 697.186,-582 697.186,-546 751.186,-546 751.186,-582"/>
<text text-anchor="middle" x="724.186" y="-560.7" font-family="Times,serif" font-size="11.00">Tag</text>
</g>
<!-- \\OntologyWrapper\\PersistentObject -->
<g id="node38" class="node"><title>\\OntologyWrapper\\PersistentObject</title>
<polygon fill="none" stroke="black" points="602.691,-447 514.499,-447 514.499,-411 602.691,-411 602.691,-447"/>
<text text-anchor="start" x="535.993" y="-431.2" font-family="Times,serif" font-size="11.00">«abstract»</text>
<text text-anchor="start" x="522.547" y="-420.2" font-family="Times,serif" font-size="11.00">PersistentObject</text>
</g>
<!-- \\OntologyWrapper\\Tag&#45;&gt;\\OntologyWrapper\\PersistentObject -->
<g id="edge8" class="edge"><title>\\OntologyWrapper\\Tag&#45;&gt;\\OntologyWrapper\\PersistentObject</title>
<path fill="none" stroke="black" d="M697.178,-549.398C690.943,-545.586 684.415,-541.327 678.612,-537 644.249,-511.374 608.266,-477.609 584.983,-454.703"/>
<polygon fill="none" stroke="black" points="587.161,-451.934 577.595,-447.379 582.233,-456.905 587.161,-451.934"/>
</g>
<!-- \\OntologyWrapper\\DictionaryObject -->
<g id="node41" class="node"><title>\\OntologyWrapper\\DictionaryObject</title>
<polygon fill="none" stroke="black" points="438.759,-541 346.036,-541 346.036,-505 438.759,-505 438.759,-541"/>
<text text-anchor="start" x="369.796" y="-525.2" font-family="Times,serif" font-size="11.00">«abstract»</text>
<text text-anchor="start" x="354.217" y="-514.2" font-family="Times,serif" font-size="11.00">DictionaryObject</text>
</g>
<!-- \\OntologyWrapper\\Dictionary&#45;&gt;\\OntologyWrapper\\DictionaryObject -->
<g id="edge9" class="edge"><title>\\OntologyWrapper\\Dictionary&#45;&gt;\\OntologyWrapper\\DictionaryObject</title>
<path fill="none" stroke="black" d="M526.711,-556.288C504.717,-550.796 474.558,-543.266 448.488,-536.756"/>
<polygon fill="none" stroke="black" points="449.272,-533.344 438.722,-534.317 447.576,-540.136 449.272,-533.344"/>
</g>
<!-- \\OntologyWrapper\\ResultAggregator -->
<g id="node32" class="node"><title>\\OntologyWrapper\\ResultAggregator</title>
<polygon fill="none" stroke="black" points="1266.87,-258 1172.46,-258 1172.46,-222 1266.87,-222 1266.87,-258"/>
<text text-anchor="middle" x="1219.67" y="-236.7" font-family="Times,serif" font-size="11.00">ResultAggregator</text>
</g>
<!-- \\OntologyWrapper\\Term -->
<g id="node33" class="node"><title>\\OntologyWrapper\\Term</title>
<polygon fill="none" stroke="black" points="751.186,-528 697.186,-528 697.186,-492 751.186,-492 751.186,-528"/>
<text text-anchor="middle" x="724.186" y="-506.7" font-family="Times,serif" font-size="11.00">Term</text>
</g>
<!-- \\OntologyWrapper\\Term&#45;&gt;\\OntologyWrapper\\PersistentObject -->
<g id="edge10" class="edge"><title>\\OntologyWrapper\\Term&#45;&gt;\\OntologyWrapper\\PersistentObject</title>
<path fill="none" stroke="black" d="M696.902,-496.986C672.29,-484.799 634.98,-466.326 605.462,-451.71"/>
<polygon fill="none" stroke="black" points="606.692,-448.414 596.178,-447.113 603.586,-454.687 606.692,-448.414"/>
</g>
<!-- \\OntologyWrapper\\ContainerObject -->
<g id="node34" class="node"><title>\\OntologyWrapper\\ContainerObject</title>
<polygon fill="none" stroke="black" points="274.066,-352 185.67,-352 185.67,-316 274.066,-316 274.066,-352"/>
<text text-anchor="middle" x="229.868" y="-330.7" font-family="Times,serif" font-size="11.00">ContainerObject</text>
</g>
<!-- \\ArrayObject -->
<g id="node55" class="node"><title>\\ArrayObject</title>
<ellipse fill="none" stroke="black" cx="56.7596" cy="-334" rx="56.5201" ry="18"/>
<text text-anchor="middle" x="56.7596" y="-329.8" font-family="Times,serif" font-size="14.00" fill="gray">\ArrayObject</text>
</g>
<!-- \\OntologyWrapper\\ContainerObject&#45;&gt;\\ArrayObject -->
<g id="edge11" class="edge"><title>\\OntologyWrapper\\ContainerObject&#45;&gt;\\ArrayObject</title>
<path fill="none" stroke="black" d="M185.247,-334C166.613,-334 144.452,-334 123.875,-334"/>
<polygon fill="none" stroke="black" points="123.606,-330.5 113.606,-334 123.606,-337.5 123.606,-330.5"/>
</g>
<!-- \\OntologyWrapper\\MongoDatabase -->
<g id="node35" class="node"><title>\\OntologyWrapper\\MongoDatabase</title>
<polygon fill="none" stroke="black" points="934.764,-258 846.582,-258 846.582,-222 934.764,-222 934.764,-258"/>
<text text-anchor="middle" x="890.673" y="-236.7" font-family="Times,serif" font-size="11.00">MongoDatabase</text>
</g>
<!-- \\OntologyWrapper\\MongoDatabase&#45;&gt;\\OntologyWrapper\\DatabaseObject -->
<g id="edge12" class="edge"><title>\\OntologyWrapper\\MongoDatabase&#45;&gt;\\OntologyWrapper\\DatabaseObject</title>
<path fill="none" stroke="black" d="M846.456,-240C825.256,-240 799.552,-240 777.274,-240"/>
<polygon fill="none" stroke="black" points="776.979,-236.5 766.979,-240 776.979,-243.5 776.979,-236.5"/>
</g>
<!-- \\OntologyWrapper\\OntologyObject -->
<g id="node49" class="node"><title>\\OntologyWrapper\\OntologyObject</title>
<polygon fill="none" stroke="black" points="435.774,-352 349.02,-352 349.02,-316 435.774,-316 435.774,-352"/>
<text text-anchor="start" x="369.796" y="-336.2" font-family="Times,serif" font-size="11.00">«abstract»</text>
<text text-anchor="start" x="356.959" y="-325.2" font-family="Times,serif" font-size="11.00">OntologyObject</text>
</g>
<!-- \\OntologyWrapper\\ConnectionObject&#45;&gt;\\OntologyWrapper\\OntologyObject -->
<g id="edge13" class="edge"><title>\\OntologyWrapper\\ConnectionObject&#45;&gt;\\OntologyWrapper\\OntologyObject</title>
<path fill="none" stroke="black" d="M513.161,-285.131C492.229,-293.672 467.127,-303.915 445.324,-312.812"/>
<polygon fill="none" stroke="black" points="443.822,-309.644 435.885,-316.663 446.466,-316.126 443.822,-309.644"/>
</g>
<!-- \\OntologyWrapper\\Individual -->
<g id="node37" class="node"><title>\\OntologyWrapper\\Individual</title>
<polygon fill="none" stroke="black" points="1081.14,-339 1019.72,-339 1019.72,-303 1081.14,-303 1081.14,-339"/>
<text text-anchor="middle" x="1050.43" y="-317.7" font-family="Times,serif" font-size="11.00">Individual</text>
</g>
<!-- \\OntologyWrapper\\Individual&#45;&gt;\\OntologyWrapper\\EntityObject -->
<g id="edge14" class="edge"><title>\\OntologyWrapper\\Individual&#45;&gt;\\OntologyWrapper\\EntityObject</title>
<path fill="none" stroke="black" d="M1019.76,-331.157C996.307,-339.184 963.196,-350.518 936.514,-359.651"/>
<polygon fill="none" stroke="black" points="935.332,-356.356 927.005,-362.906 937.599,-362.979 935.332,-356.356"/>
</g>
<!-- \\OntologyWrapper\\PersistentObject&#45;&gt;\\OntologyWrapper\\OntologyObject -->
<g id="edge15" class="edge"><title>\\OntologyWrapper\\PersistentObject&#45;&gt;\\OntologyWrapper\\OntologyObject</title>
<path fill="none" stroke="black" d="M526.324,-410.908C499.96,-395.654 462.068,-373.731 433.48,-357.191"/>
<polygon fill="none" stroke="black" points="434.96,-354.004 424.552,-352.025 431.455,-360.062 434.96,-354.004"/>
</g>
<!-- \\OntologyWrapper\\MongoIterator -->
<g id="node39" class="node"><title>\\OntologyWrapper\\MongoIterator</title>
<polygon fill="none" stroke="black" points="1259.81,-150 1179.52,-150 1179.52,-114 1259.81,-114 1259.81,-150"/>
<text text-anchor="middle" x="1219.67" y="-128.7" font-family="Times,serif" font-size="11.00">MongoIterator</text>
</g>
<!-- \\OntologyWrapper\\MongoIterator&#45;&gt;\\OntologyWrapper\\IteratorObject -->
<g id="edge16" class="edge"><title>\\OntologyWrapper\\MongoIterator&#45;&gt;\\OntologyWrapper\\IteratorObject</title>
<path fill="none" stroke="black" d="M1179.46,-132C1155.53,-132 1124.77,-132 1099.39,-132"/>
<polygon fill="none" stroke="black" points="1099.24,-128.5 1089.24,-132 1099.24,-135.5 1099.24,-128.5"/>
</g>
<!-- \\OntologyWrapper\\Institution -->
<g id="node40" class="node"><title>\\OntologyWrapper\\Institution</title>
<polygon fill="none" stroke="black" points="1081.16,-393 1019.7,-393 1019.7,-357 1081.16,-357 1081.16,-393"/>
<text text-anchor="middle" x="1050.43" y="-371.7" font-family="Times,serif" font-size="11.00">Institution</text>
</g>
<!-- \\OntologyWrapper\\Institution&#45;&gt;\\OntologyWrapper\\EntityObject -->
<g id="edge17" class="edge"><title>\\OntologyWrapper\\Institution&#45;&gt;\\OntologyWrapper\\EntityObject</title>
<path fill="none" stroke="black" d="M1019.76,-375C996.513,-375 963.776,-375 937.218,-375"/>
<polygon fill="none" stroke="black" points="937.005,-371.5 927.005,-375 937.005,-378.5 937.005,-371.5"/>
</g>
<!-- \\OntologyWrapper\\DictionaryObject&#45;&gt;\\OntologyWrapper\\ContainerObject -->
<g id="edge18" class="edge"><title>\\OntologyWrapper\\DictionaryObject&#45;&gt;\\OntologyWrapper\\ContainerObject</title>
<path fill="none" stroke="black" d="M376.005,-504.878C347.359,-471.151 285.785,-398.657 252.797,-359.818"/>
<polygon fill="none" stroke="black" points="255.355,-357.423 246.214,-352.067 250.02,-361.955 255.355,-357.423"/>
</g>
<!-- \\OntologyWrapper\\Node -->
<g id="node42" class="node"><title>\\OntologyWrapper\\Node</title>
<polygon fill="none" stroke="black" points="751.186,-474 697.186,-474 697.186,-438 751.186,-438 751.186,-474"/>
<text text-anchor="middle" x="724.186" y="-452.7" font-family="Times,serif" font-size="11.00">Node</text>
</g>
<!-- \\OntologyWrapper\\Node&#45;&gt;\\OntologyWrapper\\PersistentObject -->
<g id="edge19" class="edge"><title>\\OntologyWrapper\\Node&#45;&gt;\\OntologyWrapper\\PersistentObject</title>
<path fill="none" stroke="black" d="M696.902,-451.662C674.298,-447.931 640.986,-442.433 612.834,-437.787"/>
<polygon fill="none" stroke="black" points="613.162,-434.294 602.725,-436.118 612.022,-441.2 613.162,-434.294"/>
</g>
<!-- \\OntologyWrapper\\UnitObject&#45;&gt;\\OntologyWrapper\\PersistentObject -->
<g id="edge20" class="edge"><title>\\OntologyWrapper\\UnitObject&#45;&gt;\\OntologyWrapper\\PersistentObject</title>
<path fill="none" stroke="black" d="M691.644,-407.206C669.349,-410.886 638.922,-415.907 612.894,-420.203"/>
<polygon fill="none" stroke="black" points="612.087,-416.789 602.791,-421.871 613.227,-423.696 612.087,-416.789"/>
</g>
<!-- \\OntologyWrapper\\ServerObject&#45;&gt;\\OntologyWrapper\\ConnectionObject -->
<g id="edge21" class="edge"><title>\\OntologyWrapper\\ServerObject&#45;&gt;\\OntologyWrapper\\ConnectionObject</title>
<path fill="none" stroke="black" d="M686.88,-288.008C666.298,-284.611 640.083,-280.284 616.799,-276.441"/>
<polygon fill="none" stroke="black" points="617.119,-272.947 606.683,-274.772 615.979,-279.853 617.119,-272.947"/>
</g>
<!-- \\OntologyWrapper\\CollectionObject -->
<g id="node45" class="node"><title>\\OntologyWrapper\\CollectionObject</title>
<polygon fill="none" stroke="black" points="769.833,-204 678.539,-204 678.539,-168 769.833,-168 769.833,-204"/>
<text text-anchor="start" x="701.584" y="-188.2" font-family="Times,serif" font-size="11.00">«abstract»</text>
<text text-anchor="start" x="686.612" y="-177.2" font-family="Times,serif" font-size="11.00">CollectionObject</text>
</g>
<!-- \\OntologyWrapper\\CollectionObject&#45;&gt;\\OntologyWrapper\\ConnectionObject -->
<g id="edge22" class="edge"><title>\\OntologyWrapper\\CollectionObject&#45;&gt;\\OntologyWrapper\\ConnectionObject</title>
<path fill="none" stroke="black" d="M686.473,-204.178C662.478,-216.059 630.955,-231.667 605.333,-244.353"/>
<polygon fill="none" stroke="black" points="603.594,-241.309 596.185,-248.883 606.7,-247.582 603.594,-241.309"/>
</g>
<!-- \\OntologyWrapper\\FAOInstitute -->
<g id="node46" class="node"><title>\\OntologyWrapper\\FAOInstitute</title>
<polygon fill="none" stroke="black" points="1256.41,-204 1182.92,-204 1182.92,-168 1256.41,-168 1256.41,-204"/>
<text text-anchor="middle" x="1219.67" y="-182.7" font-family="Times,serif" font-size="11.00">FAOInstitute</text>
</g>
<!-- \\OntologyWrapper\\FAOInstitute&#45;&gt;\\OntologyWrapper\\Institution -->
<g id="edge23" class="edge"><title>\\OntologyWrapper\\FAOInstitute&#45;&gt;\\OntologyWrapper\\Institution</title>
<path fill="none" stroke="black" d="M1182.97,-195.33C1172.45,-199.417 1161.55,-205.132 1153.27,-213 1105.14,-258.737 1131.89,-297.081 1089.27,-348 1088.79,-348.58 1088.29,-349.154 1087.77,-349.721"/>
<polygon fill="none" stroke="black" points="1085.28,-347.258 1080.48,-356.699 1090.12,-352.318 1085.28,-347.258"/>
</g>
<!-- \\OntologyWrapper\\MongoCollection -->
<g id="node47" class="node"><title>\\OntologyWrapper\\MongoCollection</title>
<polygon fill="none" stroke="black" points="937.281,-204 844.065,-204 844.065,-168 937.281,-168 937.281,-204"/>
<text text-anchor="middle" x="890.673" y="-182.7" font-family="Times,serif" font-size="11.00">MongoCollection</text>
</g>
<!-- \\OntologyWrapper\\MongoCollection&#45;&gt;\\OntologyWrapper\\CollectionObject -->
<g id="edge24" class="edge"><title>\\OntologyWrapper\\MongoCollection&#45;&gt;\\OntologyWrapper\\CollectionObject</title>
<path fill="none" stroke="black" d="M843.854,-186C824.093,-186 800.817,-186 780.137,-186"/>
<polygon fill="none" stroke="black" points="779.907,-182.5 769.907,-186 779.907,-189.5 779.907,-182.5"/>
</g>
<!-- \\OntologyWrapper\\Edge -->
<g id="node48" class="node"><title>\\OntologyWrapper\\Edge</title>
<polygon fill="none" stroke="black" points="751.186,-366 697.186,-366 697.186,-330 751.186,-330 751.186,-366"/>
<text text-anchor="middle" x="724.186" y="-344.7" font-family="Times,serif" font-size="11.00">Edge</text>
</g>
<!-- \\OntologyWrapper\\Edge&#45;&gt;\\OntologyWrapper\\PersistentObject -->
<g id="edge25" class="edge"><title>\\OntologyWrapper\\Edge&#45;&gt;\\OntologyWrapper\\PersistentObject</title>
<path fill="none" stroke="black" d="M696.902,-361.014C672.29,-373.201 634.98,-391.674 605.462,-406.29"/>
<polygon fill="none" stroke="black" points="603.586,-403.313 596.178,-410.887 606.692,-409.586 603.586,-403.313"/>
</g>
<!-- \\OntologyWrapper\\OntologyObject&#45;&gt;\\OntologyWrapper\\ContainerObject -->
<g id="edge26" class="edge"><title>\\OntologyWrapper\\OntologyObject&#45;&gt;\\OntologyWrapper\\ContainerObject</title>
<path fill="none" stroke="black" d="M348.8,-334C329.004,-334 305.254,-334 284.272,-334"/>
<polygon fill="none" stroke="black" points="284.224,-330.5 274.224,-334 284.224,-337.5 284.224,-330.5"/>
</g>
<!-- \\OntologyWrapper\\Neo4jGraph -->
<g id="node50" class="node"><title>\\OntologyWrapper\\Neo4jGraph</title>
<polygon fill="none" stroke="black" points="926.045,-150 855.3,-150 855.3,-114 926.045,-114 926.045,-150"/>
<text text-anchor="middle" x="890.673" y="-128.7" font-family="Times,serif" font-size="11.00">Neo4jGraph</text>
</g>
<!-- \\OntologyWrapper\\Neo4jGraph&#45;&gt;\\OntologyWrapper\\DatabaseGraph -->
<g id="edge27" class="edge"><title>\\OntologyWrapper\\Neo4jGraph&#45;&gt;\\OntologyWrapper\\DatabaseGraph</title>
<path fill="none" stroke="black" d="M855.191,-132C832.339,-132 801.958,-132 776.313,-132"/>
<polygon fill="none" stroke="black" points="776.014,-128.5 766.014,-132 776.014,-135.5 776.014,-128.5"/>
</g>
<!-- \\OntologyWrapper\\Service -->
<g id="node51" class="node"><title>\\OntologyWrapper\\Service</title>
<polygon fill="none" stroke="black" points="585.595,-231 531.595,-231 531.595,-195 585.595,-195 585.595,-231"/>
<text text-anchor="middle" x="558.595" y="-209.7" font-family="Times,serif" font-size="11.00">Service</text>
</g>
<!-- \\OntologyWrapper\\ServiceObject -->
<g id="node52" class="node"><title>\\OntologyWrapper\\ServiceObject</title>
<polygon fill="none" stroke="black" points="431.703,-298 353.092,-298 353.092,-262 431.703,-262 431.703,-298"/>
<text text-anchor="start" x="369.796" y="-282.2" font-family="Times,serif" font-size="11.00">«abstract»</text>
<text text-anchor="start" x="361.245" y="-271.2" font-family="Times,serif" font-size="11.00">ServiceObject</text>
</g>
<!-- \\OntologyWrapper\\Service&#45;&gt;\\OntologyWrapper\\ServiceObject -->
<g id="edge28" class="edge"><title>\\OntologyWrapper\\Service&#45;&gt;\\OntologyWrapper\\ServiceObject</title>
<path fill="none" stroke="black" d="M531.577,-223.616C507.343,-233.505 470.62,-248.49 441.122,-260.526"/>
<polygon fill="none" stroke="black" points="439.76,-257.302 431.824,-264.32 442.405,-263.783 439.76,-257.302"/>
</g>
<!-- \\OntologyWrapper\\ServiceObject&#45;&gt;\\OntologyWrapper\\ContainerObject -->
<g id="edge29" class="edge"><title>\\OntologyWrapper\\ServiceObject&#45;&gt;\\OntologyWrapper\\ContainerObject</title>
<path fill="none" stroke="black" d="M352.947,-292.934C332.262,-299.892 306.437,-308.58 283.874,-316.17"/>
<polygon fill="none" stroke="black" points="282.46,-312.952 274.098,-319.458 284.692,-319.587 282.46,-312.952"/>
</g>
</g>
</svg>
