<?xml version="1.0" encoding="UTF-8" standalone="no"?>
<!DOCTYPE svg PUBLIC "-//W3C//DTD SVG 1.1//EN"
 "http://www.w3.org/Graphics/SVG/1.1/DTD/svg11.dtd">
<!-- Generated by graphviz version 2.36.0 (20140111.2315)
 -->
<!-- Title: G Pages: 1 -->
<svg width="1342pt" height="1651pt"
 viewBox="0.00 0.00 1342.00 1651.00" xmlns="http://www.w3.org/2000/svg" xmlns:xlink="http://www.w3.org/1999/xlink">
<g id="graph0" class="graph" transform="scale(1 1) rotate(0) translate(4 1647)">
<title>G</title>
<polygon fill="white" stroke="none" points="-4,4 -4,-1647 1338,-1647 1338,4 -4,4"/>
<g id="clust1" class="cluster"><title>cluster_Global</title>
<path fill="none" stroke="gray" d="M182,-98C182,-98 1314,-98 1314,-98 1320,-98 1326,-104 1326,-110 1326,-110 1326,-1623 1326,-1623 1326,-1629 1320,-1635 1314,-1635 1314,-1635 182,-1635 182,-1635 176,-1635 170,-1629 170,-1623 170,-1623 170,-110 170,-110 170,-104 176,-98 182,-98"/>
<text text-anchor="middle" x="748" y="-1622.2" font-family="Times,serif" font-size="11.00" fill="gray">Global</text>
</g>
<g id="clust2" class="cluster"><title>cluster_\OntologyWrapper</title>
<path fill="none" stroke="gray" d="M190,-106C190,-106 1306,-106 1306,-106 1312,-106 1318,-112 1318,-118 1318,-118 1318,-1596 1318,-1596 1318,-1602 1312,-1608 1306,-1608 1306,-1608 190,-1608 190,-1608 184,-1608 178,-1602 178,-1596 178,-1596 178,-118 178,-118 178,-112 184,-106 190,-106"/>
<text text-anchor="middle" x="748" y="-1595.2" font-family="Times,serif" font-size="11.00" fill="gray">OntologyWrapper</text>
</g>
<g id="clust3" class="cluster"><title>cluster_\OntologyWrapper\traits</title>
<path fill="none" stroke="gray" d="M1188,-376C1188,-376 1298,-376 1298,-376 1304,-376 1310,-382 1310,-388 1310,-388 1310,-1569 1310,-1569 1310,-1575 1304,-1581 1298,-1581 1298,-1581 1188,-1581 1188,-1581 1182,-1581 1176,-1575 1176,-1569 1176,-1569 1176,-388 1176,-388 1176,-382 1182,-376 1188,-376"/>
<text text-anchor="middle" x="1243" y="-1568.2" font-family="Times,serif" font-size="11.00" fill="gray">traits</text>
</g>
<!-- \\OntologyWrapper\\traits\\Label -->
<g id="node1" class="node"><title>\\OntologyWrapper\\traits\\Label</title>
<polygon fill="none" stroke="black" points="1270,-1554 1216,-1554 1216,-1518 1270,-1518 1270,-1554"/>
<text text-anchor="middle" x="1243" y="-1532.7" font-family="Times,serif" font-size="11.00">Label</text>
</g>
<!-- \\OntologyWrapper\\traits\\EntityPhone -->
<g id="node2" class="node"><title>\\OntologyWrapper\\traits\\EntityPhone</title>
<polygon fill="none" stroke="black" points="1278.39,-1500 1207.61,-1500 1207.61,-1464 1278.39,-1464 1278.39,-1500"/>
<text text-anchor="middle" x="1243" y="-1478.7" font-family="Times,serif" font-size="11.00">EntityPhone</text>
</g>
<!-- \\OntologyWrapper\\traits\\MemcachedDictionary -->
<g id="node3" class="node"><title>\\OntologyWrapper\\traits\\MemcachedDictionary</title>
<polygon fill="none" stroke="black" points="1301.29,-1446 1184.71,-1446 1184.71,-1410 1301.29,-1410 1301.29,-1446"/>
<text text-anchor="middle" x="1243" y="-1424.7" font-family="Times,serif" font-size="11.00">MemcachedDictionary</text>
</g>
<!-- \\OntologyWrapper\\traits\\AccessorOffset -->
<g id="node4" class="node"><title>\\OntologyWrapper\\traits\\AccessorOffset</title>
<polygon fill="none" stroke="black" points="1284.61,-1392 1201.39,-1392 1201.39,-1356 1284.61,-1356 1284.61,-1392"/>
<text text-anchor="middle" x="1243" y="-1370.7" font-family="Times,serif" font-size="11.00">AccessorOffset</text>
</g>
<!-- \\OntologyWrapper\\traits\\EntityMail -->
<g id="node5" class="node"><title>\\OntologyWrapper\\traits\\EntityMail</title>
<polygon fill="none" stroke="black" points="1274.66,-1338 1211.34,-1338 1211.34,-1302 1274.66,-1302 1274.66,-1338"/>
<text text-anchor="middle" x="1243" y="-1316.7" font-family="Times,serif" font-size="11.00">EntityMail</text>
</g>
<!-- \\OntologyWrapper\\traits\\Terms -->
<g id="node6" class="node"><title>\\OntologyWrapper\\traits\\Terms</title>
<polygon fill="none" stroke="black" points="1270,-1284 1216,-1284 1216,-1248 1270,-1248 1270,-1284"/>
<text text-anchor="middle" x="1243" y="-1262.7" font-family="Times,serif" font-size="11.00">Terms</text>
</g>
<!-- \\OntologyWrapper\\traits\\Definition -->
<g id="node7" class="node"><title>\\OntologyWrapper\\traits\\Definition</title>
<polygon fill="none" stroke="black" points="1273.11,-1230 1212.89,-1230 1212.89,-1194 1273.11,-1194 1273.11,-1230"/>
<text text-anchor="middle" x="1243" y="-1208.7" font-family="Times,serif" font-size="11.00">Definition</text>
</g>
<!-- \\OntologyWrapper\\traits\\EntityFax -->
<g id="node8" class="node"><title>\\OntologyWrapper\\traits\\EntityFax</title>
<polygon fill="none" stroke="black" points="1272.89,-1176 1213.11,-1176 1213.11,-1140 1272.89,-1140 1272.89,-1176"/>
<text text-anchor="middle" x="1243" y="-1154.7" font-family="Times,serif" font-size="11.00">EntityFax</text>
</g>
<!-- \\OntologyWrapper\\traits\\Description -->
<g id="node9" class="node"><title>\\OntologyWrapper\\traits\\Description</title>
<polygon fill="none" stroke="black" points="1276.82,-1122 1209.18,-1122 1209.18,-1086 1276.82,-1086 1276.82,-1122"/>
<text text-anchor="middle" x="1243" y="-1100.7" font-family="Times,serif" font-size="11.00">Description</text>
</g>
<!-- \\OntologyWrapper\\traits\\Category -->
<g id="node10" class="node"><title>\\OntologyWrapper\\traits\\Category</title>
<polygon fill="none" stroke="black" points="1271.32,-1068 1214.68,-1068 1214.68,-1032 1271.32,-1032 1271.32,-1068"/>
<text text-anchor="middle" x="1243" y="-1046.7" font-family="Times,serif" font-size="11.00">Category</text>
</g>
<!-- \\OntologyWrapper\\traits\\EntityKind -->
<g id="node11" class="node"><title>\\OntologyWrapper\\traits\\EntityKind</title>
<polygon fill="none" stroke="black" points="1275.39,-1014 1210.61,-1014 1210.61,-978 1275.39,-978 1275.39,-1014"/>
<text text-anchor="middle" x="1243" y="-992.7" font-family="Times,serif" font-size="11.00">EntityKind</text>
</g>
<!-- \\OntologyWrapper\\traits\\Synonym -->
<g id="node12" class="node"><title>\\OntologyWrapper\\traits\\Synonym</title>
<polygon fill="none" stroke="black" points="1272.17,-960 1213.83,-960 1213.83,-924 1272.17,-924 1272.17,-960"/>
<text text-anchor="middle" x="1243" y="-938.7" font-family="Times,serif" font-size="11.00">Synonym</text>
</g>
<!-- \\OntologyWrapper\\traits\\EntityAffiliation -->
<g id="node13" class="node"><title>\\OntologyWrapper\\traits\\EntityAffiliation</title>
<polygon fill="none" stroke="black" points="1287.22,-906 1198.78,-906 1198.78,-870 1287.22,-870 1287.22,-906"/>
<text text-anchor="middle" x="1243" y="-884.7" font-family="Times,serif" font-size="11.00">EntityAffiliation</text>
</g>
<!-- \\OntologyWrapper\\traits\\EntityType -->
<g id="node14" class="node"><title>\\OntologyWrapper\\traits\\EntityType</title>
<polygon fill="none" stroke="black" points="1275.22,-852 1210.78,-852 1210.78,-816 1275.22,-816 1275.22,-852"/>
<text text-anchor="middle" x="1243" y="-830.7" font-family="Times,serif" font-size="11.00">EntityType</text>
</g>
<!-- \\OntologyWrapper\\traits\\EntityEmail -->
<g id="node15" class="node"><title>\\OntologyWrapper\\traits\\EntityEmail</title>
<polygon fill="none" stroke="black" points="1277.66,-798 1208.34,-798 1208.34,-762 1277.66,-762 1277.66,-798"/>
<text text-anchor="middle" x="1243" y="-776.7" font-family="Times,serif" font-size="11.00">EntityEmail</text>
</g>
<!-- \\OntologyWrapper\\traits\\TermType -->
<g id="node16" class="node"><title>\\OntologyWrapper\\traits\\TermType</title>
<polygon fill="none" stroke="black" points="1273.39,-744 1212.61,-744 1212.61,-708 1273.39,-708 1273.39,-744"/>
<text text-anchor="middle" x="1243" y="-722.7" font-family="Times,serif" font-size="11.00">TermType</text>
</g>
<!-- \\OntologyWrapper\\traits\\AccessorProperty -->
<g id="node17" class="node"><title>\\OntologyWrapper\\traits\\AccessorProperty</title>
<polygon fill="none" stroke="black" points="1290.2,-690 1195.8,-690 1195.8,-654 1290.2,-654 1290.2,-690"/>
<text text-anchor="middle" x="1243" y="-668.7" font-family="Times,serif" font-size="11.00">AccessorProperty</text>
</g>
<!-- \\OntologyWrapper\\traits\\EntityLink -->
<g id="node18" class="node"><title>\\OntologyWrapper\\traits\\EntityLink</title>
<polygon fill="none" stroke="black" points="1274.66,-636 1211.34,-636 1211.34,-600 1274.66,-600 1274.66,-636"/>
<text text-anchor="middle" x="1243" y="-614.7" font-family="Times,serif" font-size="11.00">EntityLink</text>
</g>
<!-- \\OntologyWrapper\\traits\\Status -->
<g id="node19" class="node"><title>\\OntologyWrapper\\traits\\Status</title>
<polygon fill="none" stroke="black" points="1270,-582 1216,-582 1216,-546 1270,-546 1270,-582"/>
<text text-anchor="middle" x="1243" y="-560.7" font-family="Times,serif" font-size="11.00">Status</text>
</g>
<!-- \\OntologyWrapper\\traits\\NodeType -->
<g id="node20" class="node"><title>\\OntologyWrapper\\traits\\NodeType</title>
<polygon fill="none" stroke="black" points="1273.66,-528 1212.34,-528 1212.34,-492 1273.66,-492 1273.66,-528"/>
<text text-anchor="middle" x="1243" y="-506.7" font-family="Times,serif" font-size="11.00">NodeType</text>
</g>
<!-- \\OntologyWrapper\\traits\\DataKind -->
<g id="node21" class="node"><title>\\OntologyWrapper\\traits\\DataKind</title>
<polygon fill="none" stroke="black" points="1272.27,-474 1213.73,-474 1213.73,-438 1272.27,-438 1272.27,-474"/>
<text text-anchor="middle" x="1243" y="-452.7" font-family="Times,serif" font-size="11.00">DataKind</text>
</g>
<!-- \\OntologyWrapper\\traits\\EntityAcronym -->
<g id="node22" class="node"><title>\\OntologyWrapper\\traits\\EntityAcronym</title>
<polygon fill="none" stroke="black" points="1285.43,-420 1200.57,-420 1200.57,-384 1285.43,-384 1285.43,-420"/>
<text text-anchor="middle" x="1243" y="-398.7" font-family="Times,serif" font-size="11.00">EntityAcronym</text>
</g>
<!-- \\OntologyWrapper\\DatabaseObject -->
<g id="node23" class="node"><title>\\OntologyWrapper\\DatabaseObject</title>
<polygon fill="none" stroke="black" points="768.632,-150 683.368,-150 683.368,-114 768.632,-114 768.632,-150"/>
<text text-anchor="start" x="703.398" y="-134.2" font-family="Times,serif" font-size="11.00">«abstract»</text>
<text text-anchor="start" x="691.185" y="-123.2" font-family="Times,serif" font-size="11.00">DatabaseObject</text>
</g>
<!-- \\OntologyWrapper\\ConnectionObject -->
<g id="node33" class="node"><title>\\OntologyWrapper\\ConnectionObject</title>
<polygon fill="none" stroke="black" points="608.035,-258 511.965,-258 511.965,-222 608.035,-222 608.035,-258"/>
<text text-anchor="start" x="537.398" y="-242.2" font-family="Times,serif" font-size="11.00">«abstract»</text>
<text text-anchor="start" x="519.983" y="-231.2" font-family="Times,serif" font-size="11.00">ConnectionObject</text>
</g>
<!-- \\OntologyWrapper\\DatabaseObject&#45;&gt;\\OntologyWrapper\\ConnectionObject -->
<g id="edge1" class="edge"><title>\\OntologyWrapper\\DatabaseObject&#45;&gt;\\OntologyWrapper\\ConnectionObject</title>
<path fill="none" stroke="black" d="M694.355,-150.066C689.524,-153.007 684.605,-156.055 680,-159 650.936,-177.589 618.614,-199.684 594.999,-216.098"/>
<polygon fill="none" stroke="black" points="592.918,-213.282 586.715,-221.871 596.92,-219.025 592.918,-213.282"/>
</g>
<!-- \\OntologyWrapper\\DatabaseGraph -->
<g id="node24" class="node"><title>\\OntologyWrapper\\DatabaseGraph</title>
<polygon fill="none" stroke="black" points="767.8,-204 684.2,-204 684.2,-168 767.8,-168 767.8,-204"/>
<text text-anchor="start" x="703.398" y="-188.2" font-family="Times,serif" font-size="11.00">«abstract»</text>
<text text-anchor="start" x="692.1" y="-177.2" font-family="Times,serif" font-size="11.00">DatabaseGraph</text>
</g>
<!-- \\OntologyWrapper\\DatabaseGraph&#45;&gt;\\OntologyWrapper\\ConnectionObject -->
<g id="edge2" class="edge"><title>\\OntologyWrapper\\DatabaseGraph&#45;&gt;\\OntologyWrapper\\ConnectionObject</title>
<path fill="none" stroke="black" d="M684.039,-199.487C664.046,-206.07 639.669,-214.097 617.902,-221.264"/>
<polygon fill="none" stroke="black" points="616.514,-218.036 608.11,-224.488 618.703,-224.685 616.514,-218.036"/>
</g>
<!-- \\OntologyWrapper\\MongoServer -->
<g id="node25" class="node"><title>\\OntologyWrapper\\MongoServer</title>
<polygon fill="none" stroke="black" points="931.491,-258 854.509,-258 854.509,-222 931.491,-222 931.491,-258"/>
<text text-anchor="middle" x="893" y="-236.7" font-family="Times,serif" font-size="11.00">MongoServer</text>
</g>
<!-- \\OntologyWrapper\\ServerObject -->
<g id="node41" class="node"><title>\\OntologyWrapper\\ServerObject</title>
<polygon fill="none" stroke="black" points="763.029,-258 688.971,-258 688.971,-222 763.029,-222 763.029,-258"/>
<text text-anchor="start" x="703.398" y="-242.2" font-family="Times,serif" font-size="11.00">«abstract»</text>
<text text-anchor="start" x="696.985" y="-231.2" font-family="Times,serif" font-size="11.00">ServerObject</text>
</g>
<!-- \\OntologyWrapper\\MongoServer&#45;&gt;\\OntologyWrapper\\ServerObject -->
<g id="edge3" class="edge"><title>\\OntologyWrapper\\MongoServer&#45;&gt;\\OntologyWrapper\\ServerObject</title>
<path fill="none" stroke="black" d="M854.559,-240C830.491,-240 799.044,-240 773.395,-240"/>
<polygon fill="none" stroke="black" points="773.159,-236.5 763.159,-240 773.159,-243.5 773.159,-236.5"/>
</g>
<!-- \\OntologyWrapper\\EntityObject -->
<g id="node26" class="node"><title>\\OntologyWrapper\\EntityObject</title>
<polygon fill="none" stroke="black" points="929.209,-906 856.791,-906 856.791,-870 929.209,-870 929.209,-906"/>
<text text-anchor="start" x="870.398" y="-890.2" font-family="Times,serif" font-size="11.00">«abstract»</text>
<text text-anchor="start" x="864.896" y="-879.2" font-family="Times,serif" font-size="11.00">EntityObject</text>
</g>
<!-- \\OntologyWrapper\\UnitObject -->
<g id="node40" class="node"><title>\\OntologyWrapper\\UnitObject</title>
<polygon fill="none" stroke="black" points="758.377,-744 693.623,-744 693.623,-708 758.377,-708 758.377,-744"/>
<text text-anchor="start" x="703.398" y="-728.2" font-family="Times,serif" font-size="11.00">«abstract»</text>
<text text-anchor="start" x="701.562" y="-717.2" font-family="Times,serif" font-size="11.00">UnitObject</text>
</g>
<!-- \\OntologyWrapper\\EntityObject&#45;&gt;\\OntologyWrapper\\UnitObject -->
<g id="edge4" class="edge"><title>\\OntologyWrapper\\EntityObject&#45;&gt;\\OntologyWrapper\\UnitObject</title>
<path fill="none" stroke="black" d="M856.578,-870.654C852.111,-867.741 847.786,-864.51 844,-861 801.695,-821.779 813.751,-792.81 772,-753 770.393,-751.467 768.684,-749.982 766.907,-748.549"/>
<polygon fill="none" stroke="black" points="768.924,-745.688 758.786,-742.612 764.793,-751.339 768.924,-745.688"/>
</g>
<!-- \\OntologyWrapper\\Wrapper -->
<g id="node27" class="node"><title>\\OntologyWrapper\\Wrapper</title>
<polygon fill="none" stroke="black" points="753.038,-798 698.962,-798 698.962,-762 753.038,-762 753.038,-798"/>
<text text-anchor="middle" x="726" y="-776.7" font-family="Times,serif" font-size="11.00">Wrapper</text>
</g>
<!-- \\OntologyWrapper\\Dictionary -->
<g id="node29" class="node"><title>\\OntologyWrapper\\Dictionary</title>
<polygon fill="none" stroke="black" points="591.54,-784 528.46,-784 528.46,-748 591.54,-748 591.54,-784"/>
<text text-anchor="middle" x="560" y="-762.7" font-family="Times,serif" font-size="11.00">Dictionary</text>
</g>
<!-- \\OntologyWrapper\\Wrapper&#45;&gt;\\OntologyWrapper\\Dictionary -->
<g id="edge5" class="edge"><title>\\OntologyWrapper\\Wrapper&#45;&gt;\\OntologyWrapper\\Dictionary</title>
<path fill="none" stroke="black" d="M698.651,-777.751C672.57,-775.524 632.269,-772.084 602.002,-769.5"/>
<polygon fill="none" stroke="black" points="602.015,-765.989 591.754,-768.625 601.42,-772.963 602.015,-765.989"/>
</g>
<!-- \\OntologyWrapper\\Tag -->
<g id="node28" class="node"><title>\\OntologyWrapper\\Tag</title>
<polygon fill="none" stroke="black" points="920,-528 866,-528 866,-492 920,-492 920,-528"/>
<text text-anchor="middle" x="893" y="-506.7" font-family="Times,serif" font-size="11.00">Tag</text>
</g>
<!-- \\OntologyWrapper\\MetadataObject -->
<g id="node58" class="node"><title>\\OntologyWrapper\\MetadataObject</title>
<polygon fill="none" stroke="black" points="769.244,-474 682.756,-474 682.756,-438 769.244,-438 769.244,-474"/>
<text text-anchor="start" x="703.398" y="-458.2" font-family="Times,serif" font-size="11.00">«abstract»</text>
<text text-anchor="start" x="690.878" y="-447.2" font-family="Times,serif" font-size="11.00">MetadataObject</text>
</g>
<!-- \\OntologyWrapper\\Tag&#45;&gt;\\OntologyWrapper\\MetadataObject -->
<g id="edge6" class="edge"><title>\\OntologyWrapper\\Tag&#45;&gt;\\OntologyWrapper\\MetadataObject</title>
<path fill="none" stroke="black" d="M865.855,-501.444C842.588,-493.829 807.864,-482.465 778.962,-473.006"/>
<polygon fill="none" stroke="black" points="780.001,-469.663 769.409,-469.879 777.824,-476.316 780.001,-469.663"/>
</g>
<!-- \\OntologyWrapper\\DictionaryObject -->
<g id="node38" class="node"><title>\\OntologyWrapper\\DictionaryObject</title>
<polygon fill="none" stroke="black" points="440.362,-676 347.638,-676 347.638,-640 440.362,-640 440.362,-676"/>
<text text-anchor="start" x="371.398" y="-660.2" font-family="Times,serif" font-size="11.00">«abstract»</text>
<text text-anchor="start" x="355.82" y="-649.2" font-family="Times,serif" font-size="11.00">DictionaryObject</text>
</g>
<!-- \\OntologyWrapper\\Dictionary&#45;&gt;\\OntologyWrapper\\DictionaryObject -->
<g id="edge7" class="edge"><title>\\OntologyWrapper\\Dictionary&#45;&gt;\\OntologyWrapper\\DictionaryObject</title>
<path fill="none" stroke="black" d="M531.55,-747.923C503.997,-729.778 461.404,-701.729 431.121,-681.787"/>
<polygon fill="none" stroke="black" points="432.816,-678.713 422.539,-676.136 428.966,-684.559 432.816,-678.713"/>
</g>
<!-- \\OntologyWrapper\\Term -->
<g id="node30" class="node"><title>\\OntologyWrapper\\Term</title>
<polygon fill="none" stroke="black" points="920,-474 866,-474 866,-438 920,-438 920,-474"/>
<text text-anchor="middle" x="893" y="-452.7" font-family="Times,serif" font-size="11.00">Term</text>
</g>
<!-- \\OntologyWrapper\\Term&#45;&gt;\\OntologyWrapper\\MetadataObject -->
<g id="edge8" class="edge"><title>\\OntologyWrapper\\Term&#45;&gt;\\OntologyWrapper\\MetadataObject</title>
<path fill="none" stroke="black" d="M865.855,-456C842.79,-456 808.467,-456 779.717,-456"/>
<polygon fill="none" stroke="black" points="779.409,-452.5 769.409,-456 779.409,-459.5 779.409,-452.5"/>
</g>
<!-- \\OntologyWrapper\\ContainerObject -->
<g id="node31" class="node"><title>\\OntologyWrapper\\ContainerObject</title>
<polygon fill="none" stroke="black" points="275.198,-568 186.802,-568 186.802,-532 275.198,-532 275.198,-568"/>
<text text-anchor="middle" x="231" y="-546.7" font-family="Times,serif" font-size="11.00">ContainerObject</text>
</g>
<!-- \\ArrayObject -->
<g id="node64" class="node"><title>\\ArrayObject</title>
<ellipse fill="none" stroke="black" cx="57" cy="-550" rx="56.5201" ry="18"/>
<text text-anchor="middle" x="57" y="-545.8" font-family="Times,serif" font-size="14.00" fill="gray">\ArrayObject</text>
</g>
<!-- \\OntologyWrapper\\ContainerObject&#45;&gt;\\ArrayObject -->
<g id="edge9" class="edge"><title>\\OntologyWrapper\\ContainerObject&#45;&gt;\\ArrayObject</title>
<path fill="none" stroke="black" d="M186.597,-550C167.611,-550 144.919,-550 123.919,-550"/>
<polygon fill="none" stroke="black" points="123.769,-546.5 113.769,-550 123.769,-553.5 123.769,-546.5"/>
</g>
<!-- \\OntologyWrapper\\MongoDatabase -->
<g id="node32" class="node"><title>\\OntologyWrapper\\MongoDatabase</title>
<polygon fill="none" stroke="black" points="937.091,-150 848.909,-150 848.909,-114 937.091,-114 937.091,-150"/>
<text text-anchor="middle" x="893" y="-128.7" font-family="Times,serif" font-size="11.00">MongoDatabase</text>
</g>
<!-- \\OntologyWrapper\\MongoDatabase&#45;&gt;\\OntologyWrapper\\DatabaseObject -->
<g id="edge10" class="edge"><title>\\OntologyWrapper\\MongoDatabase&#45;&gt;\\OntologyWrapper\\DatabaseObject</title>
<path fill="none" stroke="black" d="M848.648,-132C827.203,-132 801.163,-132 778.687,-132"/>
<polygon fill="none" stroke="black" points="778.64,-128.5 768.64,-132 778.64,-135.5 778.64,-128.5"/>
</g>
<!-- \\OntologyWrapper\\OntologyObject -->
<g id="node46" class="node"><title>\\OntologyWrapper\\OntologyObject</title>
<polygon fill="none" stroke="black" points="437.377,-487 350.623,-487 350.623,-451 437.377,-451 437.377,-487"/>
<text text-anchor="start" x="371.398" y="-471.2" font-family="Times,serif" font-size="11.00">«abstract»</text>
<text text-anchor="start" x="358.562" y="-460.2" font-family="Times,serif" font-size="11.00">OntologyObject</text>
</g>
<!-- \\OntologyWrapper\\ConnectionObject&#45;&gt;\\OntologyWrapper\\OntologyObject -->
<g id="edge11" class="edge"><title>\\OntologyWrapper\\ConnectionObject&#45;&gt;\\OntologyWrapper\\OntologyObject</title>
<path fill="none" stroke="black" d="M545.856,-258.353C516.877,-298.819 447.403,-395.827 413.815,-442.728"/>
<polygon fill="none" stroke="black" points="410.955,-440.71 407.979,-450.878 416.647,-444.785 410.955,-440.71"/>
</g>
<!-- \\OntologyWrapper\\Individual -->
<g id="node34" class="node"><title>\\OntologyWrapper\\Individual</title>
<polygon fill="none" stroke="black" points="1093.71,-866 1032.29,-866 1032.29,-830 1093.71,-830 1093.71,-866"/>
<text text-anchor="middle" x="1063" y="-844.7" font-family="Times,serif" font-size="11.00">Individual</text>
</g>
<!-- \\OntologyWrapper\\Individual&#45;&gt;\\OntologyWrapper\\EntityObject -->
<g id="edge12" class="edge"><title>\\OntologyWrapper\\Individual&#45;&gt;\\OntologyWrapper\\EntityObject</title>
<path fill="none" stroke="black" d="M1032.35,-855.059C1006.57,-861.198 968.809,-870.188 939.249,-877.226"/>
<polygon fill="none" stroke="black" points="938.086,-873.905 929.169,-879.626 939.708,-880.715 938.086,-873.905"/>
</g>
<!-- \\OntologyWrapper\\PersistentObject -->
<g id="node35" class="node"><title>\\OntologyWrapper\\PersistentObject</title>
<polygon fill="none" stroke="black" points="604.096,-487 515.904,-487 515.904,-451 604.096,-451 604.096,-487"/>
<text text-anchor="start" x="537.398" y="-471.2" font-family="Times,serif" font-size="11.00">«abstract»</text>
<text text-anchor="start" x="523.952" y="-460.2" font-family="Times,serif" font-size="11.00">PersistentObject</text>
</g>
<!-- \\OntologyWrapper\\PersistentObject&#45;&gt;\\OntologyWrapper\\OntologyObject -->
<g id="edge13" class="edge"><title>\\OntologyWrapper\\PersistentObject&#45;&gt;\\OntologyWrapper\\OntologyObject</title>
<path fill="none" stroke="black" d="M515.911,-469C495.019,-469 469.741,-469 447.71,-469"/>
<polygon fill="none" stroke="black" points="447.517,-465.5 437.517,-469 447.517,-472.5 447.517,-465.5"/>
</g>
<!-- \\OntologyWrapper\\MongoIterator -->
<g id="node36" class="node"><title>\\OntologyWrapper\\MongoIterator</title>
<polygon fill="none" stroke="black" points="1283.15,-258 1202.85,-258 1202.85,-222 1283.15,-222 1283.15,-258"/>
<text text-anchor="middle" x="1243" y="-236.7" font-family="Times,serif" font-size="11.00">MongoIterator</text>
</g>
<!-- \\OntologyWrapper\\ObjectIterator -->
<g id="node60" class="node"><title>\\OntologyWrapper\\ObjectIterator</title>
<polygon fill="none" stroke="black" points="1101.69,-150 1024.31,-150 1024.31,-114 1101.69,-114 1101.69,-150"/>
<text text-anchor="start" x="1040.4" y="-134.2" font-family="Times,serif" font-size="11.00">«abstract»</text>
<text text-anchor="start" x="1032.16" y="-123.2" font-family="Times,serif" font-size="11.00">ObjectIterator</text>
</g>
<!-- \\OntologyWrapper\\MongoIterator&#45;&gt;\\OntologyWrapper\\ObjectIterator -->
<g id="edge14" class="edge"><title>\\OntologyWrapper\\MongoIterator&#45;&gt;\\OntologyWrapper\\ObjectIterator</title>
<path fill="none" stroke="black" d="M1202.89,-225.795C1193.86,-222.03 1184.44,-217.691 1176,-213 1146.43,-196.566 1115.46,-173.665 1093.6,-156.406"/>
<polygon fill="none" stroke="black" points="1095.69,-153.595 1085.69,-150.092 1091.32,-159.066 1095.69,-153.595"/>
</g>
<!-- \\OntologyWrapper\\Institution -->
<g id="node37" class="node"><title>\\OntologyWrapper\\Institution</title>
<polygon fill="none" stroke="black" points="1093.73,-731 1032.27,-731 1032.27,-695 1093.73,-695 1093.73,-731"/>
<text text-anchor="middle" x="1063" y="-709.7" font-family="Times,serif" font-size="11.00">Institution</text>
</g>
<!-- \\OntologyWrapper\\Institution&#45;&gt;\\OntologyWrapper\\EntityObject -->
<g id="edge15" class="edge"><title>\\OntologyWrapper\\Institution&#45;&gt;\\OntologyWrapper\\EntityObject</title>
<path fill="none" stroke="black" d="M1050.54,-731.245C1031.06,-761.171 989.021,-821.319 942,-861 940.52,-862.249 938.974,-863.469 937.382,-864.657"/>
<polygon fill="none" stroke="black" points="935.394,-861.777 929.124,-870.317 939.351,-867.551 935.394,-861.777"/>
</g>
<!-- \\OntologyWrapper\\DictionaryObject&#45;&gt;\\OntologyWrapper\\ContainerObject -->
<g id="edge16" class="edge"><title>\\OntologyWrapper\\DictionaryObject&#45;&gt;\\OntologyWrapper\\ContainerObject</title>
<path fill="none" stroke="black" d="M366.052,-639.923C339.003,-621.778 297.189,-593.729 267.46,-573.787"/>
<polygon fill="none" stroke="black" points="269.29,-570.8 259.036,-568.136 265.391,-576.613 269.29,-570.8"/>
</g>
<!-- \\OntologyWrapper\\Node -->
<g id="node39" class="node"><title>\\OntologyWrapper\\Node</title>
<polygon fill="none" stroke="black" points="920,-420 866,-420 866,-384 920,-384 920,-420"/>
<text text-anchor="middle" x="893" y="-398.7" font-family="Times,serif" font-size="11.00">Node</text>
</g>
<!-- \\OntologyWrapper\\Node&#45;&gt;\\OntologyWrapper\\MetadataObject -->
<g id="edge17" class="edge"><title>\\OntologyWrapper\\Node&#45;&gt;\\OntologyWrapper\\MetadataObject</title>
<path fill="none" stroke="black" d="M865.855,-410.556C842.588,-418.171 807.864,-429.535 778.962,-438.994"/>
<polygon fill="none" stroke="black" points="777.824,-435.684 769.409,-442.121 780.001,-442.337 777.824,-435.684"/>
</g>
<!-- \\OntologyWrapper\\UnitObject&#45;&gt;\\OntologyWrapper\\PersistentObject -->
<g id="edge18" class="edge"><title>\\OntologyWrapper\\UnitObject&#45;&gt;\\OntologyWrapper\\PersistentObject</title>
<path fill="none" stroke="black" d="M713.468,-707.928C685.062,-663.414 611.601,-548.295 578.103,-495.801"/>
<polygon fill="none" stroke="black" points="580.849,-493.599 572.519,-487.052 574.948,-497.364 580.849,-493.599"/>
</g>
<!-- \\OntologyWrapper\\ServerObject&#45;&gt;\\OntologyWrapper\\ConnectionObject -->
<g id="edge19" class="edge"><title>\\OntologyWrapper\\ServerObject&#45;&gt;\\OntologyWrapper\\ConnectionObject</title>
<path fill="none" stroke="black" d="M688.603,-240C667.97,-240 641.689,-240 618.347,-240"/>
<polygon fill="none" stroke="black" points="618.205,-236.5 608.205,-240 618.205,-243.5 618.205,-236.5"/>
</g>
<!-- \\OntologyWrapper\\CollectionObject -->
<g id="node42" class="node"><title>\\OntologyWrapper\\CollectionObject</title>
<polygon fill="none" stroke="black" points="771.647,-312 680.353,-312 680.353,-276 771.647,-276 771.647,-312"/>
<text text-anchor="start" x="703.398" y="-296.2" font-family="Times,serif" font-size="11.00">«abstract»</text>
<text text-anchor="start" x="688.427" y="-285.2" font-family="Times,serif" font-size="11.00">CollectionObject</text>
</g>
<!-- \\OntologyWrapper\\CollectionObject&#45;&gt;\\OntologyWrapper\\ConnectionObject -->
<g id="edge20" class="edge"><title>\\OntologyWrapper\\CollectionObject&#45;&gt;\\OntologyWrapper\\ConnectionObject</title>
<path fill="none" stroke="black" d="M680.186,-279.244C660.864,-272.882 638.048,-265.369 617.577,-258.629"/>
<polygon fill="none" stroke="black" points="618.644,-255.295 608.051,-255.492 616.454,-261.944 618.644,-255.295"/>
</g>
<!-- \\OntologyWrapper\\FAOInstitute -->
<g id="node43" class="node"><title>\\OntologyWrapper\\FAOInstitute</title>
<polygon fill="none" stroke="black" points="1279.75,-312 1206.25,-312 1206.25,-276 1279.75,-276 1279.75,-312"/>
<text text-anchor="middle" x="1243" y="-290.7" font-family="Times,serif" font-size="11.00">FAOInstitute</text>
</g>
<!-- \\OntologyWrapper\\FAOInstitute&#45;&gt;\\OntologyWrapper\\Institution -->
<g id="edge21" class="edge"><title>\\OntologyWrapper\\FAOInstitute&#45;&gt;\\OntologyWrapper\\Institution</title>
<path fill="none" stroke="black" d="M1206.08,-301.579C1194.96,-305.607 1183.63,-311.729 1176,-321 1082.71,-434.322 1169.81,-510.083 1112,-645 1105.57,-660.001 1095.47,-675 1086.19,-687.08"/>
<polygon fill="none" stroke="black" points="1083.43,-684.932 1079.96,-694.941 1088.91,-689.284 1083.43,-684.932"/>
</g>
<!-- \\OntologyWrapper\\MongoCollection -->
<g id="node44" class="node"><title>\\OntologyWrapper\\MongoCollection</title>
<polygon fill="none" stroke="black" points="939.608,-312 846.392,-312 846.392,-276 939.608,-276 939.608,-312"/>
<text text-anchor="middle" x="893" y="-290.7" font-family="Times,serif" font-size="11.00">MongoCollection</text>
</g>
<!-- \\OntologyWrapper\\MongoCollection&#45;&gt;\\OntologyWrapper\\CollectionObject -->
<g id="edge22" class="edge"><title>\\OntologyWrapper\\MongoCollection&#45;&gt;\\OntologyWrapper\\CollectionObject</title>
<path fill="none" stroke="black" d="M846.038,-294C826.043,-294 802.46,-294 781.581,-294"/>
<polygon fill="none" stroke="black" points="781.577,-290.5 771.577,-294 781.577,-297.5 781.577,-290.5"/>
</g>
<!-- \\OntologyWrapper\\Edge -->
<g id="node45" class="node"><title>\\OntologyWrapper\\Edge</title>
<polygon fill="none" stroke="black" points="920,-366 866,-366 866,-330 920,-330 920,-366"/>
<text text-anchor="middle" x="893" y="-344.7" font-family="Times,serif" font-size="11.00">Edge</text>
</g>
<!-- \\OntologyWrapper\\Edge&#45;&gt;\\OntologyWrapper\\MetadataObject -->
<g id="edge23" class="edge"><title>\\OntologyWrapper\\Edge&#45;&gt;\\OntologyWrapper\\MetadataObject</title>
<path fill="none" stroke="black" d="M865.834,-362.137C858.676,-366.162 850.971,-370.639 844,-375 815.027,-393.123 783.204,-415.31 760.07,-431.878"/>
<polygon fill="none" stroke="black" points="757.728,-429.252 751.654,-437.933 761.815,-434.935 757.728,-429.252"/>
</g>
<!-- \\OntologyWrapper\\OntologyObject&#45;&gt;\\OntologyWrapper\\ContainerObject -->
<g id="edge24" class="edge"><title>\\OntologyWrapper\\OntologyObject&#45;&gt;\\OntologyWrapper\\ContainerObject</title>
<path fill="none" stroke="black" d="M356.868,-487.178C333.253,-499.059 302.23,-514.667 277.014,-527.353"/>
<polygon fill="none" stroke="black" points="275.371,-524.262 268.011,-531.883 278.517,-530.515 275.371,-524.262"/>
</g>
<!-- \\OntologyWrapper\\Service -->
<g id="node47" class="node"><title>\\OntologyWrapper\\Service</title>
<polygon fill="none" stroke="black" points="421,-568 367,-568 367,-532 421,-532 421,-568"/>
<text text-anchor="middle" x="394" y="-546.7" font-family="Times,serif" font-size="11.00">Service</text>
</g>
<!-- \\OntologyWrapper\\Service&#45;&gt;\\OntologyWrapper\\ContainerObject -->
<g id="edge25" class="edge"><title>\\OntologyWrapper\\Service&#45;&gt;\\OntologyWrapper\\ContainerObject</title>
<path fill="none" stroke="black" d="M366.774,-550C344.809,-550 312.754,-550 285.415,-550"/>
<polygon fill="none" stroke="black" points="285.2,-546.5 275.2,-550 285.2,-553.5 285.2,-546.5"/>
</g>
<!-- \\OntologyWrapper\\Neo4jGraph -->
<g id="node48" class="node"><title>\\OntologyWrapper\\Neo4jGraph</title>
<polygon fill="none" stroke="black" points="928.373,-204 857.627,-204 857.627,-168 928.373,-168 928.373,-204"/>
<text text-anchor="middle" x="893" y="-182.7" font-family="Times,serif" font-size="11.00">Neo4jGraph</text>
</g>
<!-- \\OntologyWrapper\\Neo4jGraph&#45;&gt;\\OntologyWrapper\\DatabaseGraph -->
<g id="edge26" class="edge"><title>\\OntologyWrapper\\Neo4jGraph&#45;&gt;\\OntologyWrapper\\DatabaseGraph</title>
<path fill="none" stroke="black" d="M857.812,-186C834.729,-186 803.855,-186 777.898,-186"/>
<polygon fill="none" stroke="black" points="777.851,-182.5 767.851,-186 777.851,-189.5 777.851,-182.5"/>
</g>
<!-- \\OntologyWrapper\\Accession -->
<g id="node49" class="node"><title>\\OntologyWrapper\\Accession</title>
<polygon fill="none" stroke="black" points="923.709,-582 862.291,-582 862.291,-546 923.709,-546 923.709,-582"/>
<text text-anchor="middle" x="893" y="-560.7" font-family="Times,serif" font-size="11.00">Accession</text>
</g>
<!-- \\OntologyWrapper\\Accession&#45;&gt;\\OntologyWrapper\\UnitObject -->
<g id="edge27" class="edge"><title>\\OntologyWrapper\\Accession&#45;&gt;\\OntologyWrapper\\UnitObject</title>
<path fill="none" stroke="black" d="M862.277,-578.606C855.975,-582.271 849.555,-586.466 844,-591 804.37,-623.346 767.239,-670.051 745.837,-699.186"/>
<polygon fill="none" stroke="black" points="742.752,-697.478 739.715,-707.628 748.419,-701.587 742.752,-697.478"/>
</g>
<!-- \\OntologyWrapper\\ArrayCursorIterator -->
<g id="node50" class="node"><title>\\OntologyWrapper\\ArrayCursorIterator</title>
<polygon fill="none" stroke="black" points="1294.96,-150 1191.04,-150 1191.04,-114 1294.96,-114 1294.96,-150"/>
<text text-anchor="middle" x="1243" y="-128.7" font-family="Times,serif" font-size="11.00">ArrayCursorIterator</text>
</g>
<!-- \\OntologyWrapper\\ArrayCursorIterator&#45;&gt;\\OntologyWrapper\\ObjectIterator -->
<g id="edge28" class="edge"><title>\\OntologyWrapper\\ArrayCursorIterator&#45;&gt;\\OntologyWrapper\\ObjectIterator</title>
<path fill="none" stroke="black" d="M1190.99,-132C1166.09,-132 1136.31,-132 1111.85,-132"/>
<polygon fill="none" stroke="black" points="1111.72,-128.5 1101.72,-132 1111.72,-135.5 1111.72,-128.5"/>
</g>
<!-- \\OntologyWrapper\\Checklist -->
<g id="node51" class="node"><title>\\OntologyWrapper\\Checklist</title>
<polygon fill="none" stroke="black" points="921.553,-1014 864.447,-1014 864.447,-978 921.553,-978 921.553,-1014"/>
<text text-anchor="middle" x="893" y="-992.7" font-family="Times,serif" font-size="11.00">Checklist</text>
</g>
<!-- \\OntologyWrapper\\Checklist&#45;&gt;\\OntologyWrapper\\UnitObject -->
<g id="edge29" class="edge"><title>\\OntologyWrapper\\Checklist&#45;&gt;\\OntologyWrapper\\UnitObject</title>
<path fill="none" stroke="black" d="M864.036,-984.761C856.702,-980.707 849.356,-975.489 844,-969 779.581,-890.96 835.319,-831.935 772,-753 770.404,-751.01 768.618,-749.132 766.704,-747.366"/>
<polygon fill="none" stroke="black" points="768.821,-744.578 758.812,-741.106 764.471,-750.063 768.821,-744.578"/>
</g>
<!-- \\OntologyWrapper\\CollectingMission -->
<g id="node52" class="node"><title>\\OntologyWrapper\\CollectingMission</title>
<polygon fill="none" stroke="black" points="1111.78,-960 1014.22,-960 1014.22,-924 1111.78,-924 1111.78,-960"/>
<text text-anchor="middle" x="1063" y="-938.7" font-family="Times,serif" font-size="11.00">CollectingMission</text>
</g>
<!-- \\OntologyWrapper\\Mission -->
<g id="node59" class="node"><title>\\OntologyWrapper\\Mission</title>
<polygon fill="none" stroke="black" points="920,-960 866,-960 866,-924 920,-924 920,-960"/>
<text text-anchor="middle" x="893" y="-938.7" font-family="Times,serif" font-size="11.00">Mission</text>
</g>
<!-- \\OntologyWrapper\\CollectingMission&#45;&gt;\\OntologyWrapper\\Mission -->
<g id="edge30" class="edge"><title>\\OntologyWrapper\\CollectingMission&#45;&gt;\\OntologyWrapper\\Mission</title>
<path fill="none" stroke="black" d="M1014.31,-942C987.773,-942 955.254,-942 930.718,-942"/>
<polygon fill="none" stroke="black" points="930.394,-938.5 920.394,-942 930.394,-945.5 930.394,-938.5"/>
</g>
<!-- \\OntologyWrapper\\CollectingSample -->
<g id="node53" class="node"><title>\\OntologyWrapper\\CollectingSample</title>
<polygon fill="none" stroke="black" points="1110.32,-636 1015.68,-636 1015.68,-600 1110.32,-600 1110.32,-636"/>
<text text-anchor="middle" x="1063" y="-614.7" font-family="Times,serif" font-size="11.00">CollectingSample</text>
</g>
<!-- \\OntologyWrapper\\Sample -->
<g id="node62" class="node"><title>\\OntologyWrapper\\Sample</title>
<polygon fill="none" stroke="black" points="923.703,-636 862.297,-636 862.297,-600 923.703,-600 923.703,-636"/>
<text text-anchor="start" x="870.398" y="-620.2" font-family="Times,serif" font-size="11.00">«abstract»</text>
<text text-anchor="start" x="876.503" y="-609.2" font-family="Times,serif" font-size="11.00">Sample</text>
</g>
<!-- \\OntologyWrapper\\CollectingSample&#45;&gt;\\OntologyWrapper\\Sample -->
<g id="edge31" class="edge"><title>\\OntologyWrapper\\CollectingSample&#45;&gt;\\OntologyWrapper\\Sample</title>
<path fill="none" stroke="black" d="M1015.65,-618C989.984,-618 958.407,-618 933.857,-618"/>
<polygon fill="none" stroke="black" points="933.804,-614.5 923.804,-618 933.804,-621.5 933.804,-614.5"/>
</g>
<!-- \\OntologyWrapper\\ForestUnit -->
<g id="node54" class="node"><title>\\OntologyWrapper\\ForestUnit</title>
<polygon fill="none" stroke="black" points="924.556,-852 861.444,-852 861.444,-816 924.556,-816 924.556,-852"/>
<text text-anchor="middle" x="893" y="-830.7" font-family="Times,serif" font-size="11.00">ForestUnit</text>
</g>
<!-- \\OntologyWrapper\\ForestUnit&#45;&gt;\\OntologyWrapper\\UnitObject -->
<g id="edge32" class="edge"><title>\\OntologyWrapper\\ForestUnit&#45;&gt;\\OntologyWrapper\\UnitObject</title>
<path fill="none" stroke="black" d="M861.427,-817.596C855.56,-814.227 849.526,-810.604 844,-807 810.497,-785.148 805.194,-775.32 772,-753 770.356,-751.894 768.666,-750.782 766.95,-749.671"/>
<polygon fill="none" stroke="black" points="768.572,-746.556 758.247,-744.179 764.836,-752.476 768.572,-746.556"/>
</g>
<!-- \\OntologyWrapper\\Household -->
<g id="node55" class="node"><title>\\OntologyWrapper\\Household</title>
<polygon fill="none" stroke="black" points="924.664,-798 861.336,-798 861.336,-762 924.664,-762 924.664,-798"/>
<text text-anchor="middle" x="893" y="-776.7" font-family="Times,serif" font-size="11.00">Household</text>
</g>
<!-- \\OntologyWrapper\\Household&#45;&gt;\\OntologyWrapper\\UnitObject -->
<g id="edge33" class="edge"><title>\\OntologyWrapper\\Household&#45;&gt;\\OntologyWrapper\\UnitObject</title>
<path fill="none" stroke="black" d="M860.965,-769.843C834.744,-761.262 796.974,-748.901 768.219,-739.49"/>
<polygon fill="none" stroke="black" points="769.05,-736.079 758.457,-736.295 766.872,-742.732 769.05,-736.079"/>
</g>
<!-- \\OntologyWrapper\\Inventory -->
<g id="node56" class="node"><title>\\OntologyWrapper\\Inventory</title>
<polygon fill="none" stroke="black" points="922.265,-744 863.735,-744 863.735,-708 922.265,-708 922.265,-744"/>
<text text-anchor="middle" x="893" y="-722.7" font-family="Times,serif" font-size="11.00">Inventory</text>
</g>
<!-- \\OntologyWrapper\\Inventory&#45;&gt;\\OntologyWrapper\\UnitObject -->
<g id="edge34" class="edge"><title>\\OntologyWrapper\\Inventory&#45;&gt;\\OntologyWrapper\\UnitObject</title>
<path fill="none" stroke="black" d="M863.635,-726C837.508,-726 798.41,-726 768.723,-726"/>
<polygon fill="none" stroke="black" points="768.651,-722.5 758.651,-726 768.651,-729.5 768.651,-722.5"/>
</g>
<!-- \\OntologyWrapper\\IteratorSerialiser -->
<g id="node57" class="node"><title>\\OntologyWrapper\\IteratorSerialiser</title>
<polygon fill="none" stroke="black" points="1287.91,-204 1198.09,-204 1198.09,-168 1287.91,-168 1287.91,-204"/>
<text text-anchor="middle" x="1243" y="-182.7" font-family="Times,serif" font-size="11.00">IteratorSerialiser</text>
</g>
<!-- \\OntologyWrapper\\MetadataObject&#45;&gt;\\OntologyWrapper\\PersistentObject -->
<g id="edge35" class="edge"><title>\\OntologyWrapper\\MetadataObject&#45;&gt;\\OntologyWrapper\\PersistentObject</title>
<path fill="none" stroke="black" d="M682.766,-459.348C661.955,-460.997 636.636,-463.004 614.487,-464.76"/>
<polygon fill="none" stroke="black" points="613.925,-461.294 604.233,-465.573 614.479,-468.272 613.925,-461.294"/>
</g>
<!-- \\OntologyWrapper\\Mission&#45;&gt;\\OntologyWrapper\\UnitObject -->
<g id="edge36" class="edge"><title>\\OntologyWrapper\\Mission&#45;&gt;\\OntologyWrapper\\UnitObject</title>
<path fill="none" stroke="black" d="M865.929,-931.233C858.127,-927.053 850.049,-921.647 844,-915 790.97,-856.726 824.208,-812.011 772,-753 770.31,-751.089 768.451,-749.274 766.48,-747.555"/>
<polygon fill="none" stroke="black" points="768.518,-744.707 758.449,-741.412 764.265,-750.267 768.518,-744.707"/>
</g>
<!-- \\Iterator -->
<g id="node65" class="node"><title>\\Iterator</title>
<ellipse fill="none" stroke="black" cx="893" cy="-72" rx="38.6695" ry="18"/>
<text text-anchor="middle" x="893" y="-67.8" font-family="Times,serif" font-size="14.00" fill="gray">\Iterator</text>
</g>
<!-- \\OntologyWrapper\\ObjectIterator&#45;&gt;\\Iterator -->
<g id="edge37" class="edge"><title>\\OntologyWrapper\\ObjectIterator&#45;&gt;\\Iterator</title>
<path fill="none" stroke="black" stroke-dasharray="1,5" d="M1024.3,-118.535C997.329,-108.903 961.102,-95.9649 933.692,-86.1759"/>
<polygon fill="none" stroke="black" points="934.621,-82.7912 924.027,-82.7238 932.267,-89.3834 934.621,-82.7912"/>
</g>
<!-- \\Countable -->
<g id="node66" class="node"><title>\\Countable</title>
<ellipse fill="none" stroke="black" cx="893" cy="-18" rx="48.8273" ry="18"/>
<text text-anchor="middle" x="893" y="-13.8" font-family="Times,serif" font-size="14.00" fill="gray">\Countable</text>
</g>
<!-- \\OntologyWrapper\\ObjectIterator&#45;&gt;\\Countable -->
<g id="edge38" class="edge"><title>\\OntologyWrapper\\ObjectIterator&#45;&gt;\\Countable</title>
<path fill="none" stroke="black" stroke-dasharray="1,5" d="M1038.66,-113.844C1014.87,-95.6438 976.666,-67.2125 942,-45 938.23,-42.5845 934.233,-40.1492 930.219,-37.7822"/>
<polygon fill="none" stroke="black" points="931.894,-34.7082 921.483,-32.7439 928.397,-40.7719 931.894,-34.7082"/>
</g>
<!-- \\OntologyWrapper\\Qtl -->
<g id="node61" class="node"><title>\\OntologyWrapper\\Qtl</title>
<polygon fill="none" stroke="black" points="920,-690 866,-690 866,-654 920,-654 920,-690"/>
<text text-anchor="middle" x="893" y="-668.7" font-family="Times,serif" font-size="11.00">Qtl</text>
</g>
<!-- \\OntologyWrapper\\Qtl&#45;&gt;\\OntologyWrapper\\UnitObject -->
<g id="edge39" class="edge"><title>\\OntologyWrapper\\Qtl&#45;&gt;\\OntologyWrapper\\UnitObject</title>
<path fill="none" stroke="black" d="M865.855,-680.556C839.616,-689.144 798.809,-702.499 768.211,-712.513"/>
<polygon fill="none" stroke="black" points="767.083,-709.199 758.667,-715.636 769.26,-715.852 767.083,-709.199"/>
</g>
<!-- \\OntologyWrapper\\Sample&#45;&gt;\\OntologyWrapper\\UnitObject -->
<g id="edge40" class="edge"><title>\\OntologyWrapper\\Sample&#45;&gt;\\OntologyWrapper\\UnitObject</title>
<path fill="none" stroke="black" d="M862.3,-634.136C856.187,-637.616 849.836,-641.349 844,-645 815.027,-663.123 783.204,-685.31 760.07,-701.878"/>
<polygon fill="none" stroke="black" points="757.728,-699.252 751.654,-707.933 761.815,-704.935 757.728,-699.252"/>
</g>
<!-- \\OntologyWrapper\\User -->
<g id="node63" class="node"><title>\\OntologyWrapper\\User</title>
<polygon fill="none" stroke="black" points="1270,-366 1216,-366 1216,-330 1270,-330 1270,-366"/>
<text text-anchor="middle" x="1243" y="-344.7" font-family="Times,serif" font-size="11.00">User</text>
</g>
<!-- \\OntologyWrapper\\User&#45;&gt;\\OntologyWrapper\\Individual -->
<g id="edge41" class="edge"><title>\\OntologyWrapper\\User&#45;&gt;\\OntologyWrapper\\Individual</title>
<path fill="none" stroke="black" d="M1215.86,-351.169C1202.01,-354.224 1185.86,-360.222 1176,-372 1069.42,-499.281 1160.3,-581.171 1112,-740 1103.35,-768.429 1089.13,-799.256 1078.4,-820.669"/>
<polygon fill="none" stroke="black" points="1075.17,-819.303 1073.76,-829.803 1081.41,-822.479 1075.17,-819.303"/>
</g>
</g>
</svg>
