<?xml version="1.0" encoding="UTF-8" standalone="no"?>
<!DOCTYPE svg PUBLIC "-//W3C//DTD SVG 1.1//EN"
 "http://www.w3.org/Graphics/SVG/1.1/DTD/svg11.dtd">
<!-- Generated by graphviz version 2.36.0 (20140111.2315)
 -->
<!-- Title: G Pages: 1 -->
<svg width="1322pt" height="1543pt"
 viewBox="0.00 0.00 1322.00 1543.00" xmlns="http://www.w3.org/2000/svg" xmlns:xlink="http://www.w3.org/1999/xlink">
<g id="graph0" class="graph" transform="scale(1 1) rotate(0) translate(4 1539)">
<title>G</title>
<polygon fill="white" stroke="none" points="-4,4 -4,-1539 1318,-1539 1318,4 -4,4"/>
<g id="clust1" class="cluster"><title>cluster_Global</title>
<path fill="none" stroke="gray" d="M182,-98C182,-98 1294,-98 1294,-98 1300,-98 1306,-104 1306,-110 1306,-110 1306,-1515 1306,-1515 1306,-1521 1300,-1527 1294,-1527 1294,-1527 182,-1527 182,-1527 176,-1527 170,-1521 170,-1515 170,-1515 170,-110 170,-110 170,-104 176,-98 182,-98"/>
<text text-anchor="middle" x="738" y="-1514.2" font-family="Times,serif" font-size="11.00" fill="gray">Global</text>
</g>
<g id="clust2" class="cluster"><title>cluster_\OntologyWrapper</title>
<path fill="none" stroke="gray" d="M190,-106C190,-106 1286,-106 1286,-106 1292,-106 1298,-112 1298,-118 1298,-118 1298,-1488 1298,-1488 1298,-1494 1292,-1500 1286,-1500 1286,-1500 190,-1500 190,-1500 184,-1500 178,-1494 178,-1488 178,-1488 178,-118 178,-118 178,-112 184,-106 190,-106"/>
<text text-anchor="middle" x="738" y="-1487.2" font-family="Times,serif" font-size="11.00" fill="gray">OntologyWrapper</text>
</g>
<g id="clust3" class="cluster"><title>cluster_\OntologyWrapper\traits</title>
<path fill="none" stroke="gray" d="M1168,-214C1168,-214 1278,-214 1278,-214 1284,-214 1290,-220 1290,-226 1290,-226 1290,-1461 1290,-1461 1290,-1467 1284,-1473 1278,-1473 1278,-1473 1168,-1473 1168,-1473 1162,-1473 1156,-1467 1156,-1461 1156,-1461 1156,-226 1156,-226 1156,-220 1162,-214 1168,-214"/>
<text text-anchor="middle" x="1223" y="-1460.2" font-family="Times,serif" font-size="11.00" fill="gray">traits</text>
</g>
<!-- \\OntologyWrapper\\traits\\Label -->
<g id="node1" class="node"><title>\\OntologyWrapper\\traits\\Label</title>
<polygon fill="none" stroke="black" points="1250,-1446 1196,-1446 1196,-1410 1250,-1410 1250,-1446"/>
<text text-anchor="middle" x="1223" y="-1424.7" font-family="Times,serif" font-size="11.00">Label</text>
</g>
<!-- \\OntologyWrapper\\traits\\EntityPhone -->
<g id="node2" class="node"><title>\\OntologyWrapper\\traits\\EntityPhone</title>
<polygon fill="none" stroke="black" points="1258.39,-1392 1187.61,-1392 1187.61,-1356 1258.39,-1356 1258.39,-1392"/>
<text text-anchor="middle" x="1223" y="-1370.7" font-family="Times,serif" font-size="11.00">EntityPhone</text>
</g>
<!-- \\OntologyWrapper\\traits\\MemcachedDictionary -->
<g id="node3" class="node"><title>\\OntologyWrapper\\traits\\MemcachedDictionary</title>
<polygon fill="none" stroke="black" points="1281.29,-1338 1164.71,-1338 1164.71,-1302 1281.29,-1302 1281.29,-1338"/>
<text text-anchor="middle" x="1223" y="-1316.7" font-family="Times,serif" font-size="11.00">MemcachedDictionary</text>
</g>
<!-- \\OntologyWrapper\\traits\\AccessorOffset -->
<g id="node4" class="node"><title>\\OntologyWrapper\\traits\\AccessorOffset</title>
<polygon fill="none" stroke="black" points="1264.61,-1284 1181.39,-1284 1181.39,-1248 1264.61,-1248 1264.61,-1284"/>
<text text-anchor="middle" x="1223" y="-1262.7" font-family="Times,serif" font-size="11.00">AccessorOffset</text>
</g>
<!-- \\OntologyWrapper\\traits\\EntityMail -->
<g id="node5" class="node"><title>\\OntologyWrapper\\traits\\EntityMail</title>
<polygon fill="none" stroke="black" points="1254.66,-1230 1191.34,-1230 1191.34,-1194 1254.66,-1194 1254.66,-1230"/>
<text text-anchor="middle" x="1223" y="-1208.7" font-family="Times,serif" font-size="11.00">EntityMail</text>
</g>
<!-- \\OntologyWrapper\\traits\\Terms -->
<g id="node6" class="node"><title>\\OntologyWrapper\\traits\\Terms</title>
<polygon fill="none" stroke="black" points="1250,-1176 1196,-1176 1196,-1140 1250,-1140 1250,-1176"/>
<text text-anchor="middle" x="1223" y="-1154.7" font-family="Times,serif" font-size="11.00">Terms</text>
</g>
<!-- \\OntologyWrapper\\traits\\Definition -->
<g id="node7" class="node"><title>\\OntologyWrapper\\traits\\Definition</title>
<polygon fill="none" stroke="black" points="1253.11,-1122 1192.89,-1122 1192.89,-1086 1253.11,-1086 1253.11,-1122"/>
<text text-anchor="middle" x="1223" y="-1100.7" font-family="Times,serif" font-size="11.00">Definition</text>
</g>
<!-- \\OntologyWrapper\\traits\\EntityFax -->
<g id="node8" class="node"><title>\\OntologyWrapper\\traits\\EntityFax</title>
<polygon fill="none" stroke="black" points="1252.89,-1068 1193.11,-1068 1193.11,-1032 1252.89,-1032 1252.89,-1068"/>
<text text-anchor="middle" x="1223" y="-1046.7" font-family="Times,serif" font-size="11.00">EntityFax</text>
</g>
<!-- \\OntologyWrapper\\traits\\Description -->
<g id="node9" class="node"><title>\\OntologyWrapper\\traits\\Description</title>
<polygon fill="none" stroke="black" points="1256.82,-1014 1189.18,-1014 1189.18,-978 1256.82,-978 1256.82,-1014"/>
<text text-anchor="middle" x="1223" y="-992.7" font-family="Times,serif" font-size="11.00">Description</text>
</g>
<!-- \\OntologyWrapper\\traits\\Category -->
<g id="node10" class="node"><title>\\OntologyWrapper\\traits\\Category</title>
<polygon fill="none" stroke="black" points="1251.32,-960 1194.68,-960 1194.68,-924 1251.32,-924 1251.32,-960"/>
<text text-anchor="middle" x="1223" y="-938.7" font-family="Times,serif" font-size="11.00">Category</text>
</g>
<!-- \\OntologyWrapper\\traits\\EntityKind -->
<g id="node11" class="node"><title>\\OntologyWrapper\\traits\\EntityKind</title>
<polygon fill="none" stroke="black" points="1255.39,-906 1190.61,-906 1190.61,-870 1255.39,-870 1255.39,-906"/>
<text text-anchor="middle" x="1223" y="-884.7" font-family="Times,serif" font-size="11.00">EntityKind</text>
</g>
<!-- \\OntologyWrapper\\traits\\Synonym -->
<g id="node12" class="node"><title>\\OntologyWrapper\\traits\\Synonym</title>
<polygon fill="none" stroke="black" points="1252.17,-852 1193.83,-852 1193.83,-816 1252.17,-816 1252.17,-852"/>
<text text-anchor="middle" x="1223" y="-830.7" font-family="Times,serif" font-size="11.00">Synonym</text>
</g>
<!-- \\OntologyWrapper\\traits\\EntityAffiliation -->
<g id="node13" class="node"><title>\\OntologyWrapper\\traits\\EntityAffiliation</title>
<polygon fill="none" stroke="black" points="1267.22,-798 1178.78,-798 1178.78,-762 1267.22,-762 1267.22,-798"/>
<text text-anchor="middle" x="1223" y="-776.7" font-family="Times,serif" font-size="11.00">EntityAffiliation</text>
</g>
<!-- \\OntologyWrapper\\traits\\EntityType -->
<g id="node14" class="node"><title>\\OntologyWrapper\\traits\\EntityType</title>
<polygon fill="none" stroke="black" points="1255.22,-744 1190.78,-744 1190.78,-708 1255.22,-708 1255.22,-744"/>
<text text-anchor="middle" x="1223" y="-722.7" font-family="Times,serif" font-size="11.00">EntityType</text>
</g>
<!-- \\OntologyWrapper\\traits\\EntityEmail -->
<g id="node15" class="node"><title>\\OntologyWrapper\\traits\\EntityEmail</title>
<polygon fill="none" stroke="black" points="1257.66,-690 1188.34,-690 1188.34,-654 1257.66,-654 1257.66,-690"/>
<text text-anchor="middle" x="1223" y="-668.7" font-family="Times,serif" font-size="11.00">EntityEmail</text>
</g>
<!-- \\OntologyWrapper\\traits\\DataType -->
<g id="node16" class="node"><title>\\OntologyWrapper\\traits\\DataType</title>
<polygon fill="none" stroke="black" points="1252.1,-636 1193.9,-636 1193.9,-600 1252.1,-600 1252.1,-636"/>
<text text-anchor="middle" x="1223" y="-614.7" font-family="Times,serif" font-size="11.00">DataType</text>
</g>
<!-- \\OntologyWrapper\\traits\\TermType -->
<g id="node17" class="node"><title>\\OntologyWrapper\\traits\\TermType</title>
<polygon fill="none" stroke="black" points="1253.39,-582 1192.61,-582 1192.61,-546 1253.39,-546 1253.39,-582"/>
<text text-anchor="middle" x="1223" y="-560.7" font-family="Times,serif" font-size="11.00">TermType</text>
</g>
<!-- \\OntologyWrapper\\traits\\AccessorProperty -->
<g id="node18" class="node"><title>\\OntologyWrapper\\traits\\AccessorProperty</title>
<polygon fill="none" stroke="black" points="1270.2,-528 1175.8,-528 1175.8,-492 1270.2,-492 1270.2,-528"/>
<text text-anchor="middle" x="1223" y="-506.7" font-family="Times,serif" font-size="11.00">AccessorProperty</text>
</g>
<!-- \\OntologyWrapper\\traits\\EntityLink -->
<g id="node19" class="node"><title>\\OntologyWrapper\\traits\\EntityLink</title>
<polygon fill="none" stroke="black" points="1254.66,-474 1191.34,-474 1191.34,-438 1254.66,-438 1254.66,-474"/>
<text text-anchor="middle" x="1223" y="-452.7" font-family="Times,serif" font-size="11.00">EntityLink</text>
</g>
<!-- \\OntologyWrapper\\traits\\Status -->
<g id="node20" class="node"><title>\\OntologyWrapper\\traits\\Status</title>
<polygon fill="none" stroke="black" points="1250,-420 1196,-420 1196,-384 1250,-384 1250,-420"/>
<text text-anchor="middle" x="1223" y="-398.7" font-family="Times,serif" font-size="11.00">Status</text>
</g>
<!-- \\OntologyWrapper\\traits\\NodeType -->
<g id="node21" class="node"><title>\\OntologyWrapper\\traits\\NodeType</title>
<polygon fill="none" stroke="black" points="1253.66,-366 1192.34,-366 1192.34,-330 1253.66,-330 1253.66,-366"/>
<text text-anchor="middle" x="1223" y="-344.7" font-family="Times,serif" font-size="11.00">NodeType</text>
</g>
<!-- \\OntologyWrapper\\traits\\DataKind -->
<g id="node22" class="node"><title>\\OntologyWrapper\\traits\\DataKind</title>
<polygon fill="none" stroke="black" points="1252.27,-312 1193.73,-312 1193.73,-276 1252.27,-276 1252.27,-312"/>
<text text-anchor="middle" x="1223" y="-290.7" font-family="Times,serif" font-size="11.00">DataKind</text>
</g>
<!-- \\OntologyWrapper\\traits\\EntityAcronym -->
<g id="node23" class="node"><title>\\OntologyWrapper\\traits\\EntityAcronym</title>
<polygon fill="none" stroke="black" points="1265.43,-258 1180.57,-258 1180.57,-222 1265.43,-222 1265.43,-258"/>
<text text-anchor="middle" x="1223" y="-236.7" font-family="Times,serif" font-size="11.00">EntityAcronym</text>
</g>
<!-- \\OntologyWrapper\\IteratorObject -->
<g id="node24" class="node"><title>\\OntologyWrapper\\IteratorObject</title>
<polygon fill="none" stroke="black" points="1091.69,-150 1014.31,-150 1014.31,-114 1091.69,-114 1091.69,-150"/>
<text text-anchor="start" x="1030.4" y="-134.2" font-family="Times,serif" font-size="11.00">«abstract»</text>
<text text-anchor="start" x="1022.16" y="-123.2" font-family="Times,serif" font-size="11.00">IteratorObject</text>
</g>
<!-- \\Iterator -->
<g id="node50" class="node"><title>\\Iterator</title>
<ellipse fill="none" stroke="black" cx="893" cy="-72" rx="38.6695" ry="18"/>
<text text-anchor="middle" x="893" y="-67.8" font-family="Times,serif" font-size="14.00" fill="gray">\Iterator</text>
</g>
<!-- \\OntologyWrapper\\IteratorObject&#45;&gt;\\Iterator -->
<g id="edge1" class="edge"><title>\\OntologyWrapper\\IteratorObject&#45;&gt;\\Iterator</title>
<path fill="none" stroke="black" stroke-dasharray="1,5" d="M1014.16,-117.629C989.573,-108.294 957.616,-96.1578 932.838,-86.7488"/>
<polygon fill="none" stroke="black" points="933.976,-83.4371 923.385,-83.1589 931.491,-89.9811 933.976,-83.4371"/>
</g>
<!-- \\Countable -->
<g id="node51" class="node"><title>\\Countable</title>
<ellipse fill="none" stroke="black" cx="893" cy="-18" rx="48.8273" ry="18"/>
<text text-anchor="middle" x="893" y="-13.8" font-family="Times,serif" font-size="14.00" fill="gray">\Countable</text>
</g>
<!-- \\OntologyWrapper\\IteratorObject&#45;&gt;\\Countable -->
<g id="edge2" class="edge"><title>\\OntologyWrapper\\IteratorObject&#45;&gt;\\Countable</title>
<path fill="none" stroke="black" stroke-dasharray="1,5" d="M1031.25,-113.97C1009.67,-95.6163 974.556,-66.8352 942,-45 938.427,-42.6034 934.626,-40.2151 930.79,-37.9063"/>
<polygon fill="none" stroke="black" points="932.261,-34.7125 921.86,-32.6965 928.733,-40.7588 932.261,-34.7125"/>
</g>
<!-- \\OntologyWrapper\\DatabaseObject -->
<g id="node25" class="node"><title>\\OntologyWrapper\\DatabaseObject</title>
<polygon fill="none" stroke="black" points="768.632,-204 683.368,-204 683.368,-168 768.632,-168 768.632,-204"/>
<text text-anchor="start" x="703.398" y="-188.2" font-family="Times,serif" font-size="11.00">«abstract»</text>
<text text-anchor="start" x="691.185" y="-177.2" font-family="Times,serif" font-size="11.00">DatabaseObject</text>
</g>
<!-- \\OntologyWrapper\\ConnectionObject -->
<g id="node35" class="node"><title>\\OntologyWrapper\\ConnectionObject</title>
<polygon fill="none" stroke="black" points="608.035,-285 511.965,-285 511.965,-249 608.035,-249 608.035,-285"/>
<text text-anchor="start" x="537.398" y="-269.2" font-family="Times,serif" font-size="11.00">«abstract»</text>
<text text-anchor="start" x="519.983" y="-258.2" font-family="Times,serif" font-size="11.00">ConnectionObject</text>
</g>
<!-- \\OntologyWrapper\\DatabaseObject&#45;&gt;\\OntologyWrapper\\ConnectionObject -->
<g id="edge3" class="edge"><title>\\OntologyWrapper\\DatabaseObject&#45;&gt;\\OntologyWrapper\\ConnectionObject</title>
<path fill="none" stroke="black" d="M688.195,-204.178C664.14,-216.059 632.538,-231.667 606.853,-244.353"/>
<polygon fill="none" stroke="black" points="605.098,-241.316 597.682,-248.883 608.198,-247.592 605.098,-241.316"/>
</g>
<!-- \\OntologyWrapper\\DatabaseGraph -->
<g id="node26" class="node"><title>\\OntologyWrapper\\DatabaseGraph</title>
<polygon fill="none" stroke="black" points="767.8,-312 684.2,-312 684.2,-276 767.8,-276 767.8,-312"/>
<text text-anchor="start" x="703.398" y="-296.2" font-family="Times,serif" font-size="11.00">«abstract»</text>
<text text-anchor="start" x="692.1" y="-285.2" font-family="Times,serif" font-size="11.00">DatabaseGraph</text>
</g>
<!-- \\OntologyWrapper\\DatabaseGraph&#45;&gt;\\OntologyWrapper\\ConnectionObject -->
<g id="edge4" class="edge"><title>\\OntologyWrapper\\DatabaseGraph&#45;&gt;\\OntologyWrapper\\ConnectionObject</title>
<path fill="none" stroke="black" d="M684.039,-287.256C664.136,-283.98 639.888,-279.988 618.196,-276.416"/>
<polygon fill="none" stroke="black" points="618.546,-272.927 608.11,-274.756 617.409,-279.834 618.546,-272.927"/>
</g>
<!-- \\OntologyWrapper\\MongoServer -->
<g id="node27" class="node"><title>\\OntologyWrapper\\MongoServer</title>
<polygon fill="none" stroke="black" points="931.491,-258 854.509,-258 854.509,-222 931.491,-222 931.491,-258"/>
<text text-anchor="middle" x="893" y="-236.7" font-family="Times,serif" font-size="11.00">MongoServer</text>
</g>
<!-- \\OntologyWrapper\\ServerObject -->
<g id="node43" class="node"><title>\\OntologyWrapper\\ServerObject</title>
<polygon fill="none" stroke="black" points="763.029,-258 688.971,-258 688.971,-222 763.029,-222 763.029,-258"/>
<text text-anchor="start" x="703.398" y="-242.2" font-family="Times,serif" font-size="11.00">«abstract»</text>
<text text-anchor="start" x="696.985" y="-231.2" font-family="Times,serif" font-size="11.00">ServerObject</text>
</g>
<!-- \\OntologyWrapper\\MongoServer&#45;&gt;\\OntologyWrapper\\ServerObject -->
<g id="edge5" class="edge"><title>\\OntologyWrapper\\MongoServer&#45;&gt;\\OntologyWrapper\\ServerObject</title>
<path fill="none" stroke="black" d="M854.559,-240C830.491,-240 799.044,-240 773.395,-240"/>
<polygon fill="none" stroke="black" points="773.159,-236.5 763.159,-240 773.159,-243.5 773.159,-236.5"/>
</g>
<!-- \\OntologyWrapper\\EntityObject -->
<g id="node28" class="node"><title>\\OntologyWrapper\\EntityObject</title>
<polygon fill="none" stroke="black" points="929.209,-366 856.791,-366 856.791,-330 929.209,-330 929.209,-366"/>
<text text-anchor="start" x="870.398" y="-350.2" font-family="Times,serif" font-size="11.00">«abstract»</text>
<text text-anchor="start" x="864.896" y="-339.2" font-family="Times,serif" font-size="11.00">EntityObject</text>
</g>
<!-- \\OntologyWrapper\\UnitObject -->
<g id="node42" class="node"><title>\\OntologyWrapper\\UnitObject</title>
<polygon fill="none" stroke="black" points="758.377,-420 693.623,-420 693.623,-384 758.377,-384 758.377,-420"/>
<text text-anchor="start" x="703.398" y="-404.2" font-family="Times,serif" font-size="11.00">«abstract»</text>
<text text-anchor="start" x="701.562" y="-393.2" font-family="Times,serif" font-size="11.00">UnitObject</text>
</g>
<!-- \\OntologyWrapper\\EntityObject&#45;&gt;\\OntologyWrapper\\UnitObject -->
<g id="edge6" class="edge"><title>\\OntologyWrapper\\EntityObject&#45;&gt;\\OntologyWrapper\\UnitObject</title>
<path fill="none" stroke="black" d="M856.603,-359.584C830.628,-368.085 795.284,-379.652 768.066,-388.56"/>
<polygon fill="none" stroke="black" points="766.854,-385.274 758.439,-391.711 769.031,-391.927 766.854,-385.274"/>
</g>
<!-- \\OntologyWrapper\\Wrapper -->
<g id="node29" class="node"><title>\\OntologyWrapper\\Wrapper</title>
<polygon fill="none" stroke="black" points="753.038,-690 698.962,-690 698.962,-654 753.038,-654 753.038,-690"/>
<text text-anchor="middle" x="726" y="-668.7" font-family="Times,serif" font-size="11.00">Wrapper</text>
</g>
<!-- \\OntologyWrapper\\Dictionary -->
<g id="node31" class="node"><title>\\OntologyWrapper\\Dictionary</title>
<polygon fill="none" stroke="black" points="591.54,-663 528.46,-663 528.46,-627 591.54,-627 591.54,-663"/>
<text text-anchor="middle" x="560" y="-641.7" font-family="Times,serif" font-size="11.00">Dictionary</text>
</g>
<!-- \\OntologyWrapper\\Wrapper&#45;&gt;\\OntologyWrapper\\Dictionary -->
<g id="edge7" class="edge"><title>\\OntologyWrapper\\Wrapper&#45;&gt;\\OntologyWrapper\\Dictionary</title>
<path fill="none" stroke="black" d="M698.651,-667.662C672.57,-663.368 632.269,-656.733 602.002,-651.75"/>
<polygon fill="none" stroke="black" points="602.19,-648.234 591.754,-650.063 601.052,-655.141 602.19,-648.234"/>
</g>
<!-- \\OntologyWrapper\\Tag -->
<g id="node30" class="node"><title>\\OntologyWrapper\\Tag</title>
<polygon fill="none" stroke="black" points="753,-582 699,-582 699,-546 753,-546 753,-582"/>
<text text-anchor="middle" x="726" y="-560.7" font-family="Times,serif" font-size="11.00">Tag</text>
</g>
<!-- \\OntologyWrapper\\PersistentObject -->
<g id="node37" class="node"><title>\\OntologyWrapper\\PersistentObject</title>
<polygon fill="none" stroke="black" points="604.096,-528 515.904,-528 515.904,-492 604.096,-492 604.096,-528"/>
<text text-anchor="start" x="537.398" y="-512.2" font-family="Times,serif" font-size="11.00">«abstract»</text>
<text text-anchor="start" x="523.952" y="-501.2" font-family="Times,serif" font-size="11.00">PersistentObject</text>
</g>
<!-- \\OntologyWrapper\\Tag&#45;&gt;\\OntologyWrapper\\PersistentObject -->
<g id="edge8" class="edge"><title>\\OntologyWrapper\\Tag&#45;&gt;\\OntologyWrapper\\PersistentObject</title>
<path fill="none" stroke="black" d="M698.651,-555.324C675.891,-547.83 642.301,-536.77 614.001,-527.452"/>
<polygon fill="none" stroke="black" points="614.831,-524.04 604.238,-524.237 612.642,-530.689 614.831,-524.04"/>
</g>
<!-- \\OntologyWrapper\\DictionaryObject -->
<g id="node40" class="node"><title>\\OntologyWrapper\\DictionaryObject</title>
<polygon fill="none" stroke="black" points="440.362,-609 347.638,-609 347.638,-573 440.362,-573 440.362,-609"/>
<text text-anchor="start" x="371.398" y="-593.2" font-family="Times,serif" font-size="11.00">«abstract»</text>
<text text-anchor="start" x="355.82" y="-582.2" font-family="Times,serif" font-size="11.00">DictionaryObject</text>
</g>
<!-- \\OntologyWrapper\\Dictionary&#45;&gt;\\OntologyWrapper\\DictionaryObject -->
<g id="edge9" class="edge"><title>\\OntologyWrapper\\Dictionary&#45;&gt;\\OntologyWrapper\\DictionaryObject</title>
<path fill="none" stroke="black" d="M528.153,-634.843C506.185,-627.61 476.063,-617.691 450.024,-609.118"/>
<polygon fill="none" stroke="black" points="450.863,-605.709 440.27,-605.906 448.674,-612.358 450.863,-605.709"/>
</g>
<!-- \\OntologyWrapper\\Term -->
<g id="node32" class="node"><title>\\OntologyWrapper\\Term</title>
<polygon fill="none" stroke="black" points="753,-528 699,-528 699,-492 753,-492 753,-528"/>
<text text-anchor="middle" x="726" y="-506.7" font-family="Times,serif" font-size="11.00">Term</text>
</g>
<!-- \\OntologyWrapper\\Term&#45;&gt;\\OntologyWrapper\\PersistentObject -->
<g id="edge10" class="edge"><title>\\OntologyWrapper\\Term&#45;&gt;\\OntologyWrapper\\PersistentObject</title>
<path fill="none" stroke="black" d="M698.651,-510C675.99,-510 642.594,-510 614.372,-510"/>
<polygon fill="none" stroke="black" points="614.238,-506.5 604.238,-510 614.238,-513.5 614.238,-506.5"/>
</g>
<!-- \\OntologyWrapper\\ContainerObject -->
<g id="node33" class="node"><title>\\OntologyWrapper\\ContainerObject</title>
<polygon fill="none" stroke="black" points="275.198,-568 186.802,-568 186.802,-532 275.198,-532 275.198,-568"/>
<text text-anchor="middle" x="231" y="-546.7" font-family="Times,serif" font-size="11.00">ContainerObject</text>
</g>
<!-- \\ArrayObject -->
<g id="node52" class="node"><title>\\ArrayObject</title>
<ellipse fill="none" stroke="black" cx="57" cy="-550" rx="56.5201" ry="18"/>
<text text-anchor="middle" x="57" y="-545.8" font-family="Times,serif" font-size="14.00" fill="gray">\ArrayObject</text>
</g>
<!-- \\OntologyWrapper\\ContainerObject&#45;&gt;\\ArrayObject -->
<g id="edge11" class="edge"><title>\\OntologyWrapper\\ContainerObject&#45;&gt;\\ArrayObject</title>
<path fill="none" stroke="black" d="M186.597,-550C167.611,-550 144.919,-550 123.919,-550"/>
<polygon fill="none" stroke="black" points="123.769,-546.5 113.769,-550 123.769,-553.5 123.769,-546.5"/>
</g>
<!-- \\OntologyWrapper\\MongoDatabase -->
<g id="node34" class="node"><title>\\OntologyWrapper\\MongoDatabase</title>
<polygon fill="none" stroke="black" points="937.091,-204 848.909,-204 848.909,-168 937.091,-168 937.091,-204"/>
<text text-anchor="middle" x="893" y="-182.7" font-family="Times,serif" font-size="11.00">MongoDatabase</text>
</g>
<!-- \\OntologyWrapper\\MongoDatabase&#45;&gt;\\OntologyWrapper\\DatabaseObject -->
<g id="edge12" class="edge"><title>\\OntologyWrapper\\MongoDatabase&#45;&gt;\\OntologyWrapper\\DatabaseObject</title>
<path fill="none" stroke="black" d="M848.648,-186C827.203,-186 801.163,-186 778.687,-186"/>
<polygon fill="none" stroke="black" points="778.64,-182.5 768.64,-186 778.64,-189.5 778.64,-182.5"/>
</g>
<!-- \\OntologyWrapper\\OntologyObject -->
<g id="node48" class="node"><title>\\OntologyWrapper\\OntologyObject</title>
<polygon fill="none" stroke="black" points="437.377,-528 350.623,-528 350.623,-492 437.377,-492 437.377,-528"/>
<text text-anchor="start" x="371.398" y="-512.2" font-family="Times,serif" font-size="11.00">«abstract»</text>
<text text-anchor="start" x="358.562" y="-501.2" font-family="Times,serif" font-size="11.00">OntologyObject</text>
</g>
<!-- \\OntologyWrapper\\ConnectionObject&#45;&gt;\\OntologyWrapper\\OntologyObject -->
<g id="edge13" class="edge"><title>\\OntologyWrapper\\ConnectionObject&#45;&gt;\\OntologyWrapper\\OntologyObject</title>
<path fill="none" stroke="black" d="M546.673,-285.264C517.932,-327.851 446.375,-433.877 412.855,-483.544"/>
<polygon fill="none" stroke="black" points="409.939,-481.608 407.246,-491.855 415.741,-485.524 409.939,-481.608"/>
</g>
<!-- \\OntologyWrapper\\Individual -->
<g id="node36" class="node"><title>\\OntologyWrapper\\Individual</title>
<polygon fill="none" stroke="black" points="1083.71,-312 1022.29,-312 1022.29,-276 1083.71,-276 1083.71,-312"/>
<text text-anchor="middle" x="1053" y="-290.7" font-family="Times,serif" font-size="11.00">Individual</text>
</g>
<!-- \\OntologyWrapper\\Individual&#45;&gt;\\OntologyWrapper\\EntityObject -->
<g id="edge14" class="edge"><title>\\OntologyWrapper\\Individual&#45;&gt;\\OntologyWrapper\\EntityObject</title>
<path fill="none" stroke="black" d="M1022.28,-304.157C998.795,-312.184 965.633,-323.518 938.91,-332.651"/>
<polygon fill="none" stroke="black" points="937.717,-329.36 929.386,-335.906 939.981,-335.984 937.717,-329.36"/>
</g>
<!-- \\OntologyWrapper\\PersistentObject&#45;&gt;\\OntologyWrapper\\OntologyObject -->
<g id="edge15" class="edge"><title>\\OntologyWrapper\\PersistentObject&#45;&gt;\\OntologyWrapper\\OntologyObject</title>
<path fill="none" stroke="black" d="M515.911,-510C495.019,-510 469.741,-510 447.71,-510"/>
<polygon fill="none" stroke="black" points="447.517,-506.5 437.517,-510 447.517,-513.5 447.517,-506.5"/>
</g>
<!-- \\OntologyWrapper\\MongoIterator -->
<g id="node38" class="node"><title>\\OntologyWrapper\\MongoIterator</title>
<polygon fill="none" stroke="black" points="1263.15,-150 1182.85,-150 1182.85,-114 1263.15,-114 1263.15,-150"/>
<text text-anchor="middle" x="1223" y="-128.7" font-family="Times,serif" font-size="11.00">MongoIterator</text>
</g>
<!-- \\OntologyWrapper\\MongoIterator&#45;&gt;\\OntologyWrapper\\IteratorObject -->
<g id="edge16" class="edge"><title>\\OntologyWrapper\\MongoIterator&#45;&gt;\\OntologyWrapper\\IteratorObject</title>
<path fill="none" stroke="black" d="M1182.61,-132C1158.49,-132 1127.45,-132 1101.91,-132"/>
<polygon fill="none" stroke="black" points="1101.7,-128.5 1091.7,-132 1101.7,-135.5 1101.7,-128.5"/>
</g>
<!-- \\OntologyWrapper\\Institution -->
<g id="node39" class="node"><title>\\OntologyWrapper\\Institution</title>
<polygon fill="none" stroke="black" points="1083.73,-366 1022.27,-366 1022.27,-330 1083.73,-330 1083.73,-366"/>
<text text-anchor="middle" x="1053" y="-344.7" font-family="Times,serif" font-size="11.00">Institution</text>
</g>
<!-- \\OntologyWrapper\\Institution&#45;&gt;\\OntologyWrapper\\EntityObject -->
<g id="edge17" class="edge"><title>\\OntologyWrapper\\Institution&#45;&gt;\\OntologyWrapper\\EntityObject</title>
<path fill="none" stroke="black" d="M1022.28,-348C999.001,-348 966.214,-348 939.615,-348"/>
<polygon fill="none" stroke="black" points="939.386,-344.5 929.386,-348 939.386,-351.5 939.386,-344.5"/>
</g>
<!-- \\OntologyWrapper\\DictionaryObject&#45;&gt;\\OntologyWrapper\\ContainerObject -->
<g id="edge18" class="edge"><title>\\OntologyWrapper\\DictionaryObject&#45;&gt;\\OntologyWrapper\\ContainerObject</title>
<path fill="none" stroke="black" d="M347.724,-579.47C328.222,-574.504 305.283,-568.662 284.995,-563.495"/>
<polygon fill="none" stroke="black" points="285.829,-560.096 275.274,-561.02 284.101,-566.88 285.829,-560.096"/>
</g>
<!-- \\OntologyWrapper\\Node -->
<g id="node41" class="node"><title>\\OntologyWrapper\\Node</title>
<polygon fill="none" stroke="black" points="753,-474 699,-474 699,-438 753,-438 753,-474"/>
<text text-anchor="middle" x="726" y="-452.7" font-family="Times,serif" font-size="11.00">Node</text>
</g>
<!-- \\OntologyWrapper\\Node&#45;&gt;\\OntologyWrapper\\PersistentObject -->
<g id="edge19" class="edge"><title>\\OntologyWrapper\\Node&#45;&gt;\\OntologyWrapper\\PersistentObject</title>
<path fill="none" stroke="black" d="M698.651,-464.676C675.891,-472.17 642.301,-483.23 614.001,-492.548"/>
<polygon fill="none" stroke="black" points="612.642,-489.311 604.238,-495.763 614.831,-495.96 612.642,-489.311"/>
</g>
<!-- \\OntologyWrapper\\UnitObject&#45;&gt;\\OntologyWrapper\\PersistentObject -->
<g id="edge20" class="edge"><title>\\OntologyWrapper\\UnitObject&#45;&gt;\\OntologyWrapper\\PersistentObject</title>
<path fill="none" stroke="black" d="M694.355,-420.066C689.524,-423.007 684.605,-426.055 680,-429 650.936,-447.589 618.614,-469.684 594.999,-486.098"/>
<polygon fill="none" stroke="black" points="592.918,-483.282 586.715,-491.871 596.92,-489.025 592.918,-483.282"/>
</g>
<!-- \\OntologyWrapper\\ServerObject&#45;&gt;\\OntologyWrapper\\ConnectionObject -->
<g id="edge21" class="edge"><title>\\OntologyWrapper\\ServerObject&#45;&gt;\\OntologyWrapper\\ConnectionObject</title>
<path fill="none" stroke="black" d="M688.603,-245.992C667.97,-249.389 641.689,-253.716 618.347,-257.559"/>
<polygon fill="none" stroke="black" points="617.504,-254.15 608.205,-259.228 618.641,-261.057 617.504,-254.15"/>
</g>
<!-- \\OntologyWrapper\\CollectionObject -->
<g id="node44" class="node"><title>\\OntologyWrapper\\CollectionObject</title>
<polygon fill="none" stroke="black" points="771.647,-150 680.353,-150 680.353,-114 771.647,-114 771.647,-150"/>
<text text-anchor="start" x="703.398" y="-134.2" font-family="Times,serif" font-size="11.00">«abstract»</text>
<text text-anchor="start" x="688.427" y="-123.2" font-family="Times,serif" font-size="11.00">CollectionObject</text>
</g>
<!-- \\OntologyWrapper\\CollectionObject&#45;&gt;\\OntologyWrapper\\ConnectionObject -->
<g id="edge22" class="edge"><title>\\OntologyWrapper\\CollectionObject&#45;&gt;\\OntologyWrapper\\ConnectionObject</title>
<path fill="none" stroke="black" d="M693.018,-150.12C688.554,-152.955 684.096,-155.958 680,-159 645.385,-184.702 609.199,-218.728 585.951,-241.663"/>
<polygon fill="none" stroke="black" points="583.208,-239.455 578.584,-248.987 588.144,-244.419 583.208,-239.455"/>
</g>
<!-- \\OntologyWrapper\\FAOInstitute -->
<g id="node45" class="node"><title>\\OntologyWrapper\\FAOInstitute</title>
<polygon fill="none" stroke="black" points="1259.75,-204 1186.25,-204 1186.25,-168 1259.75,-168 1259.75,-204"/>
<text text-anchor="middle" x="1223" y="-182.7" font-family="Times,serif" font-size="11.00">FAOInstitute</text>
</g>
<!-- \\OntologyWrapper\\FAOInstitute&#45;&gt;\\OntologyWrapper\\Institution -->
<g id="edge23" class="edge"><title>\\OntologyWrapper\\FAOInstitute&#45;&gt;\\OntologyWrapper\\Institution</title>
<path fill="none" stroke="black" d="M1186.37,-193.933C1175.77,-197.55 1164.69,-202.71 1156,-210 1112.38,-246.611 1130.32,-278.871 1092,-321 1091.38,-321.681 1090.74,-322.355 1090.08,-323.021"/>
<polygon fill="none" stroke="black" points="1087.62,-320.526 1082.54,-329.82 1092.31,-325.726 1087.62,-320.526"/>
</g>
<!-- \\OntologyWrapper\\MongoCollection -->
<g id="node46" class="node"><title>\\OntologyWrapper\\MongoCollection</title>
<polygon fill="none" stroke="black" points="939.608,-150 846.392,-150 846.392,-114 939.608,-114 939.608,-150"/>
<text text-anchor="middle" x="893" y="-128.7" font-family="Times,serif" font-size="11.00">MongoCollection</text>
</g>
<!-- \\OntologyWrapper\\MongoCollection&#45;&gt;\\OntologyWrapper\\CollectionObject -->
<g id="edge24" class="edge"><title>\\OntologyWrapper\\MongoCollection&#45;&gt;\\OntologyWrapper\\CollectionObject</title>
<path fill="none" stroke="black" d="M846.038,-132C826.043,-132 802.46,-132 781.581,-132"/>
<polygon fill="none" stroke="black" points="781.577,-128.5 771.577,-132 781.577,-135.5 781.577,-128.5"/>
</g>
<!-- \\OntologyWrapper\\Edge -->
<g id="node47" class="node"><title>\\OntologyWrapper\\Edge</title>
<polygon fill="none" stroke="black" points="753,-636 699,-636 699,-600 753,-600 753,-636"/>
<text text-anchor="middle" x="726" y="-614.7" font-family="Times,serif" font-size="11.00">Edge</text>
</g>
<!-- \\OntologyWrapper\\Edge&#45;&gt;\\OntologyWrapper\\PersistentObject -->
<g id="edge25" class="edge"><title>\\OntologyWrapper\\Edge&#45;&gt;\\OntologyWrapper\\PersistentObject</title>
<path fill="none" stroke="black" d="M698.67,-602.546C692.503,-598.831 685.987,-594.829 680,-591 650.936,-572.411 618.614,-550.316 594.999,-533.902"/>
<polygon fill="none" stroke="black" points="596.92,-530.975 586.715,-528.129 592.918,-536.718 596.92,-530.975"/>
</g>
<!-- \\OntologyWrapper\\OntologyObject&#45;&gt;\\OntologyWrapper\\ContainerObject -->
<g id="edge26" class="edge"><title>\\OntologyWrapper\\OntologyObject&#45;&gt;\\OntologyWrapper\\ContainerObject</title>
<path fill="none" stroke="black" d="M350.278,-520.614C330.253,-525.589 306.194,-531.567 285.018,-536.828"/>
<polygon fill="none" stroke="black" points="284.063,-533.459 275.202,-539.267 285.751,-540.252 284.063,-533.459"/>
</g>
<!-- \\OntologyWrapper\\Neo4jGraph -->
<g id="node49" class="node"><title>\\OntologyWrapper\\Neo4jGraph</title>
<polygon fill="none" stroke="black" points="761.373,-366 690.627,-366 690.627,-330 761.373,-330 761.373,-366"/>
<text text-anchor="start" x="703.398" y="-350.2" font-family="Times,serif" font-size="11.00">«abstract»</text>
<text text-anchor="start" x="698.814" y="-339.2" font-family="Times,serif" font-size="11.00">Neo4jGraph</text>
</g>
<!-- \\OntologyWrapper\\Neo4jGraph&#45;&gt;\\OntologyWrapper\\ConnectionObject -->
<g id="edge27" class="edge"><title>\\OntologyWrapper\\Neo4jGraph&#45;&gt;\\OntologyWrapper\\ConnectionObject</title>
<path fill="none" stroke="black" d="M690.62,-331.02C666.255,-318.985 633.304,-302.711 606.724,-289.583"/>
<polygon fill="none" stroke="black" points="608.128,-286.373 597.612,-285.083 605.028,-292.649 608.128,-286.373"/>
</g>
</g>
</svg>
