<?xml version="1.0" encoding="UTF-8" standalone="no"?>
<!DOCTYPE svg PUBLIC "-//W3C//DTD SVG 1.1//EN"
 "http://www.w3.org/Graphics/SVG/1.1/DTD/svg11.dtd">
<!-- Generated by graphviz version 2.36.0 (20140111.2315)
 -->
<!-- Title: G Pages: 1 -->
<svg width="1002pt" height="1291pt"
 viewBox="0.00 0.00 1002.00 1291.00" xmlns="http://www.w3.org/2000/svg" xmlns:xlink="http://www.w3.org/1999/xlink">
<g id="graph0" class="graph" transform="scale(1 1) rotate(0) translate(4 1287)">
<title>G</title>
<polygon fill="white" stroke="none" points="-4,4 -4,-1287 998,-1287 998,4 -4,4"/>
<g id="clust1" class="cluster"><title>cluster_Global</title>
<path fill="none" stroke="gray" d="M182,-8C182,-8 974,-8 974,-8 980,-8 986,-14 986,-20 986,-20 986,-1263 986,-1263 986,-1269 980,-1275 974,-1275 974,-1275 182,-1275 182,-1275 176,-1275 170,-1269 170,-1263 170,-1263 170,-20 170,-20 170,-14 176,-8 182,-8"/>
<text text-anchor="middle" x="578" y="-1262.2" font-family="Times,serif" font-size="11.00" fill="gray">Global</text>
</g>
<g id="clust2" class="cluster"><title>cluster_\OntologyWrapper</title>
<path fill="none" stroke="gray" d="M190,-16C190,-16 966,-16 966,-16 972,-16 978,-22 978,-28 978,-28 978,-1236 978,-1236 978,-1242 972,-1248 966,-1248 966,-1248 190,-1248 190,-1248 184,-1248 178,-1242 178,-1236 178,-1236 178,-28 178,-28 178,-22 184,-16 190,-16"/>
<text text-anchor="middle" x="578" y="-1235.2" font-family="Times,serif" font-size="11.00" fill="gray">OntologyWrapper</text>
</g>
<g id="clust3" class="cluster"><title>cluster_\OntologyWrapper\traits</title>
<path fill="none" stroke="gray" d="M848,-232C848,-232 958,-232 958,-232 964,-232 970,-238 970,-244 970,-244 970,-1209 970,-1209 970,-1215 964,-1221 958,-1221 958,-1221 848,-1221 848,-1221 842,-1221 836,-1215 836,-1209 836,-1209 836,-244 836,-244 836,-238 842,-232 848,-232"/>
<text text-anchor="middle" x="903" y="-1208.2" font-family="Times,serif" font-size="11.00" fill="gray">traits</text>
</g>
<!-- \\OntologyWrapper\\traits\\Label -->
<g id="node1" class="node"><title>\\OntologyWrapper\\traits\\Label</title>
<polygon fill="none" stroke="black" points="930,-1194 876,-1194 876,-1158 930,-1158 930,-1194"/>
<text text-anchor="middle" x="903" y="-1172.7" font-family="Times,serif" font-size="11.00">Label</text>
</g>
<!-- \\OntologyWrapper\\traits\\MemcachedDictionary -->
<g id="node2" class="node"><title>\\OntologyWrapper\\traits\\MemcachedDictionary</title>
<polygon fill="none" stroke="black" points="961.289,-1140 844.711,-1140 844.711,-1104 961.289,-1104 961.289,-1140"/>
<text text-anchor="middle" x="903" y="-1118.7" font-family="Times,serif" font-size="11.00">MemcachedDictionary</text>
</g>
<!-- \\OntologyWrapper\\traits\\Terms -->
<g id="node3" class="node"><title>\\OntologyWrapper\\traits\\Terms</title>
<polygon fill="none" stroke="black" points="930,-1086 876,-1086 876,-1050 930,-1050 930,-1086"/>
<text text-anchor="middle" x="903" y="-1064.7" font-family="Times,serif" font-size="11.00">Terms</text>
</g>
<!-- \\OntologyWrapper\\traits\\Definition -->
<g id="node4" class="node"><title>\\OntologyWrapper\\traits\\Definition</title>
<polygon fill="none" stroke="black" points="933.114,-1032 872.886,-1032 872.886,-996 933.114,-996 933.114,-1032"/>
<text text-anchor="middle" x="903" y="-1010.7" font-family="Times,serif" font-size="11.00">Definition</text>
</g>
<!-- \\OntologyWrapper\\traits\\Description -->
<g id="node5" class="node"><title>\\OntologyWrapper\\traits\\Description</title>
<polygon fill="none" stroke="black" points="936.822,-978 869.178,-978 869.178,-942 936.822,-942 936.822,-978"/>
<text text-anchor="middle" x="903" y="-956.7" font-family="Times,serif" font-size="11.00">Description</text>
</g>
<!-- \\OntologyWrapper\\traits\\Accessors -->
<g id="node6" class="node"><title>\\OntologyWrapper\\traits\\Accessors</title>
<polygon fill="none" stroke="black" points="933.098,-924 872.902,-924 872.902,-888 933.098,-888 933.098,-924"/>
<text text-anchor="middle" x="903" y="-902.7" font-family="Times,serif" font-size="11.00">Accessors</text>
</g>
<!-- \\OntologyWrapper\\traits\\DataType -->
<g id="node7" class="node"><title>\\OntologyWrapper\\traits\\DataType</title>
<polygon fill="none" stroke="black" points="932.1,-870 873.9,-870 873.9,-834 932.1,-834 932.1,-870"/>
<text text-anchor="middle" x="903" y="-848.7" font-family="Times,serif" font-size="11.00">DataType</text>
</g>
<!-- \\OntologyWrapper\\traits\\Status -->
<g id="node8" class="node"><title>\\OntologyWrapper\\traits\\Status</title>
<polygon fill="none" stroke="black" points="930,-816 876,-816 876,-780 930,-780 930,-816"/>
<text text-anchor="middle" x="903" y="-794.7" font-family="Times,serif" font-size="11.00">Status</text>
</g>
<!-- \\OntologyWrapper\\traits\\DataKind -->
<g id="node9" class="node"><title>\\OntologyWrapper\\traits\\DataKind</title>
<polygon fill="none" stroke="black" points="932.265,-762 873.735,-762 873.735,-726 932.265,-726 932.265,-762"/>
<text text-anchor="middle" x="903" y="-740.7" font-family="Times,serif" font-size="11.00">DataKind</text>
</g>
<!-- \\OntologyWrapper\\traits\\Affiliation -->
<g id="node10" class="node"><title>\\OntologyWrapper\\traits\\Affiliation</title>
<polygon fill="none" stroke="black" points="933.832,-708 872.168,-708 872.168,-672 933.832,-672 933.832,-708"/>
<text text-anchor="middle" x="903" y="-686.7" font-family="Times,serif" font-size="11.00">Affiliation</text>
</g>
<!-- \\OntologyWrapper\\traits\\Category -->
<g id="node11" class="node"><title>\\OntologyWrapper\\traits\\Category</title>
<polygon fill="none" stroke="black" points="931.322,-654 874.678,-654 874.678,-618 931.322,-618 931.322,-654"/>
<text text-anchor="middle" x="903" y="-632.7" font-family="Times,serif" font-size="11.00">Category</text>
</g>
<!-- \\OntologyWrapper\\traits\\Email -->
<g id="node12" class="node"><title>\\OntologyWrapper\\traits\\Email</title>
<polygon fill="none" stroke="black" points="930,-600 876,-600 876,-564 930,-564 930,-600"/>
<text text-anchor="middle" x="903" y="-578.7" font-family="Times,serif" font-size="11.00">Email</text>
</g>
<!-- \\OntologyWrapper\\traits\\EntityKind -->
<g id="node13" class="node"><title>\\OntologyWrapper\\traits\\EntityKind</title>
<polygon fill="none" stroke="black" points="935.388,-546 870.612,-546 870.612,-510 935.388,-510 935.388,-546"/>
<text text-anchor="middle" x="903" y="-524.7" font-family="Times,serif" font-size="11.00">EntityKind</text>
</g>
<!-- \\OntologyWrapper\\traits\\EntityType -->
<g id="node14" class="node"><title>\\OntologyWrapper\\traits\\EntityType</title>
<polygon fill="none" stroke="black" points="935.222,-492 870.778,-492 870.778,-456 935.222,-456 935.222,-492"/>
<text text-anchor="middle" x="903" y="-470.7" font-family="Times,serif" font-size="11.00">EntityType</text>
</g>
<!-- \\OntologyWrapper\\traits\\Fax -->
<g id="node15" class="node"><title>\\OntologyWrapper\\traits\\Fax</title>
<polygon fill="none" stroke="black" points="930,-438 876,-438 876,-402 930,-402 930,-438"/>
<text text-anchor="middle" x="903" y="-416.7" font-family="Times,serif" font-size="11.00">Fax</text>
</g>
<!-- \\OntologyWrapper\\traits\\Mail -->
<g id="node16" class="node"><title>\\OntologyWrapper\\traits\\Mail</title>
<polygon fill="none" stroke="black" points="930,-384 876,-384 876,-348 930,-348 930,-384"/>
<text text-anchor="middle" x="903" y="-362.7" font-family="Times,serif" font-size="11.00">Mail</text>
</g>
<!-- \\OntologyWrapper\\traits\\NodeType -->
<g id="node17" class="node"><title>\\OntologyWrapper\\traits\\NodeType</title>
<polygon fill="none" stroke="black" points="933.661,-330 872.339,-330 872.339,-294 933.661,-294 933.661,-330"/>
<text text-anchor="middle" x="903" y="-308.7" font-family="Times,serif" font-size="11.00">NodeType</text>
</g>
<!-- \\OntologyWrapper\\traits\\Phone -->
<g id="node18" class="node"><title>\\OntologyWrapper\\traits\\Phone</title>
<polygon fill="none" stroke="black" points="930,-276 876,-276 876,-240 930,-240 930,-276"/>
<text text-anchor="middle" x="903" y="-254.7" font-family="Times,serif" font-size="11.00">Phone</text>
</g>
<!-- \\OntologyWrapper\\DatabaseObject -->
<g id="node19" class="node"><title>\\OntologyWrapper\\DatabaseObject</title>
<polygon fill="none" stroke="black" points="768.632,-384 683.368,-384 683.368,-348 768.632,-348 768.632,-384"/>
<text text-anchor="start" x="703.398" y="-368.2" font-family="Times,serif" font-size="11.00">«abstract»</text>
<text text-anchor="start" x="691.185" y="-357.2" font-family="Times,serif" font-size="11.00">DatabaseObject</text>
</g>
<!-- \\OntologyWrapper\\ConnectionObject -->
<g id="node27" class="node"><title>\\OntologyWrapper\\ConnectionObject</title>
<polygon fill="none" stroke="black" points="608.035,-384 511.965,-384 511.965,-348 608.035,-348 608.035,-384"/>
<text text-anchor="start" x="537.398" y="-368.2" font-family="Times,serif" font-size="11.00">«abstract»</text>
<text text-anchor="start" x="519.983" y="-357.2" font-family="Times,serif" font-size="11.00">ConnectionObject</text>
</g>
<!-- \\OntologyWrapper\\DatabaseObject&#45;&gt;\\OntologyWrapper\\ConnectionObject -->
<g id="edge1" class="edge"><title>\\OntologyWrapper\\DatabaseObject&#45;&gt;\\OntologyWrapper\\ConnectionObject</title>
<path fill="none" stroke="black" d="M683.192,-366C663.537,-366 639.789,-366 618.476,-366"/>
<polygon fill="none" stroke="black" points="618.237,-362.5 608.237,-366 618.237,-369.5 618.237,-362.5"/>
</g>
<!-- \\OntologyWrapper\\MongoServer -->
<g id="node20" class="node"><title>\\OntologyWrapper\\MongoServer</title>
<polygon fill="none" stroke="black" points="941.491,-222 864.509,-222 864.509,-186 941.491,-186 941.491,-222"/>
<text text-anchor="middle" x="903" y="-200.7" font-family="Times,serif" font-size="11.00">MongoServer</text>
</g>
<!-- \\OntologyWrapper\\ServerObject -->
<g id="node32" class="node"><title>\\OntologyWrapper\\ServerObject</title>
<polygon fill="none" stroke="black" points="763.029,-438 688.971,-438 688.971,-402 763.029,-402 763.029,-438"/>
<text text-anchor="start" x="703.398" y="-422.2" font-family="Times,serif" font-size="11.00">«abstract»</text>
<text text-anchor="start" x="696.985" y="-411.2" font-family="Times,serif" font-size="11.00">ServerObject</text>
</g>
<!-- \\OntologyWrapper\\MongoServer&#45;&gt;\\OntologyWrapper\\ServerObject -->
<g id="edge2" class="edge"><title>\\OntologyWrapper\\MongoServer&#45;&gt;\\OntologyWrapper\\ServerObject</title>
<path fill="none" stroke="black" d="M864.627,-211.504C854.326,-215.078 843.841,-220.324 836,-228 779.794,-283.025 822.684,-332.85 772,-393 771.409,-393.701 770.795,-394.389 770.161,-395.063"/>
<polygon fill="none" stroke="black" points="767.8,-392.479 762.712,-401.772 772.485,-397.681 767.8,-392.479"/>
</g>
<!-- \\OntologyWrapper\\Wrapper -->
<g id="node21" class="node"><title>\\OntologyWrapper\\Wrapper</title>
<polygon fill="none" stroke="black" points="753.038,-492 698.962,-492 698.962,-456 753.038,-456 753.038,-492"/>
<text text-anchor="middle" x="726" y="-470.7" font-family="Times,serif" font-size="11.00">Wrapper</text>
</g>
<!-- \\OntologyWrapper\\Dictionary -->
<g id="node23" class="node"><title>\\OntologyWrapper\\Dictionary</title>
<polygon fill="none" stroke="black" points="591.54,-478 528.46,-478 528.46,-442 591.54,-442 591.54,-478"/>
<text text-anchor="middle" x="560" y="-456.7" font-family="Times,serif" font-size="11.00">Dictionary</text>
</g>
<!-- \\OntologyWrapper\\Wrapper&#45;&gt;\\OntologyWrapper\\Dictionary -->
<g id="edge3" class="edge"><title>\\OntologyWrapper\\Wrapper&#45;&gt;\\OntologyWrapper\\Dictionary</title>
<path fill="none" stroke="black" d="M698.651,-471.751C672.57,-469.524 632.269,-466.084 602.002,-463.5"/>
<polygon fill="none" stroke="black" points="602.015,-459.989 591.754,-462.625 601.42,-466.963 602.015,-459.989"/>
</g>
<!-- \\OntologyWrapper\\Tag -->
<g id="node22" class="node"><title>\\OntologyWrapper\\Tag</title>
<polygon fill="none" stroke="black" points="753,-276 699,-276 699,-240 753,-240 753,-276"/>
<text text-anchor="middle" x="726" y="-254.7" font-family="Times,serif" font-size="11.00">Tag</text>
</g>
<!-- \\OntologyWrapper\\PersistentObject -->
<g id="node28" class="node"><title>\\OntologyWrapper\\PersistentObject</title>
<polygon fill="none" stroke="black" points="604.096,-195 515.904,-195 515.904,-159 604.096,-159 604.096,-195"/>
<text text-anchor="start" x="537.398" y="-179.2" font-family="Times,serif" font-size="11.00">«abstract»</text>
<text text-anchor="start" x="523.952" y="-168.2" font-family="Times,serif" font-size="11.00">PersistentObject</text>
</g>
<!-- \\OntologyWrapper\\Tag&#45;&gt;\\OntologyWrapper\\PersistentObject -->
<g id="edge4" class="edge"><title>\\OntologyWrapper\\Tag&#45;&gt;\\OntologyWrapper\\PersistentObject</title>
<path fill="none" stroke="black" d="M698.651,-244.986C673.976,-232.799 636.574,-214.326 606.981,-199.71"/>
<polygon fill="none" stroke="black" points="608.19,-196.404 597.674,-195.113 605.09,-202.68 608.19,-196.404"/>
</g>
<!-- \\OntologyWrapper\\DictionaryObject -->
<g id="node29" class="node"><title>\\OntologyWrapper\\DictionaryObject</title>
<polygon fill="none" stroke="black" points="440.362,-451 347.638,-451 347.638,-415 440.362,-415 440.362,-451"/>
<text text-anchor="start" x="371.398" y="-435.2" font-family="Times,serif" font-size="11.00">«abstract»</text>
<text text-anchor="start" x="355.82" y="-424.2" font-family="Times,serif" font-size="11.00">DictionaryObject</text>
</g>
<!-- \\OntologyWrapper\\Dictionary&#45;&gt;\\OntologyWrapper\\DictionaryObject -->
<g id="edge5" class="edge"><title>\\OntologyWrapper\\Dictionary&#45;&gt;\\OntologyWrapper\\DictionaryObject</title>
<path fill="none" stroke="black" d="M528.153,-454.922C506.282,-451.321 476.328,-446.389 450.368,-442.116"/>
<polygon fill="none" stroke="black" points="450.706,-438.624 440.27,-440.453 449.569,-445.531 450.706,-438.624"/>
</g>
<!-- \\OntologyWrapper\\Term -->
<g id="node24" class="node"><title>\\OntologyWrapper\\Term</title>
<polygon fill="none" stroke="black" points="753,-222 699,-222 699,-186 753,-186 753,-222"/>
<text text-anchor="middle" x="726" y="-200.7" font-family="Times,serif" font-size="11.00">Term</text>
</g>
<!-- \\OntologyWrapper\\Term&#45;&gt;\\OntologyWrapper\\PersistentObject -->
<g id="edge6" class="edge"><title>\\OntologyWrapper\\Term&#45;&gt;\\OntologyWrapper\\PersistentObject</title>
<path fill="none" stroke="black" d="M698.651,-199.662C675.99,-195.931 642.594,-190.433 614.372,-185.787"/>
<polygon fill="none" stroke="black" points="614.674,-182.29 604.238,-184.118 613.537,-189.197 614.674,-182.29"/>
</g>
<!-- \\OntologyWrapper\\ContainerObject -->
<g id="node25" class="node"><title>\\OntologyWrapper\\ContainerObject</title>
<polygon fill="none" stroke="black" points="275.198,-417 186.802,-417 186.802,-381 275.198,-381 275.198,-417"/>
<text text-anchor="middle" x="231" y="-395.7" font-family="Times,serif" font-size="11.00">ContainerObject</text>
</g>
<!-- \\ArrayObject -->
<g id="node38" class="node"><title>\\ArrayObject</title>
<ellipse fill="none" stroke="black" cx="57" cy="-399" rx="56.5201" ry="18"/>
<text text-anchor="middle" x="57" y="-394.8" font-family="Times,serif" font-size="14.00" fill="gray">\ArrayObject</text>
</g>
<!-- \\OntologyWrapper\\ContainerObject&#45;&gt;\\ArrayObject -->
<g id="edge7" class="edge"><title>\\OntologyWrapper\\ContainerObject&#45;&gt;\\ArrayObject</title>
<path fill="none" stroke="black" d="M186.597,-399C167.611,-399 144.919,-399 123.919,-399"/>
<polygon fill="none" stroke="black" points="123.769,-395.5 113.769,-399 123.769,-402.5 123.769,-395.5"/>
</g>
<!-- \\OntologyWrapper\\MongoDatabase -->
<g id="node26" class="node"><title>\\OntologyWrapper\\MongoDatabase</title>
<polygon fill="none" stroke="black" points="947.091,-168 858.909,-168 858.909,-132 947.091,-132 947.091,-168"/>
<text text-anchor="middle" x="903" y="-146.7" font-family="Times,serif" font-size="11.00">MongoDatabase</text>
</g>
<!-- \\OntologyWrapper\\MongoDatabase&#45;&gt;\\OntologyWrapper\\DatabaseObject -->
<g id="edge8" class="edge"><title>\\OntologyWrapper\\MongoDatabase&#45;&gt;\\OntologyWrapper\\DatabaseObject</title>
<path fill="none" stroke="black" d="M858.777,-161.81C850.448,-165.613 842.352,-170.571 836,-177 781.591,-232.07 822.068,-279.955 772,-339 771.407,-339.699 770.791,-340.385 770.155,-341.058"/>
<polygon fill="none" stroke="black" points="767.797,-338.471 762.692,-347.755 772.472,-343.681 767.797,-338.471"/>
</g>
<!-- \\OntologyWrapper\\OntologyObject -->
<g id="node36" class="node"><title>\\OntologyWrapper\\OntologyObject</title>
<polygon fill="none" stroke="black" points="437.377,-384 350.623,-384 350.623,-348 437.377,-348 437.377,-384"/>
<text text-anchor="start" x="371.398" y="-368.2" font-family="Times,serif" font-size="11.00">«abstract»</text>
<text text-anchor="start" x="358.562" y="-357.2" font-family="Times,serif" font-size="11.00">OntologyObject</text>
</g>
<!-- \\OntologyWrapper\\ConnectionObject&#45;&gt;\\OntologyWrapper\\OntologyObject -->
<g id="edge9" class="edge"><title>\\OntologyWrapper\\ConnectionObject&#45;&gt;\\OntologyWrapper\\OntologyObject</title>
<path fill="none" stroke="black" d="M511.564,-366C491.575,-366 468.232,-366 447.707,-366"/>
<polygon fill="none" stroke="black" points="447.576,-362.5 437.576,-366 447.576,-369.5 447.576,-362.5"/>
</g>
<!-- \\OntologyWrapper\\PersistentObject&#45;&gt;\\OntologyWrapper\\OntologyObject -->
<g id="edge10" class="edge"><title>\\OntologyWrapper\\PersistentObject&#45;&gt;\\OntologyWrapper\\OntologyObject</title>
<path fill="none" stroke="black" d="M543.275,-195.122C514.01,-228.849 451.104,-301.343 417.403,-340.182"/>
<polygon fill="none" stroke="black" points="414.588,-338.086 410.677,-347.933 419.875,-342.674 414.588,-338.086"/>
</g>
<!-- \\OntologyWrapper\\DictionaryObject&#45;&gt;\\OntologyWrapper\\ContainerObject -->
<g id="edge11" class="edge"><title>\\OntologyWrapper\\DictionaryObject&#45;&gt;\\OntologyWrapper\\ContainerObject</title>
<path fill="none" stroke="black" d="M347.724,-423.439C328.31,-419.339 305.492,-414.52 285.271,-410.25"/>
<polygon fill="none" stroke="black" points="285.781,-406.78 275.274,-408.139 284.335,-413.629 285.781,-406.78"/>
</g>
<!-- \\OntologyWrapper\\Node -->
<g id="node30" class="node"><title>\\OntologyWrapper\\Node</title>
<polygon fill="none" stroke="black" points="753,-168 699,-168 699,-132 753,-132 753,-168"/>
<text text-anchor="middle" x="726" y="-146.7" font-family="Times,serif" font-size="11.00">Node</text>
</g>
<!-- \\OntologyWrapper\\Node&#45;&gt;\\OntologyWrapper\\PersistentObject -->
<g id="edge12" class="edge"><title>\\OntologyWrapper\\Node&#45;&gt;\\OntologyWrapper\\PersistentObject</title>
<path fill="none" stroke="black" d="M698.651,-154.338C675.99,-158.069 642.594,-163.567 614.372,-168.213"/>
<polygon fill="none" stroke="black" points="613.537,-164.803 604.238,-169.882 614.674,-171.71 613.537,-164.803"/>
</g>
<!-- \\OntologyWrapper\\UnitObject -->
<g id="node31" class="node"><title>\\OntologyWrapper\\UnitObject</title>
<polygon fill="none" stroke="black" points="758.377,-60 693.623,-60 693.623,-24 758.377,-24 758.377,-60"/>
<text text-anchor="start" x="703.398" y="-44.2" font-family="Times,serif" font-size="11.00">«abstract»</text>
<text text-anchor="start" x="701.562" y="-33.2" font-family="Times,serif" font-size="11.00">UnitObject</text>
</g>
<!-- \\OntologyWrapper\\UnitObject&#45;&gt;\\OntologyWrapper\\PersistentObject -->
<g id="edge13" class="edge"><title>\\OntologyWrapper\\UnitObject&#45;&gt;\\OntologyWrapper\\PersistentObject</title>
<path fill="none" stroke="black" d="M693.497,-59.8167C688.873,-62.741 684.243,-65.8498 680,-69 645.385,-94.7022 609.199,-128.728 585.951,-151.663"/>
<polygon fill="none" stroke="black" points="583.208,-149.455 578.584,-158.987 588.144,-154.419 583.208,-149.455"/>
</g>
<!-- \\OntologyWrapper\\ServerObject&#45;&gt;\\OntologyWrapper\\ConnectionObject -->
<g id="edge14" class="edge"><title>\\OntologyWrapper\\ServerObject&#45;&gt;\\OntologyWrapper\\ConnectionObject</title>
<path fill="none" stroke="black" d="M688.603,-408.016C667.785,-401.161 641.218,-392.413 617.72,-384.676"/>
<polygon fill="none" stroke="black" points="618.798,-381.346 608.205,-381.543 616.609,-387.995 618.798,-381.346"/>
</g>
<!-- \\OntologyWrapper\\CollectionObject -->
<g id="node33" class="node"><title>\\OntologyWrapper\\CollectionObject</title>
<polygon fill="none" stroke="black" points="771.647,-330 680.353,-330 680.353,-294 771.647,-294 771.647,-330"/>
<text text-anchor="start" x="703.398" y="-314.2" font-family="Times,serif" font-size="11.00">«abstract»</text>
<text text-anchor="start" x="688.427" y="-303.2" font-family="Times,serif" font-size="11.00">CollectionObject</text>
</g>
<!-- \\OntologyWrapper\\CollectionObject&#45;&gt;\\OntologyWrapper\\ConnectionObject -->
<g id="edge15" class="edge"><title>\\OntologyWrapper\\CollectionObject&#45;&gt;\\OntologyWrapper\\ConnectionObject</title>
<path fill="none" stroke="black" d="M680.186,-326.756C660.864,-333.118 638.048,-340.631 617.577,-347.371"/>
<polygon fill="none" stroke="black" points="616.454,-344.056 608.051,-350.508 618.644,-350.705 616.454,-344.056"/>
</g>
<!-- \\OntologyWrapper\\MongoCollection -->
<g id="node34" class="node"><title>\\OntologyWrapper\\MongoCollection</title>
<polygon fill="none" stroke="black" points="949.608,-114 856.392,-114 856.392,-78 949.608,-78 949.608,-114"/>
<text text-anchor="middle" x="903" y="-92.7" font-family="Times,serif" font-size="11.00">MongoCollection</text>
</g>
<!-- \\OntologyWrapper\\MongoCollection&#45;&gt;\\OntologyWrapper\\CollectionObject -->
<g id="edge16" class="edge"><title>\\OntologyWrapper\\MongoCollection&#45;&gt;\\OntologyWrapper\\CollectionObject</title>
<path fill="none" stroke="black" d="M856.388,-108.936C848.911,-112.578 841.743,-117.188 836,-123 781.591,-178.07 822.068,-225.955 772,-285 771.407,-285.699 770.791,-286.385 770.155,-287.058"/>
<polygon fill="none" stroke="black" points="767.797,-284.471 762.692,-293.755 772.472,-289.681 767.797,-284.471"/>
</g>
<!-- \\OntologyWrapper\\Edge -->
<g id="node35" class="node"><title>\\OntologyWrapper\\Edge</title>
<polygon fill="none" stroke="black" points="753,-114 699,-114 699,-78 753,-78 753,-114"/>
<text text-anchor="middle" x="726" y="-92.7" font-family="Times,serif" font-size="11.00">Edge</text>
</g>
<!-- \\OntologyWrapper\\Edge&#45;&gt;\\OntologyWrapper\\PersistentObject -->
<g id="edge17" class="edge"><title>\\OntologyWrapper\\Edge&#45;&gt;\\OntologyWrapper\\PersistentObject</title>
<path fill="none" stroke="black" d="M698.651,-109.014C673.976,-121.201 636.574,-139.674 606.981,-154.29"/>
<polygon fill="none" stroke="black" points="605.09,-151.32 597.674,-158.887 608.19,-157.596 605.09,-151.32"/>
</g>
<!-- \\OntologyWrapper\\OntologyObject&#45;&gt;\\OntologyWrapper\\ContainerObject -->
<g id="edge18" class="edge"><title>\\OntologyWrapper\\OntologyObject&#45;&gt;\\OntologyWrapper\\ContainerObject</title>
<path fill="none" stroke="black" d="M350.278,-374.757C330.253,-378.861 306.194,-383.793 285.018,-388.133"/>
<polygon fill="none" stroke="black" points="284.296,-384.708 275.202,-390.145 285.701,-391.566 284.296,-384.708"/>
</g>
<!-- \\OntologyWrapper\\EntityObject -->
<g id="node37" class="node"><title>\\OntologyWrapper\\EntityObject</title>
<polygon fill="none" stroke="black" points="939.209,-60 866.791,-60 866.791,-24 939.209,-24 939.209,-60"/>
<text text-anchor="start" x="880.398" y="-44.2" font-family="Times,serif" font-size="11.00">«abstract»</text>
<text text-anchor="start" x="874.896" y="-33.2" font-family="Times,serif" font-size="11.00">EntityObject</text>
</g>
<!-- \\OntologyWrapper\\EntityObject&#45;&gt;\\OntologyWrapper\\UnitObject -->
<g id="edge19" class="edge"><title>\\OntologyWrapper\\EntityObject&#45;&gt;\\OntologyWrapper\\UnitObject</title>
<path fill="none" stroke="black" d="M866.586,-42C838.265,-42 798.498,-42 768.651,-42"/>
<polygon fill="none" stroke="black" points="768.542,-38.5001 758.542,-42 768.542,-45.5001 768.542,-38.5001"/>
</g>
</g>
</svg>
