<?xml version="1.0" encoding="UTF-8" standalone="no"?>
<!DOCTYPE svg PUBLIC "-//W3C//DTD SVG 1.1//EN"
 "http://www.w3.org/Graphics/SVG/1.1/DTD/svg11.dtd">
<!-- Generated by graphviz version 2.36.0 (20140111.2315)
 -->
<!-- Title: G Pages: 1 -->
<svg width="1002pt" height="751pt"
 viewBox="0.00 0.00 1002.00 751.00" xmlns="http://www.w3.org/2000/svg" xmlns:xlink="http://www.w3.org/1999/xlink">
<g id="graph0" class="graph" transform="scale(1 1) rotate(0) translate(4 747)">
<title>G</title>
<polygon fill="white" stroke="none" points="-4,4 -4,-747 998,-747 998,4 -4,4"/>
<g id="clust1" class="cluster"><title>cluster_Global</title>
<path fill="none" stroke="gray" d="M182,-8C182,-8 974,-8 974,-8 980,-8 986,-14 986,-20 986,-20 986,-723 986,-723 986,-729 980,-735 974,-735 974,-735 182,-735 182,-735 176,-735 170,-729 170,-723 170,-723 170,-20 170,-20 170,-14 176,-8 182,-8"/>
<text text-anchor="middle" x="578" y="-722.2" font-family="Times,serif" font-size="11.00" fill="gray">Global</text>
</g>
<g id="clust2" class="cluster"><title>cluster_\OntologyWrapper</title>
<path fill="none" stroke="gray" d="M190,-16C190,-16 966,-16 966,-16 972,-16 978,-22 978,-28 978,-28 978,-696 978,-696 978,-702 972,-708 966,-708 966,-708 190,-708 190,-708 184,-708 178,-702 178,-696 178,-696 178,-28 178,-28 178,-22 184,-16 190,-16"/>
<text text-anchor="middle" x="578" y="-695.2" font-family="Times,serif" font-size="11.00" fill="gray">OntologyWrapper</text>
</g>
<g id="clust3" class="cluster"><title>cluster_\OntologyWrapper\traits</title>
<path fill="none" stroke="gray" d="M848,-178C848,-178 958,-178 958,-178 964,-178 970,-184 970,-190 970,-190 970,-669 970,-669 970,-675 964,-681 958,-681 958,-681 848,-681 848,-681 842,-681 836,-675 836,-669 836,-669 836,-190 836,-190 836,-184 842,-178 848,-178"/>
<text text-anchor="middle" x="903" y="-668.2" font-family="Times,serif" font-size="11.00" fill="gray">traits</text>
</g>
<!-- \\OntologyWrapper\\traits\\Label -->
<g id="node1" class="node"><title>\\OntologyWrapper\\traits\\Label</title>
<polygon fill="none" stroke="black" points="930,-654 876,-654 876,-618 930,-618 930,-654"/>
<text text-anchor="middle" x="903" y="-632.7" font-family="Times,serif" font-size="11.00">Label</text>
</g>
<!-- \\OntologyWrapper\\traits\\MemcachedDictionary -->
<g id="node2" class="node"><title>\\OntologyWrapper\\traits\\MemcachedDictionary</title>
<polygon fill="none" stroke="black" points="961.289,-600 844.711,-600 844.711,-564 961.289,-564 961.289,-600"/>
<text text-anchor="middle" x="903" y="-578.7" font-family="Times,serif" font-size="11.00">MemcachedDictionary</text>
</g>
<!-- \\OntologyWrapper\\traits\\Terms -->
<g id="node3" class="node"><title>\\OntologyWrapper\\traits\\Terms</title>
<polygon fill="none" stroke="black" points="930,-546 876,-546 876,-510 930,-510 930,-546"/>
<text text-anchor="middle" x="903" y="-524.7" font-family="Times,serif" font-size="11.00">Terms</text>
</g>
<!-- \\OntologyWrapper\\traits\\Definition -->
<g id="node4" class="node"><title>\\OntologyWrapper\\traits\\Definition</title>
<polygon fill="none" stroke="black" points="933.114,-492 872.886,-492 872.886,-456 933.114,-456 933.114,-492"/>
<text text-anchor="middle" x="903" y="-470.7" font-family="Times,serif" font-size="11.00">Definition</text>
</g>
<!-- \\OntologyWrapper\\traits\\Description -->
<g id="node5" class="node"><title>\\OntologyWrapper\\traits\\Description</title>
<polygon fill="none" stroke="black" points="936.822,-438 869.178,-438 869.178,-402 936.822,-402 936.822,-438"/>
<text text-anchor="middle" x="903" y="-416.7" font-family="Times,serif" font-size="11.00">Description</text>
</g>
<!-- \\OntologyWrapper\\traits\\Accessors -->
<g id="node6" class="node"><title>\\OntologyWrapper\\traits\\Accessors</title>
<polygon fill="none" stroke="black" points="933.098,-384 872.902,-384 872.902,-348 933.098,-348 933.098,-384"/>
<text text-anchor="middle" x="903" y="-362.7" font-family="Times,serif" font-size="11.00">Accessors</text>
</g>
<!-- \\OntologyWrapper\\traits\\DataType -->
<g id="node7" class="node"><title>\\OntologyWrapper\\traits\\DataType</title>
<polygon fill="none" stroke="black" points="932.1,-330 873.9,-330 873.9,-294 932.1,-294 932.1,-330"/>
<text text-anchor="middle" x="903" y="-308.7" font-family="Times,serif" font-size="11.00">DataType</text>
</g>
<!-- \\OntologyWrapper\\traits\\Status -->
<g id="node8" class="node"><title>\\OntologyWrapper\\traits\\Status</title>
<polygon fill="none" stroke="black" points="930,-276 876,-276 876,-240 930,-240 930,-276"/>
<text text-anchor="middle" x="903" y="-254.7" font-family="Times,serif" font-size="11.00">Status</text>
</g>
<!-- \\OntologyWrapper\\traits\\DataKind -->
<g id="node9" class="node"><title>\\OntologyWrapper\\traits\\DataKind</title>
<polygon fill="none" stroke="black" points="932.265,-222 873.735,-222 873.735,-186 932.265,-186 932.265,-222"/>
<text text-anchor="middle" x="903" y="-200.7" font-family="Times,serif" font-size="11.00">DataKind</text>
</g>
<!-- \\OntologyWrapper\\DatabaseObject -->
<g id="node10" class="node"><title>\\OntologyWrapper\\DatabaseObject</title>
<polygon fill="none" stroke="black" points="768.632,-114 683.368,-114 683.368,-78 768.632,-78 768.632,-114"/>
<text text-anchor="start" x="703.398" y="-98.2" font-family="Times,serif" font-size="11.00">«abstract»</text>
<text text-anchor="start" x="691.185" y="-87.2" font-family="Times,serif" font-size="11.00">DatabaseObject</text>
</g>
<!-- \\OntologyWrapper\\ConnectionObject -->
<g id="node18" class="node"><title>\\OntologyWrapper\\ConnectionObject</title>
<polygon fill="none" stroke="black" points="608.035,-141 511.965,-141 511.965,-105 608.035,-105 608.035,-141"/>
<text text-anchor="start" x="537.398" y="-125.2" font-family="Times,serif" font-size="11.00">«abstract»</text>
<text text-anchor="start" x="519.983" y="-114.2" font-family="Times,serif" font-size="11.00">ConnectionObject</text>
</g>
<!-- \\OntologyWrapper\\DatabaseObject&#45;&gt;\\OntologyWrapper\\ConnectionObject -->
<g id="edge1" class="edge"><title>\\OntologyWrapper\\DatabaseObject&#45;&gt;\\OntologyWrapper\\ConnectionObject</title>
<path fill="none" stroke="black" d="M683.192,-102.883C663.447,-106.134 639.573,-110.064 618.185,-113.585"/>
<polygon fill="none" stroke="black" points="617.536,-110.145 608.237,-115.223 618.673,-117.052 617.536,-110.145"/>
</g>
<!-- \\OntologyWrapper\\MongoServer -->
<g id="node11" class="node"><title>\\OntologyWrapper\\MongoServer</title>
<polygon fill="none" stroke="black" points="941.491,-168 864.509,-168 864.509,-132 941.491,-132 941.491,-168"/>
<text text-anchor="middle" x="903" y="-146.7" font-family="Times,serif" font-size="11.00">MongoServer</text>
</g>
<!-- \\OntologyWrapper\\ServerObject -->
<g id="node22" class="node"><title>\\OntologyWrapper\\ServerObject</title>
<polygon fill="none" stroke="black" points="763.029,-168 688.971,-168 688.971,-132 763.029,-132 763.029,-168"/>
<text text-anchor="start" x="703.398" y="-152.2" font-family="Times,serif" font-size="11.00">«abstract»</text>
<text text-anchor="start" x="696.985" y="-141.2" font-family="Times,serif" font-size="11.00">ServerObject</text>
</g>
<!-- \\OntologyWrapper\\MongoServer&#45;&gt;\\OntologyWrapper\\ServerObject -->
<g id="edge2" class="edge"><title>\\OntologyWrapper\\MongoServer&#45;&gt;\\OntologyWrapper\\ServerObject</title>
<path fill="none" stroke="black" d="M864.458,-150C837.803,-150 801.846,-150 773.394,-150"/>
<polygon fill="none" stroke="black" points="773.282,-146.5 763.282,-150 773.282,-153.5 773.282,-146.5"/>
</g>
<!-- \\OntologyWrapper\\Wrapper -->
<g id="node12" class="node"><title>\\OntologyWrapper\\Wrapper</title>
<polygon fill="none" stroke="black" points="753.038,-438 698.962,-438 698.962,-402 753.038,-402 753.038,-438"/>
<text text-anchor="middle" x="726" y="-416.7" font-family="Times,serif" font-size="11.00">Wrapper</text>
</g>
<!-- \\OntologyWrapper\\Dictionary -->
<g id="node14" class="node"><title>\\OntologyWrapper\\Dictionary</title>
<polygon fill="none" stroke="black" points="591.54,-417 528.46,-417 528.46,-381 591.54,-381 591.54,-417"/>
<text text-anchor="middle" x="560" y="-395.7" font-family="Times,serif" font-size="11.00">Dictionary</text>
</g>
<!-- \\OntologyWrapper\\Wrapper&#45;&gt;\\OntologyWrapper\\Dictionary -->
<g id="edge3" class="edge"><title>\\OntologyWrapper\\Wrapper&#45;&gt;\\OntologyWrapper\\Dictionary</title>
<path fill="none" stroke="black" d="M698.651,-416.626C672.57,-413.286 632.269,-408.126 602.002,-404.25"/>
<polygon fill="none" stroke="black" points="602.117,-400.737 591.754,-402.938 601.228,-407.68 602.117,-400.737"/>
</g>
<!-- \\OntologyWrapper\\Tag -->
<g id="node13" class="node"><title>\\OntologyWrapper\\Tag</title>
<polygon fill="none" stroke="black" points="753,-384 699,-384 699,-348 753,-348 753,-384"/>
<text text-anchor="middle" x="726" y="-362.7" font-family="Times,serif" font-size="11.00">Tag</text>
</g>
<!-- \\OntologyWrapper\\PersistentObject -->
<g id="node19" class="node"><title>\\OntologyWrapper\\PersistentObject</title>
<polygon fill="none" stroke="black" points="604.096,-303 515.904,-303 515.904,-267 604.096,-267 604.096,-303"/>
<text text-anchor="start" x="537.398" y="-287.2" font-family="Times,serif" font-size="11.00">«abstract»</text>
<text text-anchor="start" x="523.952" y="-276.2" font-family="Times,serif" font-size="11.00">PersistentObject</text>
</g>
<!-- \\OntologyWrapper\\Tag&#45;&gt;\\OntologyWrapper\\PersistentObject -->
<g id="edge4" class="edge"><title>\\OntologyWrapper\\Tag&#45;&gt;\\OntologyWrapper\\PersistentObject</title>
<path fill="none" stroke="black" d="M698.651,-352.986C673.976,-340.799 636.574,-322.326 606.981,-307.71"/>
<polygon fill="none" stroke="black" points="608.19,-304.404 597.674,-303.113 605.09,-310.68 608.19,-304.404"/>
</g>
<!-- \\OntologyWrapper\\DictionaryObject -->
<g id="node20" class="node"><title>\\OntologyWrapper\\DictionaryObject</title>
<polygon fill="none" stroke="black" points="440.362,-377 347.638,-377 347.638,-341 440.362,-341 440.362,-377"/>
<text text-anchor="start" x="371.398" y="-361.2" font-family="Times,serif" font-size="11.00">«abstract»</text>
<text text-anchor="start" x="355.82" y="-350.2" font-family="Times,serif" font-size="11.00">DictionaryObject</text>
</g>
<!-- \\OntologyWrapper\\Dictionary&#45;&gt;\\OntologyWrapper\\DictionaryObject -->
<g id="edge5" class="edge"><title>\\OntologyWrapper\\Dictionary&#45;&gt;\\OntologyWrapper\\DictionaryObject</title>
<path fill="none" stroke="black" d="M528.153,-391.476C506.185,-386.118 476.063,-378.771 450.024,-372.42"/>
<polygon fill="none" stroke="black" points="450.815,-369.011 440.27,-370.041 449.156,-375.811 450.815,-369.011"/>
</g>
<!-- \\OntologyWrapper\\Term -->
<g id="node15" class="node"><title>\\OntologyWrapper\\Term</title>
<polygon fill="none" stroke="black" points="753,-330 699,-330 699,-294 753,-294 753,-330"/>
<text text-anchor="middle" x="726" y="-308.7" font-family="Times,serif" font-size="11.00">Term</text>
</g>
<!-- \\OntologyWrapper\\Term&#45;&gt;\\OntologyWrapper\\PersistentObject -->
<g id="edge6" class="edge"><title>\\OntologyWrapper\\Term&#45;&gt;\\OntologyWrapper\\PersistentObject</title>
<path fill="none" stroke="black" d="M698.651,-307.662C675.99,-303.931 642.594,-298.433 614.372,-293.787"/>
<polygon fill="none" stroke="black" points="614.674,-290.29 604.238,-292.118 613.537,-297.197 614.674,-290.29"/>
</g>
<!-- \\OntologyWrapper\\ContainerObject -->
<g id="node16" class="node"><title>\\OntologyWrapper\\ContainerObject</title>
<polygon fill="none" stroke="black" points="275.198,-340 186.802,-340 186.802,-304 275.198,-304 275.198,-340"/>
<text text-anchor="middle" x="231" y="-318.7" font-family="Times,serif" font-size="11.00">ContainerObject</text>
</g>
<!-- \\ArrayObject -->
<g id="node27" class="node"><title>\\ArrayObject</title>
<ellipse fill="none" stroke="black" cx="57" cy="-322" rx="56.5201" ry="18"/>
<text text-anchor="middle" x="57" y="-317.8" font-family="Times,serif" font-size="14.00" fill="gray">\ArrayObject</text>
</g>
<!-- \\OntologyWrapper\\ContainerObject&#45;&gt;\\ArrayObject -->
<g id="edge7" class="edge"><title>\\OntologyWrapper\\ContainerObject&#45;&gt;\\ArrayObject</title>
<path fill="none" stroke="black" d="M186.597,-322C167.611,-322 144.919,-322 123.919,-322"/>
<polygon fill="none" stroke="black" points="123.769,-318.5 113.769,-322 123.769,-325.5 123.769,-318.5"/>
</g>
<!-- \\OntologyWrapper\\MongoDatabase -->
<g id="node17" class="node"><title>\\OntologyWrapper\\MongoDatabase</title>
<polygon fill="none" stroke="black" points="947.091,-114 858.909,-114 858.909,-78 947.091,-78 947.091,-114"/>
<text text-anchor="middle" x="903" y="-92.7" font-family="Times,serif" font-size="11.00">MongoDatabase</text>
</g>
<!-- \\OntologyWrapper\\MongoDatabase&#45;&gt;\\OntologyWrapper\\DatabaseObject -->
<g id="edge8" class="edge"><title>\\OntologyWrapper\\MongoDatabase&#45;&gt;\\OntologyWrapper\\DatabaseObject</title>
<path fill="none" stroke="black" d="M858.742,-96C834.634,-96 804.445,-96 779.051,-96"/>
<polygon fill="none" stroke="black" points="778.856,-92.5001 768.856,-96 778.856,-99.5001 778.856,-92.5001"/>
</g>
<!-- \\OntologyWrapper\\OntologyObject -->
<g id="node26" class="node"><title>\\OntologyWrapper\\OntologyObject</title>
<polygon fill="none" stroke="black" points="437.377,-303 350.623,-303 350.623,-267 437.377,-267 437.377,-303"/>
<text text-anchor="start" x="371.398" y="-287.2" font-family="Times,serif" font-size="11.00">«abstract»</text>
<text text-anchor="start" x="358.562" y="-276.2" font-family="Times,serif" font-size="11.00">OntologyObject</text>
</g>
<!-- \\OntologyWrapper\\ConnectionObject&#45;&gt;\\OntologyWrapper\\OntologyObject -->
<g id="edge9" class="edge"><title>\\OntologyWrapper\\ConnectionObject&#45;&gt;\\OntologyWrapper\\OntologyObject</title>
<path fill="none" stroke="black" d="M540.506,-141.269C511.223,-170.194 454.1,-226.62 420.802,-259.513"/>
<polygon fill="none" stroke="black" points="418.333,-257.032 413.678,-266.55 423.252,-262.012 418.333,-257.032"/>
</g>
<!-- \\OntologyWrapper\\PersistentObject&#45;&gt;\\OntologyWrapper\\OntologyObject -->
<g id="edge10" class="edge"><title>\\OntologyWrapper\\PersistentObject&#45;&gt;\\OntologyWrapper\\OntologyObject</title>
<path fill="none" stroke="black" d="M515.911,-285C495.019,-285 469.741,-285 447.71,-285"/>
<polygon fill="none" stroke="black" points="447.517,-281.5 437.517,-285 447.517,-288.5 447.517,-281.5"/>
</g>
<!-- \\OntologyWrapper\\DictionaryObject&#45;&gt;\\OntologyWrapper\\ContainerObject -->
<g id="edge11" class="edge"><title>\\OntologyWrapper\\DictionaryObject&#45;&gt;\\OntologyWrapper\\ContainerObject</title>
<path fill="none" stroke="black" d="M347.724,-348.595C328.31,-344.133 305.492,-338.889 285.271,-334.242"/>
<polygon fill="none" stroke="black" points="285.804,-330.774 275.274,-331.945 284.236,-337.596 285.804,-330.774"/>
</g>
<!-- \\OntologyWrapper\\Node -->
<g id="node21" class="node"><title>\\OntologyWrapper\\Node</title>
<polygon fill="none" stroke="black" points="753,-276 699,-276 699,-240 753,-240 753,-276"/>
<text text-anchor="middle" x="726" y="-254.7" font-family="Times,serif" font-size="11.00">Node</text>
</g>
<!-- \\OntologyWrapper\\Node&#45;&gt;\\OntologyWrapper\\PersistentObject -->
<g id="edge12" class="edge"><title>\\OntologyWrapper\\Node&#45;&gt;\\OntologyWrapper\\PersistentObject</title>
<path fill="none" stroke="black" d="M698.651,-262.338C675.99,-266.069 642.594,-271.567 614.372,-276.213"/>
<polygon fill="none" stroke="black" points="613.537,-272.803 604.238,-277.882 614.674,-279.71 613.537,-272.803"/>
</g>
<!-- \\OntologyWrapper\\ServerObject&#45;&gt;\\OntologyWrapper\\ConnectionObject -->
<g id="edge13" class="edge"><title>\\OntologyWrapper\\ServerObject&#45;&gt;\\OntologyWrapper\\ConnectionObject</title>
<path fill="none" stroke="black" d="M688.603,-144.008C667.97,-140.611 641.689,-136.284 618.347,-132.441"/>
<polygon fill="none" stroke="black" points="618.641,-128.943 608.205,-130.772 617.504,-135.85 618.641,-128.943"/>
</g>
<!-- \\OntologyWrapper\\CollectionObject -->
<g id="node23" class="node"><title>\\OntologyWrapper\\CollectionObject</title>
<polygon fill="none" stroke="black" points="771.647,-60 680.353,-60 680.353,-24 771.647,-24 771.647,-60"/>
<text text-anchor="start" x="703.398" y="-44.2" font-family="Times,serif" font-size="11.00">«abstract»</text>
<text text-anchor="start" x="688.427" y="-33.2" font-family="Times,serif" font-size="11.00">CollectionObject</text>
</g>
<!-- \\OntologyWrapper\\CollectionObject&#45;&gt;\\OntologyWrapper\\ConnectionObject -->
<g id="edge14" class="edge"><title>\\OntologyWrapper\\CollectionObject&#45;&gt;\\OntologyWrapper\\ConnectionObject</title>
<path fill="none" stroke="black" d="M688.195,-60.178C664.14,-72.059 632.538,-87.6671 606.853,-100.353"/>
<polygon fill="none" stroke="black" points="605.098,-97.3162 597.682,-104.883 608.198,-103.592 605.098,-97.3162"/>
</g>
<!-- \\OntologyWrapper\\MongoCollection -->
<g id="node24" class="node"><title>\\OntologyWrapper\\MongoCollection</title>
<polygon fill="none" stroke="black" points="949.608,-60 856.392,-60 856.392,-24 949.608,-24 949.608,-60"/>
<text text-anchor="middle" x="903" y="-38.7" font-family="Times,serif" font-size="11.00">MongoCollection</text>
</g>
<!-- \\OntologyWrapper\\MongoCollection&#45;&gt;\\OntologyWrapper\\CollectionObject -->
<g id="edge15" class="edge"><title>\\OntologyWrapper\\MongoCollection&#45;&gt;\\OntologyWrapper\\CollectionObject</title>
<path fill="none" stroke="black" d="M856.021,-42C833.35,-42 805.837,-42 782.052,-42"/>
<polygon fill="none" stroke="black" points="781.765,-38.5001 771.765,-42 781.765,-45.5001 781.765,-38.5001"/>
</g>
<!-- \\OntologyWrapper\\Edge -->
<g id="node25" class="node"><title>\\OntologyWrapper\\Edge</title>
<polygon fill="none" stroke="black" points="753,-222 699,-222 699,-186 753,-186 753,-222"/>
<text text-anchor="middle" x="726" y="-200.7" font-family="Times,serif" font-size="11.00">Edge</text>
</g>
<!-- \\OntologyWrapper\\Edge&#45;&gt;\\OntologyWrapper\\PersistentObject -->
<g id="edge16" class="edge"><title>\\OntologyWrapper\\Edge&#45;&gt;\\OntologyWrapper\\PersistentObject</title>
<path fill="none" stroke="black" d="M698.651,-217.014C673.976,-229.201 636.574,-247.674 606.981,-262.29"/>
<polygon fill="none" stroke="black" points="605.09,-259.32 597.674,-266.887 608.19,-265.596 605.09,-259.32"/>
</g>
<!-- \\OntologyWrapper\\OntologyObject&#45;&gt;\\OntologyWrapper\\ContainerObject -->
<g id="edge17" class="edge"><title>\\OntologyWrapper\\OntologyObject&#45;&gt;\\OntologyWrapper\\ContainerObject</title>
<path fill="none" stroke="black" d="M350.278,-294.818C330.253,-299.42 306.194,-304.949 285.018,-309.816"/>
<polygon fill="none" stroke="black" points="284.164,-306.421 275.202,-312.072 285.732,-313.243 284.164,-306.421"/>
</g>
</g>
</svg>
