<?xml version="1.0" encoding="UTF-8" standalone="no"?>
<!DOCTYPE svg PUBLIC "-//W3C//DTD SVG 1.1//EN"
 "http://www.w3.org/Graphics/SVG/1.1/DTD/svg11.dtd">
<!-- Generated by graphviz version 2.36.0 (20140111.2315)
 -->
<!-- Title: G Pages: 1 -->
<svg width="1322pt" height="1597pt"
 viewBox="0.00 0.00 1322.00 1597.00" xmlns="http://www.w3.org/2000/svg" xmlns:xlink="http://www.w3.org/1999/xlink">
<g id="graph0" class="graph" transform="scale(1 1) rotate(0) translate(4 1593)">
<title>G</title>
<polygon fill="white" stroke="none" points="-4,4 -4,-1593 1318,-1593 1318,4 -4,4"/>
<g id="clust1" class="cluster"><title>cluster_Global</title>
<path fill="none" stroke="gray" d="M182,-98C182,-98 1294,-98 1294,-98 1300,-98 1306,-104 1306,-110 1306,-110 1306,-1569 1306,-1569 1306,-1575 1300,-1581 1294,-1581 1294,-1581 182,-1581 182,-1581 176,-1581 170,-1575 170,-1569 170,-1569 170,-110 170,-110 170,-104 176,-98 182,-98"/>
<text text-anchor="middle" x="738" y="-1568.2" font-family="Times,serif" font-size="11.00" fill="gray">Global</text>
</g>
<g id="clust2" class="cluster"><title>cluster_\OntologyWrapper</title>
<path fill="none" stroke="gray" d="M190,-106C190,-106 1286,-106 1286,-106 1292,-106 1298,-112 1298,-118 1298,-118 1298,-1542 1298,-1542 1298,-1548 1292,-1554 1286,-1554 1286,-1554 190,-1554 190,-1554 184,-1554 178,-1548 178,-1542 178,-1542 178,-118 178,-118 178,-112 184,-106 190,-106"/>
<text text-anchor="middle" x="738" y="-1541.2" font-family="Times,serif" font-size="11.00" fill="gray">OntologyWrapper</text>
</g>
<g id="clust3" class="cluster"><title>cluster_\OntologyWrapper\traits</title>
<path fill="none" stroke="gray" d="M1168,-268C1168,-268 1278,-268 1278,-268 1284,-268 1290,-274 1290,-280 1290,-280 1290,-1515 1290,-1515 1290,-1521 1284,-1527 1278,-1527 1278,-1527 1168,-1527 1168,-1527 1162,-1527 1156,-1521 1156,-1515 1156,-1515 1156,-280 1156,-280 1156,-274 1162,-268 1168,-268"/>
<text text-anchor="middle" x="1223" y="-1514.2" font-family="Times,serif" font-size="11.00" fill="gray">traits</text>
</g>
<!-- \\OntologyWrapper\\traits\\AccessorOffset -->
<g id="node1" class="node"><title>\\OntologyWrapper\\traits\\AccessorOffset</title>
<polygon fill="none" stroke="black" points="1264.61,-1500 1181.39,-1500 1181.39,-1464 1264.61,-1464 1264.61,-1500"/>
<text text-anchor="middle" x="1223" y="-1478.7" font-family="Times,serif" font-size="11.00">AccessorOffset</text>
</g>
<!-- \\OntologyWrapper\\traits\\AccessorProperty -->
<g id="node2" class="node"><title>\\OntologyWrapper\\traits\\AccessorProperty</title>
<polygon fill="none" stroke="black" points="1270.2,-1446 1175.8,-1446 1175.8,-1410 1270.2,-1410 1270.2,-1446"/>
<text text-anchor="middle" x="1223" y="-1424.7" font-family="Times,serif" font-size="11.00">AccessorProperty</text>
</g>
<!-- \\OntologyWrapper\\traits\\Category -->
<g id="node3" class="node"><title>\\OntologyWrapper\\traits\\Category</title>
<polygon fill="none" stroke="black" points="1251.32,-1392 1194.68,-1392 1194.68,-1356 1251.32,-1356 1251.32,-1392"/>
<text text-anchor="middle" x="1223" y="-1370.7" font-family="Times,serif" font-size="11.00">Category</text>
</g>
<!-- \\OntologyWrapper\\traits\\DataKind -->
<g id="node4" class="node"><title>\\OntologyWrapper\\traits\\DataKind</title>
<polygon fill="none" stroke="black" points="1252.27,-1338 1193.73,-1338 1193.73,-1302 1252.27,-1302 1252.27,-1338"/>
<text text-anchor="middle" x="1223" y="-1316.7" font-family="Times,serif" font-size="11.00">DataKind</text>
</g>
<!-- \\OntologyWrapper\\traits\\DataType -->
<g id="node5" class="node"><title>\\OntologyWrapper\\traits\\DataType</title>
<polygon fill="none" stroke="black" points="1252.1,-1284 1193.9,-1284 1193.9,-1248 1252.1,-1248 1252.1,-1284"/>
<text text-anchor="middle" x="1223" y="-1262.7" font-family="Times,serif" font-size="11.00">DataType</text>
</g>
<!-- \\OntologyWrapper\\traits\\Definition -->
<g id="node6" class="node"><title>\\OntologyWrapper\\traits\\Definition</title>
<polygon fill="none" stroke="black" points="1253.11,-1230 1192.89,-1230 1192.89,-1194 1253.11,-1194 1253.11,-1230"/>
<text text-anchor="middle" x="1223" y="-1208.7" font-family="Times,serif" font-size="11.00">Definition</text>
</g>
<!-- \\OntologyWrapper\\traits\\Description -->
<g id="node7" class="node"><title>\\OntologyWrapper\\traits\\Description</title>
<polygon fill="none" stroke="black" points="1256.82,-1176 1189.18,-1176 1189.18,-1140 1256.82,-1140 1256.82,-1176"/>
<text text-anchor="middle" x="1223" y="-1154.7" font-family="Times,serif" font-size="11.00">Description</text>
</g>
<!-- \\OntologyWrapper\\traits\\EntityAcronym -->
<g id="node8" class="node"><title>\\OntologyWrapper\\traits\\EntityAcronym</title>
<polygon fill="none" stroke="black" points="1265.43,-1122 1180.57,-1122 1180.57,-1086 1265.43,-1086 1265.43,-1122"/>
<text text-anchor="middle" x="1223" y="-1100.7" font-family="Times,serif" font-size="11.00">EntityAcronym</text>
</g>
<!-- \\OntologyWrapper\\traits\\EntityAffiliation -->
<g id="node9" class="node"><title>\\OntologyWrapper\\traits\\EntityAffiliation</title>
<polygon fill="none" stroke="black" points="1267.22,-1068 1178.78,-1068 1178.78,-1032 1267.22,-1032 1267.22,-1068"/>
<text text-anchor="middle" x="1223" y="-1046.7" font-family="Times,serif" font-size="11.00">EntityAffiliation</text>
</g>
<!-- \\OntologyWrapper\\traits\\EntityEmail -->
<g id="node10" class="node"><title>\\OntologyWrapper\\traits\\EntityEmail</title>
<polygon fill="none" stroke="black" points="1257.66,-1014 1188.34,-1014 1188.34,-978 1257.66,-978 1257.66,-1014"/>
<text text-anchor="middle" x="1223" y="-992.7" font-family="Times,serif" font-size="11.00">EntityEmail</text>
</g>
<!-- \\OntologyWrapper\\traits\\EntityFax -->
<g id="node11" class="node"><title>\\OntologyWrapper\\traits\\EntityFax</title>
<polygon fill="none" stroke="black" points="1252.89,-960 1193.11,-960 1193.11,-924 1252.89,-924 1252.89,-960"/>
<text text-anchor="middle" x="1223" y="-938.7" font-family="Times,serif" font-size="11.00">EntityFax</text>
</g>
<!-- \\OntologyWrapper\\traits\\EntityKind -->
<g id="node12" class="node"><title>\\OntologyWrapper\\traits\\EntityKind</title>
<polygon fill="none" stroke="black" points="1255.39,-906 1190.61,-906 1190.61,-870 1255.39,-870 1255.39,-906"/>
<text text-anchor="middle" x="1223" y="-884.7" font-family="Times,serif" font-size="11.00">EntityKind</text>
</g>
<!-- \\OntologyWrapper\\traits\\EntityLink -->
<g id="node13" class="node"><title>\\OntologyWrapper\\traits\\EntityLink</title>
<polygon fill="none" stroke="black" points="1254.66,-852 1191.34,-852 1191.34,-816 1254.66,-816 1254.66,-852"/>
<text text-anchor="middle" x="1223" y="-830.7" font-family="Times,serif" font-size="11.00">EntityLink</text>
</g>
<!-- \\OntologyWrapper\\traits\\EntityMail -->
<g id="node14" class="node"><title>\\OntologyWrapper\\traits\\EntityMail</title>
<polygon fill="none" stroke="black" points="1254.66,-798 1191.34,-798 1191.34,-762 1254.66,-762 1254.66,-798"/>
<text text-anchor="middle" x="1223" y="-776.7" font-family="Times,serif" font-size="11.00">EntityMail</text>
</g>
<!-- \\OntologyWrapper\\traits\\EntityPhone -->
<g id="node15" class="node"><title>\\OntologyWrapper\\traits\\EntityPhone</title>
<polygon fill="none" stroke="black" points="1258.39,-744 1187.61,-744 1187.61,-708 1258.39,-708 1258.39,-744"/>
<text text-anchor="middle" x="1223" y="-722.7" font-family="Times,serif" font-size="11.00">EntityPhone</text>
</g>
<!-- \\OntologyWrapper\\traits\\EntityType -->
<g id="node16" class="node"><title>\\OntologyWrapper\\traits\\EntityType</title>
<polygon fill="none" stroke="black" points="1255.22,-690 1190.78,-690 1190.78,-654 1255.22,-654 1255.22,-690"/>
<text text-anchor="middle" x="1223" y="-668.7" font-family="Times,serif" font-size="11.00">EntityType</text>
</g>
<!-- \\OntologyWrapper\\traits\\Label -->
<g id="node17" class="node"><title>\\OntologyWrapper\\traits\\Label</title>
<polygon fill="none" stroke="black" points="1250,-636 1196,-636 1196,-600 1250,-600 1250,-636"/>
<text text-anchor="middle" x="1223" y="-614.7" font-family="Times,serif" font-size="11.00">Label</text>
</g>
<!-- \\OntologyWrapper\\traits\\MemcachedDictionary -->
<g id="node18" class="node"><title>\\OntologyWrapper\\traits\\MemcachedDictionary</title>
<polygon fill="none" stroke="black" points="1281.29,-582 1164.71,-582 1164.71,-546 1281.29,-546 1281.29,-582"/>
<text text-anchor="middle" x="1223" y="-560.7" font-family="Times,serif" font-size="11.00">MemcachedDictionary</text>
</g>
<!-- \\OntologyWrapper\\traits\\NodeType -->
<g id="node19" class="node"><title>\\OntologyWrapper\\traits\\NodeType</title>
<polygon fill="none" stroke="black" points="1253.66,-528 1192.34,-528 1192.34,-492 1253.66,-492 1253.66,-528"/>
<text text-anchor="middle" x="1223" y="-506.7" font-family="Times,serif" font-size="11.00">NodeType</text>
</g>
<!-- \\OntologyWrapper\\traits\\Status -->
<g id="node20" class="node"><title>\\OntologyWrapper\\traits\\Status</title>
<polygon fill="none" stroke="black" points="1250,-474 1196,-474 1196,-438 1250,-438 1250,-474"/>
<text text-anchor="middle" x="1223" y="-452.7" font-family="Times,serif" font-size="11.00">Status</text>
</g>
<!-- \\OntologyWrapper\\traits\\Synonym -->
<g id="node21" class="node"><title>\\OntologyWrapper\\traits\\Synonym</title>
<polygon fill="none" stroke="black" points="1252.17,-420 1193.83,-420 1193.83,-384 1252.17,-384 1252.17,-420"/>
<text text-anchor="middle" x="1223" y="-398.7" font-family="Times,serif" font-size="11.00">Synonym</text>
</g>
<!-- \\OntologyWrapper\\traits\\Terms -->
<g id="node22" class="node"><title>\\OntologyWrapper\\traits\\Terms</title>
<polygon fill="none" stroke="black" points="1250,-366 1196,-366 1196,-330 1250,-330 1250,-366"/>
<text text-anchor="middle" x="1223" y="-344.7" font-family="Times,serif" font-size="11.00">Terms</text>
</g>
<!-- \\OntologyWrapper\\traits\\TermType -->
<g id="node23" class="node"><title>\\OntologyWrapper\\traits\\TermType</title>
<polygon fill="none" stroke="black" points="1253.39,-312 1192.61,-312 1192.61,-276 1253.39,-276 1253.39,-312"/>
<text text-anchor="middle" x="1223" y="-290.7" font-family="Times,serif" font-size="11.00">TermType</text>
</g>
<!-- \\OntologyWrapper\\CollectionObject -->
<g id="node24" class="node"><title>\\OntologyWrapper\\CollectionObject</title>
<polygon fill="none" stroke="black" points="771.647,-204 680.353,-204 680.353,-168 771.647,-168 771.647,-204"/>
<text text-anchor="start" x="703.398" y="-188.2" font-family="Times,serif" font-size="11.00">«abstract»</text>
<text text-anchor="start" x="688.427" y="-177.2" font-family="Times,serif" font-size="11.00">CollectionObject</text>
</g>
<!-- \\OntologyWrapper\\ConnectionObject -->
<g id="node25" class="node"><title>\\OntologyWrapper\\ConnectionObject</title>
<polygon fill="none" stroke="black" points="608.035,-285 511.965,-285 511.965,-249 608.035,-249 608.035,-285"/>
<text text-anchor="start" x="537.398" y="-269.2" font-family="Times,serif" font-size="11.00">«abstract»</text>
<text text-anchor="start" x="519.983" y="-258.2" font-family="Times,serif" font-size="11.00">ConnectionObject</text>
</g>
<!-- \\OntologyWrapper\\CollectionObject&#45;&gt;\\OntologyWrapper\\ConnectionObject -->
<g id="edge1" class="edge"><title>\\OntologyWrapper\\CollectionObject&#45;&gt;\\OntologyWrapper\\ConnectionObject</title>
<path fill="none" stroke="black" d="M688.195,-204.178C664.14,-216.059 632.538,-231.667 606.853,-244.353"/>
<polygon fill="none" stroke="black" points="605.098,-241.316 597.682,-248.883 608.198,-247.592 605.098,-241.316"/>
</g>
<!-- \\OntologyWrapper\\OntologyObject -->
<g id="node43" class="node"><title>\\OntologyWrapper\\OntologyObject</title>
<polygon fill="none" stroke="black" points="437.377,-285 350.623,-285 350.623,-249 437.377,-249 437.377,-285"/>
<text text-anchor="start" x="371.398" y="-269.2" font-family="Times,serif" font-size="11.00">«abstract»</text>
<text text-anchor="start" x="358.562" y="-258.2" font-family="Times,serif" font-size="11.00">OntologyObject</text>
</g>
<!-- \\OntologyWrapper\\ConnectionObject&#45;&gt;\\OntologyWrapper\\OntologyObject -->
<g id="edge2" class="edge"><title>\\OntologyWrapper\\ConnectionObject&#45;&gt;\\OntologyWrapper\\OntologyObject</title>
<path fill="none" stroke="black" d="M511.564,-267C491.575,-267 468.232,-267 447.707,-267"/>
<polygon fill="none" stroke="black" points="447.576,-263.5 437.576,-267 447.576,-270.5 447.576,-263.5"/>
</g>
<!-- \\OntologyWrapper\\ContainerObject -->
<g id="node26" class="node"><title>\\OntologyWrapper\\ContainerObject</title>
<polygon fill="none" stroke="black" points="275.198,-251 186.802,-251 186.802,-215 275.198,-215 275.198,-251"/>
<text text-anchor="middle" x="231" y="-229.7" font-family="Times,serif" font-size="11.00">ContainerObject</text>
</g>
<!-- \\ArrayObject -->
<g id="node51" class="node"><title>\\ArrayObject</title>
<ellipse fill="none" stroke="black" cx="57" cy="-233" rx="56.5201" ry="18"/>
<text text-anchor="middle" x="57" y="-228.8" font-family="Times,serif" font-size="14.00" fill="gray">\ArrayObject</text>
</g>
<!-- \\OntologyWrapper\\ContainerObject&#45;&gt;\\ArrayObject -->
<g id="edge3" class="edge"><title>\\OntologyWrapper\\ContainerObject&#45;&gt;\\ArrayObject</title>
<path fill="none" stroke="black" d="M186.597,-233C167.611,-233 144.919,-233 123.919,-233"/>
<polygon fill="none" stroke="black" points="123.769,-229.5 113.769,-233 123.769,-236.5 123.769,-229.5"/>
</g>
<!-- \\OntologyWrapper\\DatabaseGraph -->
<g id="node27" class="node"><title>\\OntologyWrapper\\DatabaseGraph</title>
<polygon fill="none" stroke="black" points="767.8,-258 684.2,-258 684.2,-222 767.8,-222 767.8,-258"/>
<text text-anchor="start" x="703.398" y="-242.2" font-family="Times,serif" font-size="11.00">«abstract»</text>
<text text-anchor="start" x="692.1" y="-231.2" font-family="Times,serif" font-size="11.00">DatabaseGraph</text>
</g>
<!-- \\OntologyWrapper\\DatabaseGraph&#45;&gt;\\OntologyWrapper\\ConnectionObject -->
<g id="edge4" class="edge"><title>\\OntologyWrapper\\DatabaseGraph&#45;&gt;\\OntologyWrapper\\ConnectionObject</title>
<path fill="none" stroke="black" d="M684.039,-246.744C664.136,-250.02 639.888,-254.012 618.196,-257.584"/>
<polygon fill="none" stroke="black" points="617.409,-254.166 608.11,-259.244 618.546,-261.073 617.409,-254.166"/>
</g>
<!-- \\OntologyWrapper\\DatabaseObject -->
<g id="node28" class="node"><title>\\OntologyWrapper\\DatabaseObject</title>
<polygon fill="none" stroke="black" points="768.632,-366 683.368,-366 683.368,-330 768.632,-330 768.632,-366"/>
<text text-anchor="start" x="703.398" y="-350.2" font-family="Times,serif" font-size="11.00">«abstract»</text>
<text text-anchor="start" x="691.185" y="-339.2" font-family="Times,serif" font-size="11.00">DatabaseObject</text>
</g>
<!-- \\OntologyWrapper\\DatabaseObject&#45;&gt;\\OntologyWrapper\\ConnectionObject -->
<g id="edge5" class="edge"><title>\\OntologyWrapper\\DatabaseObject&#45;&gt;\\OntologyWrapper\\ConnectionObject</title>
<path fill="none" stroke="black" d="M688.195,-329.822C664.14,-317.941 632.538,-302.333 606.853,-289.647"/>
<polygon fill="none" stroke="black" points="608.198,-286.408 597.682,-285.117 605.098,-292.684 608.198,-286.408"/>
</g>
<!-- \\OntologyWrapper\\Dictionary -->
<g id="node29" class="node"><title>\\OntologyWrapper\\Dictionary</title>
<polygon fill="none" stroke="black" points="591.54,-204 528.46,-204 528.46,-168 591.54,-168 591.54,-204"/>
<text text-anchor="middle" x="560" y="-182.7" font-family="Times,serif" font-size="11.00">Dictionary</text>
</g>
<!-- \\OntologyWrapper\\DictionaryObject -->
<g id="node30" class="node"><title>\\OntologyWrapper\\DictionaryObject</title>
<polygon fill="none" stroke="black" points="440.362,-218 347.638,-218 347.638,-182 440.362,-182 440.362,-218"/>
<text text-anchor="start" x="371.398" y="-202.2" font-family="Times,serif" font-size="11.00">«abstract»</text>
<text text-anchor="start" x="355.82" y="-191.2" font-family="Times,serif" font-size="11.00">DictionaryObject</text>
</g>
<!-- \\OntologyWrapper\\Dictionary&#45;&gt;\\OntologyWrapper\\DictionaryObject -->
<g id="edge6" class="edge"><title>\\OntologyWrapper\\Dictionary&#45;&gt;\\OntologyWrapper\\DictionaryObject</title>
<path fill="none" stroke="black" d="M528.153,-188.633C506.282,-190.5 476.328,-193.057 450.368,-195.273"/>
<polygon fill="none" stroke="black" points="449.936,-191.798 440.27,-196.135 450.531,-198.772 449.936,-191.798"/>
</g>
<!-- \\OntologyWrapper\\DictionaryObject&#45;&gt;\\OntologyWrapper\\ContainerObject -->
<g id="edge7" class="edge"><title>\\OntologyWrapper\\DictionaryObject&#45;&gt;\\OntologyWrapper\\ContainerObject</title>
<path fill="none" stroke="black" d="M347.724,-209.28C328.31,-213.259 305.492,-217.936 285.271,-222.081"/>
<polygon fill="none" stroke="black" points="284.368,-218.693 275.274,-224.13 285.773,-225.551 284.368,-218.693"/>
</g>
<!-- \\OntologyWrapper\\Edge -->
<g id="node31" class="node"><title>\\OntologyWrapper\\Edge</title>
<polygon fill="none" stroke="black" points="753,-636 699,-636 699,-600 753,-600 753,-636"/>
<text text-anchor="middle" x="726" y="-614.7" font-family="Times,serif" font-size="11.00">Edge</text>
</g>
<!-- \\OntologyWrapper\\PersistentObject -->
<g id="node44" class="node"><title>\\OntologyWrapper\\PersistentObject</title>
<polygon fill="none" stroke="black" points="604.096,-501 515.904,-501 515.904,-465 604.096,-465 604.096,-501"/>
<text text-anchor="start" x="537.398" y="-485.2" font-family="Times,serif" font-size="11.00">«abstract»</text>
<text text-anchor="start" x="523.952" y="-474.2" font-family="Times,serif" font-size="11.00">PersistentObject</text>
</g>
<!-- \\OntologyWrapper\\Edge&#45;&gt;\\OntologyWrapper\\PersistentObject -->
<g id="edge8" class="edge"><title>\\OntologyWrapper\\Edge&#45;&gt;\\OntologyWrapper\\PersistentObject</title>
<path fill="none" stroke="black" d="M698.735,-603.424C692.441,-599.611 685.852,-595.345 680,-591 645.385,-565.298 609.199,-531.272 585.951,-508.337"/>
<polygon fill="none" stroke="black" points="588.144,-505.581 578.584,-501.013 583.208,-510.545 588.144,-505.581"/>
</g>
<!-- \\OntologyWrapper\\EntityObject -->
<g id="node32" class="node"><title>\\OntologyWrapper\\EntityObject</title>
<polygon fill="none" stroke="black" points="929.209,-501 856.791,-501 856.791,-465 929.209,-465 929.209,-501"/>
<text text-anchor="start" x="870.398" y="-485.2" font-family="Times,serif" font-size="11.00">«abstract»</text>
<text text-anchor="start" x="864.896" y="-474.2" font-family="Times,serif" font-size="11.00">EntityObject</text>
</g>
<!-- \\OntologyWrapper\\UnitObject -->
<g id="node49" class="node"><title>\\OntologyWrapper\\UnitObject</title>
<polygon fill="none" stroke="black" points="758.377,-582 693.623,-582 693.623,-546 758.377,-546 758.377,-582"/>
<text text-anchor="start" x="703.398" y="-566.2" font-family="Times,serif" font-size="11.00">«abstract»</text>
<text text-anchor="start" x="701.562" y="-555.2" font-family="Times,serif" font-size="11.00">UnitObject</text>
</g>
<!-- \\OntologyWrapper\\EntityObject&#45;&gt;\\OntologyWrapper\\UnitObject -->
<g id="edge9" class="edge"><title>\\OntologyWrapper\\EntityObject&#45;&gt;\\OntologyWrapper\\UnitObject</title>
<path fill="none" stroke="black" d="M856.603,-500.377C830.514,-513.184 794.974,-530.631 767.709,-544.016"/>
<polygon fill="none" stroke="black" points="765.873,-541.018 758.439,-548.566 768.958,-547.301 765.873,-541.018"/>
</g>
<!-- \\OntologyWrapper\\FAOInstitute -->
<g id="node33" class="node"><title>\\OntologyWrapper\\FAOInstitute</title>
<polygon fill="none" stroke="black" points="1259.75,-258 1186.25,-258 1186.25,-222 1259.75,-222 1259.75,-258"/>
<text text-anchor="middle" x="1223" y="-236.7" font-family="Times,serif" font-size="11.00">FAOInstitute</text>
</g>
<!-- \\OntologyWrapper\\Institution -->
<g id="node35" class="node"><title>\\OntologyWrapper\\Institution</title>
<polygon fill="none" stroke="black" points="1083.73,-312 1022.27,-312 1022.27,-276 1083.73,-276 1083.73,-312"/>
<text text-anchor="middle" x="1053" y="-290.7" font-family="Times,serif" font-size="11.00">Institution</text>
</g>
<!-- \\OntologyWrapper\\FAOInstitute&#45;&gt;\\OntologyWrapper\\Institution -->
<g id="edge10" class="edge"><title>\\OntologyWrapper\\FAOInstitute&#45;&gt;\\OntologyWrapper\\Institution</title>
<path fill="none" stroke="black" d="M1186.37,-251.452C1159.06,-260.231 1121.4,-272.337 1093.23,-281.392"/>
<polygon fill="none" stroke="black" points="1092.14,-278.064 1083.69,-284.457 1094.28,-284.729 1092.14,-278.064"/>
</g>
<!-- \\OntologyWrapper\\Individual -->
<g id="node34" class="node"><title>\\OntologyWrapper\\Individual</title>
<polygon fill="none" stroke="black" points="1083.71,-501 1022.29,-501 1022.29,-465 1083.71,-465 1083.71,-501"/>
<text text-anchor="middle" x="1053" y="-479.7" font-family="Times,serif" font-size="11.00">Individual</text>
</g>
<!-- \\OntologyWrapper\\Individual&#45;&gt;\\OntologyWrapper\\EntityObject -->
<g id="edge11" class="edge"><title>\\OntologyWrapper\\Individual&#45;&gt;\\OntologyWrapper\\EntityObject</title>
<path fill="none" stroke="black" d="M1022.28,-483C999.001,-483 966.214,-483 939.615,-483"/>
<polygon fill="none" stroke="black" points="939.386,-479.5 929.386,-483 939.386,-486.5 939.386,-479.5"/>
</g>
<!-- \\OntologyWrapper\\Institution&#45;&gt;\\OntologyWrapper\\EntityObject -->
<g id="edge12" class="edge"><title>\\OntologyWrapper\\Institution&#45;&gt;\\OntologyWrapper\\EntityObject</title>
<path fill="none" stroke="black" d="M1036.85,-312.122C1008.66,-345.849 948.052,-418.343 915.583,-457.182"/>
<polygon fill="none" stroke="black" points="912.832,-455.016 909.104,-464.933 918.203,-459.505 912.832,-455.016"/>
</g>
<!-- \\OntologyWrapper\\IteratorObject -->
<g id="node36" class="node"><title>\\OntologyWrapper\\IteratorObject</title>
<polygon fill="none" stroke="black" points="1091.69,-150 1014.31,-150 1014.31,-114 1091.69,-114 1091.69,-150"/>
<text text-anchor="start" x="1030.4" y="-134.2" font-family="Times,serif" font-size="11.00">«abstract»</text>
<text text-anchor="start" x="1022.16" y="-123.2" font-family="Times,serif" font-size="11.00">IteratorObject</text>
</g>
<!-- \\Iterator -->
<g id="node52" class="node"><title>\\Iterator</title>
<ellipse fill="none" stroke="black" cx="893" cy="-72" rx="38.6695" ry="18"/>
<text text-anchor="middle" x="893" y="-67.8" font-family="Times,serif" font-size="14.00" fill="gray">\Iterator</text>
</g>
<!-- \\OntologyWrapper\\IteratorObject&#45;&gt;\\Iterator -->
<g id="edge13" class="edge"><title>\\OntologyWrapper\\IteratorObject&#45;&gt;\\Iterator</title>
<path fill="none" stroke="black" stroke-dasharray="1,5" d="M1014.16,-117.629C989.573,-108.294 957.616,-96.1578 932.838,-86.7488"/>
<polygon fill="none" stroke="black" points="933.976,-83.4371 923.385,-83.1589 931.491,-89.9811 933.976,-83.4371"/>
</g>
<!-- \\Countable -->
<g id="node53" class="node"><title>\\Countable</title>
<ellipse fill="none" stroke="black" cx="893" cy="-18" rx="48.8273" ry="18"/>
<text text-anchor="middle" x="893" y="-13.8" font-family="Times,serif" font-size="14.00" fill="gray">\Countable</text>
</g>
<!-- \\OntologyWrapper\\IteratorObject&#45;&gt;\\Countable -->
<g id="edge14" class="edge"><title>\\OntologyWrapper\\IteratorObject&#45;&gt;\\Countable</title>
<path fill="none" stroke="black" stroke-dasharray="1,5" d="M1031.25,-113.97C1009.67,-95.6163 974.556,-66.8352 942,-45 938.427,-42.6034 934.626,-40.2151 930.79,-37.9063"/>
<polygon fill="none" stroke="black" points="932.261,-34.7125 921.86,-32.6965 928.733,-40.7588 932.261,-34.7125"/>
</g>
<!-- \\OntologyWrapper\\MongoCollection -->
<g id="node37" class="node"><title>\\OntologyWrapper\\MongoCollection</title>
<polygon fill="none" stroke="black" points="939.608,-204 846.392,-204 846.392,-168 939.608,-168 939.608,-204"/>
<text text-anchor="middle" x="893" y="-182.7" font-family="Times,serif" font-size="11.00">MongoCollection</text>
</g>
<!-- \\OntologyWrapper\\MongoCollection&#45;&gt;\\OntologyWrapper\\CollectionObject -->
<g id="edge15" class="edge"><title>\\OntologyWrapper\\MongoCollection&#45;&gt;\\OntologyWrapper\\CollectionObject</title>
<path fill="none" stroke="black" d="M846.038,-186C826.043,-186 802.46,-186 781.581,-186"/>
<polygon fill="none" stroke="black" points="781.577,-182.5 771.577,-186 781.577,-189.5 781.577,-182.5"/>
</g>
<!-- \\OntologyWrapper\\MongoDatabase -->
<g id="node38" class="node"><title>\\OntologyWrapper\\MongoDatabase</title>
<polygon fill="none" stroke="black" points="937.091,-366 848.909,-366 848.909,-330 937.091,-330 937.091,-366"/>
<text text-anchor="middle" x="893" y="-344.7" font-family="Times,serif" font-size="11.00">MongoDatabase</text>
</g>
<!-- \\OntologyWrapper\\MongoDatabase&#45;&gt;\\OntologyWrapper\\DatabaseObject -->
<g id="edge16" class="edge"><title>\\OntologyWrapper\\MongoDatabase&#45;&gt;\\OntologyWrapper\\DatabaseObject</title>
<path fill="none" stroke="black" d="M848.648,-348C827.203,-348 801.163,-348 778.687,-348"/>
<polygon fill="none" stroke="black" points="778.64,-344.5 768.64,-348 778.64,-351.5 778.64,-344.5"/>
</g>
<!-- \\OntologyWrapper\\MongoIterator -->
<g id="node39" class="node"><title>\\OntologyWrapper\\MongoIterator</title>
<polygon fill="none" stroke="black" points="1263.15,-204 1182.85,-204 1182.85,-168 1263.15,-168 1263.15,-204"/>
<text text-anchor="middle" x="1223" y="-182.7" font-family="Times,serif" font-size="11.00">MongoIterator</text>
</g>
<!-- \\OntologyWrapper\\MongoIterator&#45;&gt;\\OntologyWrapper\\IteratorObject -->
<g id="edge17" class="edge"><title>\\OntologyWrapper\\MongoIterator&#45;&gt;\\OntologyWrapper\\IteratorObject</title>
<path fill="none" stroke="black" d="M1182.61,-173.339C1158.27,-165.517 1126.9,-155.432 1101.23,-147.181"/>
<polygon fill="none" stroke="black" points="1102.29,-143.845 1091.7,-144.117 1100.15,-150.51 1102.29,-143.845"/>
</g>
<!-- \\OntologyWrapper\\MongoServer -->
<g id="node40" class="node"><title>\\OntologyWrapper\\MongoServer</title>
<polygon fill="none" stroke="black" points="931.491,-312 854.509,-312 854.509,-276 931.491,-276 931.491,-312"/>
<text text-anchor="middle" x="893" y="-290.7" font-family="Times,serif" font-size="11.00">MongoServer</text>
</g>
<!-- \\OntologyWrapper\\ServerObject -->
<g id="node46" class="node"><title>\\OntologyWrapper\\ServerObject</title>
<polygon fill="none" stroke="black" points="763.029,-312 688.971,-312 688.971,-276 763.029,-276 763.029,-312"/>
<text text-anchor="start" x="703.398" y="-296.2" font-family="Times,serif" font-size="11.00">«abstract»</text>
<text text-anchor="start" x="696.985" y="-285.2" font-family="Times,serif" font-size="11.00">ServerObject</text>
</g>
<!-- \\OntologyWrapper\\MongoServer&#45;&gt;\\OntologyWrapper\\ServerObject -->
<g id="edge18" class="edge"><title>\\OntologyWrapper\\MongoServer&#45;&gt;\\OntologyWrapper\\ServerObject</title>
<path fill="none" stroke="black" d="M854.559,-294C830.491,-294 799.044,-294 773.395,-294"/>
<polygon fill="none" stroke="black" points="773.159,-290.5 763.159,-294 773.159,-297.5 773.159,-290.5"/>
</g>
<!-- \\OntologyWrapper\\Neo4jGraph -->
<g id="node41" class="node"><title>\\OntologyWrapper\\Neo4jGraph</title>
<polygon fill="none" stroke="black" points="928.373,-258 857.627,-258 857.627,-222 928.373,-222 928.373,-258"/>
<text text-anchor="middle" x="893" y="-236.7" font-family="Times,serif" font-size="11.00">Neo4jGraph</text>
</g>
<!-- \\OntologyWrapper\\Neo4jGraph&#45;&gt;\\OntologyWrapper\\DatabaseGraph -->
<g id="edge19" class="edge"><title>\\OntologyWrapper\\Neo4jGraph&#45;&gt;\\OntologyWrapper\\DatabaseGraph</title>
<path fill="none" stroke="black" d="M857.812,-240C834.729,-240 803.855,-240 777.898,-240"/>
<polygon fill="none" stroke="black" points="777.851,-236.5 767.851,-240 777.851,-243.5 777.851,-236.5"/>
</g>
<!-- \\OntologyWrapper\\Node -->
<g id="node42" class="node"><title>\\OntologyWrapper\\Node</title>
<polygon fill="none" stroke="black" points="753,-528 699,-528 699,-492 753,-492 753,-528"/>
<text text-anchor="middle" x="726" y="-506.7" font-family="Times,serif" font-size="11.00">Node</text>
</g>
<!-- \\OntologyWrapper\\Node&#45;&gt;\\OntologyWrapper\\PersistentObject -->
<g id="edge20" class="edge"><title>\\OntologyWrapper\\Node&#45;&gt;\\OntologyWrapper\\PersistentObject</title>
<path fill="none" stroke="black" d="M698.651,-505.662C675.99,-501.931 642.594,-496.433 614.372,-491.787"/>
<polygon fill="none" stroke="black" points="614.674,-488.29 604.238,-490.118 613.537,-495.197 614.674,-488.29"/>
</g>
<!-- \\OntologyWrapper\\OntologyObject&#45;&gt;\\OntologyWrapper\\ContainerObject -->
<g id="edge21" class="edge"><title>\\OntologyWrapper\\OntologyObject&#45;&gt;\\OntologyWrapper\\ContainerObject</title>
<path fill="none" stroke="black" d="M350.278,-257.978C330.253,-253.749 306.194,-248.668 285.018,-244.196"/>
<polygon fill="none" stroke="black" points="285.71,-240.765 275.202,-242.123 284.263,-247.614 285.71,-240.765"/>
</g>
<!-- \\OntologyWrapper\\PersistentObject&#45;&gt;\\OntologyWrapper\\OntologyObject -->
<g id="edge22" class="edge"><title>\\OntologyWrapper\\PersistentObject&#45;&gt;\\OntologyWrapper\\OntologyObject</title>
<path fill="none" stroke="black" d="M545.3,-464.955C516.298,-426.759 448.606,-337.603 414.859,-293.156"/>
<polygon fill="none" stroke="black" points="417.612,-290.993 408.777,-285.145 412.036,-295.226 417.612,-290.993"/>
</g>
<!-- \\OntologyWrapper\\ResultAggregator -->
<g id="node45" class="node"><title>\\OntologyWrapper\\ResultAggregator</title>
<polygon fill="none" stroke="black" points="1270.2,-150 1175.8,-150 1175.8,-114 1270.2,-114 1270.2,-150"/>
<text text-anchor="middle" x="1223" y="-128.7" font-family="Times,serif" font-size="11.00">ResultAggregator</text>
</g>
<!-- \\OntologyWrapper\\ServerObject&#45;&gt;\\OntologyWrapper\\ConnectionObject -->
<g id="edge23" class="edge"><title>\\OntologyWrapper\\ServerObject&#45;&gt;\\OntologyWrapper\\ConnectionObject</title>
<path fill="none" stroke="black" d="M688.603,-288.008C667.97,-284.611 641.689,-280.284 618.347,-276.441"/>
<polygon fill="none" stroke="black" points="618.641,-272.943 608.205,-274.772 617.504,-279.85 618.641,-272.943"/>
</g>
<!-- \\OntologyWrapper\\Tag -->
<g id="node47" class="node"><title>\\OntologyWrapper\\Tag</title>
<polygon fill="none" stroke="black" points="753,-474 699,-474 699,-438 753,-438 753,-474"/>
<text text-anchor="middle" x="726" y="-452.7" font-family="Times,serif" font-size="11.00">Tag</text>
</g>
<!-- \\OntologyWrapper\\Tag&#45;&gt;\\OntologyWrapper\\PersistentObject -->
<g id="edge24" class="edge"><title>\\OntologyWrapper\\Tag&#45;&gt;\\OntologyWrapper\\PersistentObject</title>
<path fill="none" stroke="black" d="M698.651,-460.338C675.99,-464.069 642.594,-469.567 614.372,-474.213"/>
<polygon fill="none" stroke="black" points="613.537,-470.803 604.238,-475.882 614.674,-477.71 613.537,-470.803"/>
</g>
<!-- \\OntologyWrapper\\Term -->
<g id="node48" class="node"><title>\\OntologyWrapper\\Term</title>
<polygon fill="none" stroke="black" points="753,-420 699,-420 699,-384 753,-384 753,-420"/>
<text text-anchor="middle" x="726" y="-398.7" font-family="Times,serif" font-size="11.00">Term</text>
</g>
<!-- \\OntologyWrapper\\Term&#45;&gt;\\OntologyWrapper\\PersistentObject -->
<g id="edge25" class="edge"><title>\\OntologyWrapper\\Term&#45;&gt;\\OntologyWrapper\\PersistentObject</title>
<path fill="none" stroke="black" d="M698.651,-415.014C673.976,-427.201 636.574,-445.674 606.981,-460.29"/>
<polygon fill="none" stroke="black" points="605.09,-457.32 597.674,-464.887 608.19,-463.596 605.09,-457.32"/>
</g>
<!-- \\OntologyWrapper\\UnitObject&#45;&gt;\\OntologyWrapper\\PersistentObject -->
<g id="edge26" class="edge"><title>\\OntologyWrapper\\UnitObject&#45;&gt;\\OntologyWrapper\\PersistentObject</title>
<path fill="none" stroke="black" d="M693.379,-548.382C668.793,-536.239 634.342,-519.224 606.748,-505.595"/>
<polygon fill="none" stroke="black" points="608.193,-502.405 597.677,-501.115 605.093,-508.681 608.193,-502.405"/>
</g>
<!-- \\OntologyWrapper\\Wrapper -->
<g id="node50" class="node"><title>\\OntologyWrapper\\Wrapper</title>
<polygon fill="none" stroke="black" points="753.038,-150 698.962,-150 698.962,-114 753.038,-114 753.038,-150"/>
<text text-anchor="middle" x="726" y="-128.7" font-family="Times,serif" font-size="11.00">Wrapper</text>
</g>
<!-- \\OntologyWrapper\\Wrapper&#45;&gt;\\OntologyWrapper\\Dictionary -->
<g id="edge27" class="edge"><title>\\OntologyWrapper\\Wrapper&#45;&gt;\\OntologyWrapper\\Dictionary</title>
<path fill="none" stroke="black" d="M698.651,-140.676C672.456,-149.301 631.917,-162.649 601.606,-172.63"/>
<polygon fill="none" stroke="black" points="600.158,-169.422 591.754,-175.874 602.347,-176.071 600.158,-169.422"/>
</g>
</g>
</svg>
